<svg xmlns="http://www.w3.org/2000/svg" viewBox="0 0 950 460" width="950" height="460"><svg id="fold-matrix" width="460" viewBox="0 0 460 460" x="0" y="0" height="460"><defs><style>text{font-family:ui-sans-serif,system-ui;font-size:10px;fill:#94a3b8}</style></defs><rect x="44" y="44" width="372" height="372" fill="#fff" stroke="#e2e8f0"/><rect x="44" y="44" width="106.28571428571428" height="372" fill="#0f172a" opacity="0.04"/><rect x="309.7142857142857" y="44" width="106.28571428571428" height="372" fill="#0f172a" opacity="0.04"/><rect x="320.34285714285716" y="44" width="11.5" height="11.5" fill="rgb(255,251,251)"/><rect x="118.39999999999999" y="54.628571428571426" width="11.5" height="11.5" fill="rgb(255,251,251)"/><rect x="341.59999999999997" y="54.628571428571426" width="11.5" height="11.5" fill="rgb(255,251,251)"/><rect x="97.14285714285714" y="97.14285714285714" width="11.5" height="11.5" fill="rgb(255,251,251)"/><rect x="54.628571428571426" y="118.39999999999999" width="11.5" height="11.5" fill="rgb(255,251,251)"/><rect x="256.57142857142856" y="160.9142857142857" width="11.5" height="11.5" fill="rgb(255,251,251)"/><rect x="384.1142857142857" y="171.54285714285714" width="11.5" height="11.5" fill="rgb(255,251,251)"/><rect x="214.05714285714285" y="182.17142857142858" width="11.5" height="11.5" fill="rgb(255,247,247)"/><rect x="224.68571428571428" y="182.17142857142858" width="11.5" height="11.5" fill="rgb(255,238,238)"/><rect x="245.94285714285712" y="182.17142857142858" width="11.5" height="11.5" fill="rgb(255,251,251)"/><rect x="256.57142857142856" y="182.17142857142858" width="11.5" height="11.5" fill="rgb(255,247,247)"/><rect x="267.2" y="182.17142857142858" width="11.5" height="11.5" fill="rgb(255,251,251)"/><rect x="277.8285714285714" y="182.17142857142858" width="11.5" height="11.5" fill="rgb(255,247,247)"/><rect x="288.45714285714286" y="182.17142857142858" width="11.5" height="11.5" fill="rgb(255,238,238)"/><rect x="299.0857142857143" y="182.17142857142858" width="11.5" height="11.5" fill="rgb(255,251,251)"/><rect x="405.37142857142857" y="182.17142857142858" width="11.5" height="11.5" fill="rgb(255,251,251)"/><rect x="214.05714285714285" y="192.79999999999998" width="11.5" height="11.5" fill="rgb(255,242,242)"/><rect x="288.45714285714286" y="192.79999999999998" width="11.5" height="11.5" fill="rgb(255,251,251)"/><rect x="299.0857142857143" y="192.79999999999998" width="11.5" height="11.5" fill="rgb(255,242,242)"/><rect x="203.42857142857142" y="203.42857142857142" width="11.5" height="11.5" fill="rgb(255,242,242)"/><rect x="214.05714285714285" y="203.42857142857142" width="11.5" height="11.5" fill="rgb(255,251,251)"/><rect x="224.68571428571428" y="203.42857142857142" width="11.5" height="11.5" fill="rgb(255,242,242)"/><rect x="235.31428571428572" y="203.42857142857142" width="11.5" height="11.5" fill="rgb(255,247,247)"/><rect x="256.57142857142856" y="203.42857142857142" width="11.5" height="11.5" fill="rgb(255,251,251)"/><rect x="267.2" y="203.42857142857142" width="11.5" height="11.5" fill="rgb(255,251,251)"/><rect x="277.8285714285714" y="203.42857142857142" width="11.5" height="11.5" fill="rgb(255,247,247)"/><rect x="288.45714285714286" y="203.42857142857142" width="11.5" height="11.5" fill="rgb(255,251,251)"/><rect x="182.17142857142858" y="214.05714285714285" width="11.5" height="11.5" fill="rgb(255,247,247)"/><rect x="192.79999999999998" y="214.05714285714285" width="11.5" height="11.5" fill="rgb(255,242,242)"/><rect x="203.42857142857142" y="214.05714285714285" width="11.5" height="11.5" fill="rgb(255,251,251)"/><rect x="214.05714285714285" y="214.05714285714285" width="11.5" height="11.5" fill="rgb(255,242,242)"/><rect x="224.68571428571428" y="214.05714285714285" width="11.5" height="11.5" fill="rgb(255,251,251)"/><rect x="235.31428571428572" y="214.05714285714285" width="11.5" height="11.5" fill="rgb(254,213,213)"/><rect x="277.8285714285714" y="214.05714285714285" width="11.5" height="11.5" fill="rgb(255,247,247)"/><rect x="182.17142857142858" y="224.68571428571428" width="11.5" height="11.5" fill="rgb(255,238,238)"/><rect x="203.42857142857142" y="224.68571428571428" width="11.5" height="11.5" fill="rgb(255,242,242)"/><rect x="214.05714285714285" y="224.68571428571428" width="11.5" height="11.5" fill="rgb(255,251,251)"/><rect x="224.68571428571428" y="224.68571428571428" width="11.5" height="11.5" fill="rgb(254,198,198)"/><rect x="235.31428571428572" y="224.68571428571428" width="11.5" height="11.5" fill="rgb(255,242,242)"/><rect x="245.94285714285712" y="224.68571428571428" width="11.5" height="11.5" fill="rgb(255,251,251)"/><rect x="256.57142857142856" y="224.68571428571428" width="11.5" height="11.5" fill="rgb(255,247,247)"/><rect x="267.2" y="224.68571428571428" width="11.5" height="11.5" fill="rgb(255,251,251)"/><rect x="288.45714285714286" y="224.68571428571428" width="11.5" height="11.5" fill="rgb(255,251,251)"/><rect x="299.0857142857143" y="224.68571428571428" width="11.5" height="11.5" fill="rgb(255,242,242)"/><rect x="203.42857142857142" y="235.31428571428572" width="11.5" height="11.5" fill="rgb(255,247,247)"/><rect x="214.05714285714285" y="235.31428571428572" width="11.5" height="11.5" fill="rgb(254,213,213)"/><rect x="224.68571428571428" y="235.31428571428572" width="11.5" height="11.5" fill="rgb(255,242,242)"/><rect x="235.31428571428572" y="235.31428571428572" width="11.5" height="11.5" fill="rgb(255,238,238)"/><rect x="256.57142857142856" y="235.31428571428572" width="11.5" height="11.5" fill="rgb(255,247,247)"/><rect x="330.97142857142853" y="235.31428571428572" width="11.5" height="11.5" fill="rgb(255,251,251)"/><rect x="182.17142857142858" y="245.94285714285712" width="11.5" height="11.5" fill="rgb(255,251,251)"/><rect x="224.68571428571428" y="245.94285714285712" width="11.5" height="11.5" fill="rgb(255,251,251)"/><rect x="245.94285714285712" y="245.94285714285712" width="11.5" height="11.5" fill="rgb(255,230,230)"/><rect x="267.2" y="245.94285714285712" width="11.5" height="11.5" fill="rgb(255,251,251)"/><rect x="277.8285714285714" y="245.94285714285712" width="11.5" height="11.5" fill="rgb(255,251,251)"/><rect x="405.37142857142857" y="245.94285714285712" width="11.5" height="11.5" fill="rgb(255,251,251)"/><rect x="160.9142857142857" y="256.57142857142856" width="11.5" height="11.5" fill="rgb(255,251,251)"/><rect x="182.17142857142858" y="256.57142857142856" width="11.5" height="11.5" fill="rgb(255,247,247)"/><rect x="203.42857142857142" y="256.57142857142856" width="11.5" height="11.5" fill="rgb(255,251,251)"/><rect x="224.68571428571428" y="256.57142857142856" width="11.5" height="11.5" fill="rgb(255,247,247)"/><rect x="235.31428571428572" y="256.57142857142856" width="11.5" height="11.5" fill="rgb(255,247,247)"/><rect x="256.57142857142856" y="256.57142857142856" width="11.5" height="11.5" fill="rgb(255,230,230)"/><rect x="277.8285714285714" y="256.57142857142856" width="11.5" height="11.5" fill="rgb(255,251,251)"/><rect x="288.45714285714286" y="256.57142857142856" width="11.5" height="11.5" fill="rgb(255,251,251)"/><rect x="384.1142857142857" y="256.57142857142856" width="11.5" height="11.5" fill="rgb(255,251,251)"/><rect x="405.37142857142857" y="256.57142857142856" width="11.5" height="11.5" fill="rgb(255,251,251)"/><rect x="182.17142857142858" y="267.2" width="11.5" height="11.5" fill="rgb(255,251,251)"/><rect x="203.42857142857142" y="267.2" width="11.5" height="11.5" fill="rgb(255,251,251)"/><rect x="224.68571428571428" y="267.2" width="11.5" height="11.5" fill="rgb(255,251,251)"/><rect x="245.94285714285712" y="267.2" width="11.5" height="11.5" fill="rgb(255,251,251)"/><rect x="267.2" y="267.2" width="11.5" height="11.5" fill="rgb(255,251,251)"/><rect x="341.59999999999997" y="267.2" width="11.5" height="11.5" fill="rgb(255,251,251)"/><rect x="182.17142857142858" y="277.8285714285714" width="11.5" height="11.5" fill="rgb(255,247,247)"/><rect x="203.42857142857142" y="277.8285714285714" width="11.5" height="11.5" fill="rgb(255,247,247)"/><rect x="214.05714285714285" y="277.8285714285714" width="11.5" height="11.5" fill="rgb(255,247,247)"/><rect x="245.94285714285712" y="277.8285714285714" width="11.5" height="11.5" fill="rgb(255,251,251)"/><rect x="256.57142857142856" y="277.8285714285714" width="11.5" height="11.5" fill="rgb(255,251,251)"/><rect x="352.2285714285714" y="277.8285714285714" width="11.5" height="11.5" fill="rgb(255,238,238)"/><rect x="384.1142857142857" y="277.8285714285714" width="11.5" height="11.5" fill="rgb(255,251,251)"/><rect x="394.74285714285713" y="277.8285714285714" width="11.5" height="11.5" fill="rgb(255,247,247)"/><rect x="405.37142857142857" y="277.8285714285714" width="11.5" height="11.5" fill="rgb(248,113,113)"/><rect x="182.17142857142858" y="288.45714285714286" width="11.5" height="11.5" fill="rgb(255,238,238)"/><rect x="192.79999999999998" y="288.45714285714286" width="11.5" height="11.5" fill="rgb(255,251,251)"/><rect x="203.42857142857142" y="288.45714285714286" width="11.5" height="11.5" fill="rgb(255,251,251)"/><rect x="224.68571428571428" y="288.45714285714286" width="11.5" height="11.5" fill="rgb(255,251,251)"/><rect x="256.57142857142856" y="288.45714285714286" width="11.5" height="11.5" fill="rgb(255,251,251)"/><rect x="309.7142857142857" y="288.45714285714286" width="11.5" height="11.5" fill="rgb(255,251,251)"/><rect x="394.74285714285713" y="288.45714285714286" width="11.5" height="11.5" fill="rgb(255,242,242)"/><rect x="405.37142857142857" y="288.45714285714286" width="11.5" height="11.5" fill="rgb(250,141,141)"/><rect x="182.17142857142858" y="299.0857142857143" width="11.5" height="11.5" fill="rgb(255,251,251)"/><rect x="192.79999999999998" y="299.0857142857143" width="11.5" height="11.5" fill="rgb(255,242,242)"/><rect x="224.68571428571428" y="299.0857142857143" width="11.5" height="11.5" fill="rgb(255,242,242)"/><rect x="341.59999999999997" y="299.0857142857143" width="11.5" height="11.5" fill="rgb(255,251,251)"/><rect x="362.85714285714283" y="299.0857142857143" width="11.5" height="11.5" fill="rgb(254,225,225)"/><rect x="394.74285714285713" y="299.0857142857143" width="11.5" height="11.5" fill="rgb(255,238,238)"/><rect x="405.37142857142857" y="299.0857142857143" width="11.5" height="11.5" fill="rgb(213,65,65)"/><rect x="288.45714285714286" y="309.7142857142857" width="11.5" height="11.5" fill="rgb(255,251,251)"/><rect x="309.7142857142857" y="309.7142857142857" width="11.5" height="11.5" fill="rgb(255,247,247)"/><rect x="373.48571428571427" y="309.7142857142857" width="11.5" height="11.5" fill="rgb(255,247,247)"/><rect x="405.37142857142857" y="309.7142857142857" width="11.5" height="11.5" fill="rgb(255,251,251)"/><rect x="44" y="320.34285714285716" width="11.5" height="11.5" fill="rgb(255,251,251)"/><rect x="373.48571428571427" y="320.34285714285716" width="11.5" height="11.5" fill="rgb(255,247,247)"/><rect x="405.37142857142857" y="320.34285714285716" width="11.5" height="11.5" fill="rgb(254,213,213)"/><rect x="235.31428571428572" y="330.97142857142853" width="11.5" height="11.5" fill="rgb(255,251,251)"/><rect x="352.2285714285714" y="330.97142857142853" width="11.5" height="11.5" fill="rgb(255,251,251)"/><rect x="362.85714285714283" y="330.97142857142853" width="11.5" height="11.5" fill="rgb(69,10,10)"/><rect x="405.37142857142857" y="330.97142857142853" width="11.5" height="11.5" fill="rgb(255,251,251)"/><rect x="54.628571428571426" y="341.59999999999997" width="11.5" height="11.5" fill="rgb(255,251,251)"/><rect x="267.2" y="341.59999999999997" width="11.5" height="11.5" fill="rgb(255,251,251)"/><rect x="299.0857142857143" y="341.59999999999997" width="11.5" height="11.5" fill="rgb(255,251,251)"/><rect x="341.59999999999997" y="341.59999999999997" width="11.5" height="11.5" fill="rgb(255,242,242)"/><rect x="277.8285714285714" y="352.2285714285714" width="11.5" height="11.5" fill="rgb(255,238,238)"/><rect x="330.97142857142853" y="352.2285714285714" width="11.5" height="11.5" fill="rgb(255,251,251)"/><rect x="299.0857142857143" y="362.85714285714283" width="11.5" height="11.5" fill="rgb(254,225,225)"/><rect x="330.97142857142853" y="362.85714285714283" width="11.5" height="11.5" fill="rgb(69,10,10)"/><rect x="362.85714285714283" y="362.85714285714283" width="11.5" height="11.5" fill="rgb(255,251,251)"/><rect x="309.7142857142857" y="373.48571428571427" width="11.5" height="11.5" fill="rgb(255,247,247)"/><rect x="320.34285714285716" y="373.48571428571427" width="11.5" height="11.5" fill="rgb(255,247,247)"/><rect x="171.54285714285714" y="384.1142857142857" width="11.5" height="11.5" fill="rgb(255,251,251)"/><rect x="256.57142857142856" y="384.1142857142857" width="11.5" height="11.5" fill="rgb(255,251,251)"/><rect x="277.8285714285714" y="384.1142857142857" width="11.5" height="11.5" fill="rgb(255,251,251)"/><rect x="277.8285714285714" y="394.74285714285713" width="11.5" height="11.5" fill="rgb(255,247,247)"/><rect x="288.45714285714286" y="394.74285714285713" width="11.5" height="11.5" fill="rgb(255,242,242)"/><rect x="299.0857142857143" y="394.74285714285713" width="11.5" height="11.5" fill="rgb(255,238,238)"/><rect x="394.74285714285713" y="394.74285714285713" width="11.5" height="11.5" fill="rgb(255,251,251)"/><rect x="182.17142857142858" y="405.37142857142857" width="11.5" height="11.5" fill="rgb(255,251,251)"/><rect x="245.94285714285712" y="405.37142857142857" width="11.5" height="11.5" fill="rgb(255,251,251)"/><rect x="256.57142857142856" y="405.37142857142857" width="11.5" height="11.5" fill="rgb(255,251,251)"/><rect x="277.8285714285714" y="405.37142857142857" width="11.5" height="11.5" fill="rgb(248,113,113)"/><rect x="288.45714285714286" y="405.37142857142857" width="11.5" height="11.5" fill="rgb(250,141,141)"/><rect x="299.0857142857143" y="405.37142857142857" width="11.5" height="11.5" fill="rgb(213,65,65)"/><rect x="309.7142857142857" y="405.37142857142857" width="11.5" height="11.5" fill="rgb(255,251,251)"/><rect x="320.34285714285716" y="405.37142857142857" width="11.5" height="11.5" fill="rgb(254,213,213)"/><rect x="330.97142857142853" y="405.37142857142857" width="11.5" height="11.5" fill="rgb(255,251,251)"/><rect x="405.37142857142857" y="405.37142857142857" width="11.5" height="11.5" fill="rgb(255,247,247)"/><line x1="150.28571428571428" y1="44" x2="150.28571428571428" y2="416" stroke="#A40194" stroke-width="1" opacity="0.6"/><line x1="309.7142857142857" y1="44" x2="309.7142857142857" y2="416" stroke="#A40194" stroke-width="1" opacity="0.6"/><line x1="44" y1="150.28571428571428" x2="416" y2="150.28571428571428" stroke="#A40194" stroke-width="1" opacity="0.6"/><line x1="44" y1="309.7142857142857" x2="416" y2="309.7142857142857" stroke="#A40194" stroke-width="1" opacity="0.6"/><rect x="44" y="44" width="372" height="372" fill="none" stroke="#cbd5e1"/><text x="230" y="446" text-anchor="middle" font-size="11" fill="#475569">5′ → 3′ (bins)</text><text transform="translate(14,230) rotate(-90)" text-anchor="middle" font-size="11" fill="#475569">5′ → 3′ (bins)</text></svg><svg id="fold-profile" width="460" viewBox="0 0 460 230" x="490" y="115" height="230"><defs><style>text{font-family:ui-sans-serif,system-ui;font-size:10px;fill:#94a3b8}</style></defs><rect x="44" y="16" width="115.0214592274678" height="174" fill="#0f172a" opacity="0.04"/><rect x="330.9785407725322" y="16" width="115.0214592274678" height="174" fill="#0f172a" opacity="0.04"/><rect x="44" y="190" width="1" height="0" fill="#cbd5e1"/><rect x="44.57510729613734" y="189.87908269631689" width="1" height="0.1209173036831146" fill="#cbd5e1"/><rect x="45.15021459227468" y="189.87908269631689" width="1" height="0.1209173036831146" fill="#cbd5e1"/><rect x="45.72532188841202" y="189.39541348158443" width="1" height="0.604586518415573" fill="#cbd5e1"/><rect x="46.30042918454936" y="189.51633078526754" width="1" height="0.4836692147324584" fill="#cbd5e1"/><rect x="46.8755364806867" y="189.51633078526754" width="1" height="0.4836692147324584" fill="#cbd5e1"/><rect x="47.45064377682404" y="190" width="1" height="0" fill="#cbd5e1"/><rect x="48.02575107296137" y="190" width="1" height="0" fill="#cbd5e1"/><rect x="48.60085836909871" y="190" width="1" height="0" fill="#cbd5e1"/><rect x="49.17596566523605" y="190" width="1" height="0" fill="#cbd5e1"/><rect x="49.75107296137339" y="190" width="1" height="0" fill="#cbd5e1"/><rect x="50.32618025751073" y="190" width="1" height="0" fill="#cbd5e1"/><rect x="50.90128755364807" y="190" width="1" height="0" fill="#cbd5e1"/><rect x="51.47639484978541" y="190" width="1" height="0" fill="#cbd5e1"/><rect x="52.05150214592275" y="190" width="1" height="0" fill="#cbd5e1"/><rect x="52.62660944206009" y="190" width="1" height="0" fill="#cbd5e1"/><rect x="53.201716738197426" y="190" width="1" height="0" fill="#cbd5e1"/><rect x="53.776824034334766" y="190" width="1" height="0" fill="#cbd5e1"/><rect x="54.351931330472105" y="190" width="1" height="0" fill="#cbd5e1"/><rect x="54.927038626609445" y="190" width="1" height="0" fill="#cbd5e1"/><rect x="55.50214592274678" y="190" width="1" height="0" fill="#cbd5e1"/><rect x="56.077253218884124" y="190" width="1" height="0" fill="#cbd5e1"/><rect x="56.652360515021456" y="189.75816539263377" width="1" height="0.2418346073662292" fill="#cbd5e1"/><rect x="57.2274678111588" y="189.75816539263377" width="1" height="0.2418346073662292" fill="#cbd5e1"/><rect x="57.802575107296136" y="189.75816539263377" width="1" height="0.2418346073662292" fill="#cbd5e1"/><rect x="58.377682403433475" y="189.75816539263377" width="1" height="0.2418346073662292" fill="#cbd5e1"/><rect x="58.952789699570815" y="189.75816539263377" width="1" height="0.2418346073662292" fill="#cbd5e1"/><rect x="59.527896995708154" y="189.75816539263377" width="1" height="0.2418346073662292" fill="#cbd5e1"/><rect x="60.103004291845494" y="190" width="1" height="0" fill="#cbd5e1"/><rect x="60.67811158798283" y="190" width="1" height="0" fill="#cbd5e1"/><rect x="61.25321888412017" y="190" width="1" height="0" fill="#cbd5e1"/><rect x="61.82832618025751" y="190" width="1" height="0" fill="#cbd5e1"/><rect x="62.40343347639485" y="190" width="1" height="0" fill="#cbd5e1"/><rect x="62.97854077253219" y="190" width="1" height="0" fill="#cbd5e1"/><rect x="63.55364806866953" y="190" width="1" height="0" fill="#cbd5e1"/><rect x="64.12875536480686" y="189.87908269631689" width="1" height="0.1209173036831146" fill="#cbd5e1"/><rect x="64.70386266094421" y="189.51633078526754" width="1" height="0.4836692147324584" fill="#cbd5e1"/><rect x="65.27896995708154" y="189.51633078526754" width="1" height="0.4836692147324584" fill="#cbd5e1"/><rect x="65.85407725321889" y="189.39541348158443" width="1" height="0.604586518415573" fill="#cbd5e1"/><rect x="66.42918454935622" y="189.63724808895066" width="1" height="0.3627519110493438" fill="#cbd5e1"/><rect x="67.00429184549355" y="189.63724808895066" width="1" height="0.3627519110493438" fill="#cbd5e1"/><rect x="67.5793991416309" y="189.63724808895066" width="1" height="0.3627519110493438" fill="#cbd5e1"/><rect x="68.15450643776825" y="189.75816539263377" width="1" height="0.2418346073662292" fill="#cbd5e1"/><rect x="68.72961373390558" y="189.75816539263377" width="1" height="0.2418346073662292" fill="#cbd5e1"/><rect x="69.30472103004291" y="190" width="1" height="0" fill="#cbd5e1"/><rect x="69.87982832618026" y="190" width="1" height="0" fill="#cbd5e1"/><rect x="70.4549356223176" y="190" width="1" height="0" fill="#cbd5e1"/><rect x="71.03004291845494" y="190" width="1" height="0" fill="#cbd5e1"/><rect x="71.60515021459227" y="189.87908269631689" width="1" height="0.1209173036831146" fill="#cbd5e1"/><rect x="72.1802575107296" y="189.87908269631689" width="1" height="0.1209173036831146" fill="#cbd5e1"/><rect x="72.75536480686695" y="189.87908269631689" width="1" height="0.1209173036831146" fill="#cbd5e1"/><rect x="73.3304721030043" y="189.87908269631689" width="1" height="0.1209173036831146" fill="#cbd5e1"/><rect x="73.90557939914163" y="189.87908269631689" width="1" height="0.1209173036831146" fill="#cbd5e1"/><rect x="74.48068669527896" y="189.87908269631689" width="1" height="0.1209173036831146" fill="#cbd5e1"/><rect x="75.05579399141631" y="190" width="1" height="0" fill="#cbd5e1"/><rect x="75.63090128755366" y="189.87908269631689" width="1" height="0.1209173036831146" fill="#cbd5e1"/><rect x="76.20600858369099" y="189.75816539263377" width="1" height="0.2418346073662292" fill="#cbd5e1"/><rect x="76.78111587982832" y="189.75816539263377" width="1" height="0.2418346073662292" fill="#cbd5e1"/><rect x="77.35622317596567" y="189.87908269631689" width="1" height="0.1209173036831146" fill="#cbd5e1"/><rect x="77.93133047210301" y="190" width="1" height="0" fill="#cbd5e1"/><rect x="78.50643776824035" y="190" width="1" height="0" fill="#cbd5e1"/><rect x="79.08154506437768" y="190" width="1" height="0" fill="#cbd5e1"/><rect x="79.65665236051503" y="190" width="1" height="0" fill="#cbd5e1"/><rect x="80.23175965665237" y="190" width="1" height="0" fill="#cbd5e1"/><rect x="80.8068669527897" y="190" width="1" height="0" fill="#cbd5e1"/><rect x="81.38197424892704" y="190" width="1" height="0" fill="#cbd5e1"/><rect x="81.95708154506438" y="190" width="1" height="0" fill="#cbd5e1"/><rect x="82.53218884120172" y="190" width="1" height="0" fill="#cbd5e1"/><rect x="83.10729613733906" y="190" width="1" height="0" fill="#cbd5e1"/><rect x="83.6824034334764" y="190" width="1" height="0" fill="#cbd5e1"/><rect x="84.25751072961373" y="190" width="1" height="0" fill="#cbd5e1"/><rect x="84.83261802575107" y="190" width="1" height="0" fill="#cbd5e1"/><rect x="85.40772532188842" y="190" width="1" height="0" fill="#cbd5e1"/><rect x="85.98283261802575" y="190" width="1" height="0" fill="#cbd5e1"/><rect x="86.55793991416309" y="190" width="1" height="0" fill="#cbd5e1"/><rect x="87.13304721030043" y="190" width="1" height="0" fill="#cbd5e1"/><rect x="87.70815450643777" y="190" width="1" height="0" fill="#cbd5e1"/><rect x="88.28326180257511" y="190" width="1" height="0" fill="#cbd5e1"/><rect x="88.85836909871244" y="190" width="1" height="0" fill="#cbd5e1"/><rect x="89.43347639484978" y="189.87908269631689" width="1" height="0.1209173036831146" fill="#cbd5e1"/><rect x="90.00858369098712" y="189.51633078526754" width="1" height="0.4836692147324584" fill="#cbd5e1"/><rect x="90.58369098712447" y="189.51633078526754" width="1" height="0.4836692147324584" fill="#cbd5e1"/><rect x="91.1587982832618" y="189.2744961779013" width="1" height="0.7255038220986876" fill="#cbd5e1"/><rect x="91.73390557939913" y="189.51633078526754" width="1" height="0.4836692147324584" fill="#cbd5e1"/><rect x="92.30901287553648" y="189.03266157053508" width="1" height="0.9673384294649168" fill="#cbd5e1"/><rect x="92.88412017167383" y="189.1535788742182" width="1" height="0.8464211257818022" fill="#cbd5e1"/><rect x="93.45922746781116" y="189.1535788742182" width="1" height="0.8464211257818022" fill="#cbd5e1"/><rect x="94.0343347639485" y="189.51633078526754" width="1" height="0.4836692147324584" fill="#cbd5e1"/><rect x="94.60944206008584" y="189.75816539263377" width="1" height="0.2418346073662292" fill="#cbd5e1"/><rect x="95.18454935622319" y="189.87908269631689" width="1" height="0.1209173036831146" fill="#cbd5e1"/><rect x="95.75965665236052" y="190" width="1" height="0" fill="#cbd5e1"/><rect x="96.33476394849785" y="189.87908269631689" width="1" height="0.1209173036831146" fill="#cbd5e1"/><rect x="96.9098712446352" y="189.87908269631689" width="1" height="0.1209173036831146" fill="#cbd5e1"/><rect x="97.48497854077253" y="189.87908269631689" width="1" height="0.1209173036831146" fill="#cbd5e1"/><rect x="98.06008583690988" y="190" width="1" height="0" fill="#cbd5e1"/><rect x="98.63519313304721" y="190" width="1" height="0" fill="#cbd5e1"/><rect x="99.21030042918454" y="190" width="1" height="0" fill="#cbd5e1"/><rect x="99.78540772532189" y="190" width="1" height="0" fill="#cbd5e1"/><rect x="100.36051502145922" y="190" width="1" height="0" fill="#cbd5e1"/><rect x="100.93562231759657" y="190" width="1" height="0" fill="#cbd5e1"/><rect x="101.5107296137339" y="189.87908269631689" width="1" height="0.1209173036831146" fill="#cbd5e1"/><rect x="102.08583690987123" y="189.87908269631689" width="1" height="0.1209173036831146" fill="#cbd5e1"/><rect x="102.6609442060086" y="189.87908269631689" width="1" height="0.1209173036831146" fill="#cbd5e1"/><rect x="103.23605150214593" y="190" width="1" height="0" fill="#cbd5e1"/><rect x="103.81115879828326" y="189.87908269631689" width="1" height="0.1209173036831146" fill="#cbd5e1"/><rect x="104.3862660944206" y="189.51633078526754" width="1" height="0.4836692147324584" fill="#cbd5e1"/><rect x="104.96137339055794" y="189.39541348158443" width="1" height="0.604586518415573" fill="#cbd5e1"/><rect x="105.53648068669528" y="189.39541348158443" width="1" height="0.604586518415573" fill="#cbd5e1"/><rect x="106.11158798283262" y="189.51633078526754" width="1" height="0.4836692147324584" fill="#cbd5e1"/><rect x="106.68669527896995" y="189.63724808895066" width="1" height="0.3627519110493438" fill="#cbd5e1"/><rect x="107.2618025751073" y="189.75816539263377" width="1" height="0.2418346073662292" fill="#cbd5e1"/><rect x="107.83690987124463" y="190" width="1" height="0" fill="#cbd5e1"/><rect x="108.41201716738198" y="190" width="1" height="0" fill="#cbd5e1"/><rect x="108.98712446351932" y="189.87908269631689" width="1" height="0.1209173036831146" fill="#cbd5e1"/><rect x="109.56223175965665" y="189.87908269631689" width="1" height="0.1209173036831146" fill="#cbd5e1"/><rect x="110.13733905579399" y="189.87908269631689" width="1" height="0.1209173036831146" fill="#cbd5e1"/><rect x="110.71244635193133" y="190" width="1" height="0" fill="#cbd5e1"/><rect x="111.28755364806867" y="190" width="1" height="0" fill="#cbd5e1"/><rect x="111.86266094420601" y="190" width="1" height="0" fill="#cbd5e1"/><rect x="112.43776824034335" y="189.87908269631689" width="1" height="0.1209173036831146" fill="#cbd5e1"/><rect x="113.01287553648069" y="189.75816539263377" width="1" height="0.2418346073662292" fill="#cbd5e1"/><rect x="113.58798283261802" y="189.75816539263377" width="1" height="0.2418346073662292" fill="#cbd5e1"/><rect x="114.16309012875536" y="189.87908269631689" width="1" height="0.1209173036831146" fill="#cbd5e1"/><rect x="114.7381974248927" y="190" width="1" height="0" fill="#cbd5e1"/><rect x="115.31330472103005" y="190" width="1" height="0" fill="#cbd5e1"/><rect x="115.88841201716738" y="189.87908269631689" width="1" height="0.1209173036831146" fill="#cbd5e1"/><rect x="116.46351931330473" y="189.87908269631689" width="1" height="0.1209173036831146" fill="#cbd5e1"/><rect x="117.03862660944206" y="189.87908269631689" width="1" height="0.1209173036831146" fill="#cbd5e1"/><rect x="117.6137339055794" y="190" width="1" height="0" fill="#cbd5e1"/><rect x="118.18884120171674" y="190" width="1" height="0" fill="#cbd5e1"/><rect x="118.76394849785407" y="189.87908269631689" width="1" height="0.1209173036831146" fill="#cbd5e1"/><rect x="119.33905579399142" y="189.87908269631689" width="1" height="0.1209173036831146" fill="#cbd5e1"/><rect x="119.91416309012877" y="189.87908269631689" width="1" height="0.1209173036831146" fill="#cbd5e1"/><rect x="120.4892703862661" y="190" width="1" height="0" fill="#cbd5e1"/><rect x="121.06437768240343" y="190" width="1" height="0" fill="#cbd5e1"/><rect x="121.63948497854076" y="190" width="1" height="0" fill="#cbd5e1"/><rect x="122.21459227467811" y="190" width="1" height="0" fill="#cbd5e1"/><rect x="122.78969957081546" y="190" width="1" height="0" fill="#cbd5e1"/><rect x="123.36480686695279" y="189.87908269631689" width="1" height="0.1209173036831146" fill="#cbd5e1"/><rect x="123.93991416309014" y="189.75816539263377" width="1" height="0.2418346073662292" fill="#cbd5e1"/><rect x="124.51502145922747" y="189.63724808895066" width="1" height="0.3627519110493438" fill="#cbd5e1"/><rect x="125.0901287553648" y="189.75816539263377" width="1" height="0.2418346073662292" fill="#cbd5e1"/><rect x="125.66523605150215" y="189.75816539263377" width="1" height="0.2418346073662292" fill="#cbd5e1"/><rect x="126.24034334763948" y="189.87908269631689" width="1" height="0.1209173036831146" fill="#cbd5e1"/><rect x="126.81545064377683" y="189.87908269631689" width="1" height="0.1209173036831146" fill="#cbd5e1"/><rect x="127.39055793991416" y="189.87908269631689" width="1" height="0.1209173036831146" fill="#cbd5e1"/><rect x="127.96566523605149" y="189.87908269631689" width="1" height="0.1209173036831146" fill="#cbd5e1"/><rect x="128.54077253218884" y="189.87908269631689" width="1" height="0.1209173036831146" fill="#cbd5e1"/><rect x="129.11587982832617" y="189.87908269631689" width="1" height="0.1209173036831146" fill="#cbd5e1"/><rect x="129.6909871244635" y="189.87908269631689" width="1" height="0.1209173036831146" fill="#cbd5e1"/><rect x="130.26609442060087" y="189.75816539263377" width="1" height="0.2418346073662292" fill="#cbd5e1"/><rect x="130.8412017167382" y="189.63724808895066" width="1" height="0.3627519110493438" fill="#cbd5e1"/><rect x="131.41630901287553" y="189.51633078526754" width="1" height="0.4836692147324584" fill="#cbd5e1"/><rect x="131.9914163090129" y="188.91174426685197" width="1" height="1.0882557331480314" fill="#cbd5e1"/><rect x="132.56652360515022" y="189.03266157053508" width="1" height="0.9673384294649168" fill="#cbd5e1"/><rect x="133.14163090128756" y="189.03266157053508" width="1" height="0.9673384294649168" fill="#cbd5e1"/><rect x="133.7167381974249" y="189.63724808895066" width="1" height="0.3627519110493438" fill="#cbd5e1"/><rect x="134.29184549356222" y="189.75816539263377" width="1" height="0.2418346073662292" fill="#cbd5e1"/><rect x="134.86695278969955" y="188.91174426685197" width="1" height="1.0882557331480314" fill="#cbd5e1"/><rect x="135.44206008583689" y="189.03266157053508" width="1" height="0.9673384294649168" fill="#cbd5e1"/><rect x="136.01716738197425" y="189.03266157053508" width="1" height="0.9673384294649168" fill="#cbd5e1"/><rect x="136.5922746781116" y="190" width="1" height="0" fill="#cbd5e1"/><rect x="137.16738197424894" y="189.87908269631689" width="1" height="0.1209173036831146" fill="#cbd5e1"/><rect x="137.74248927038627" y="189.87908269631689" width="1" height="0.1209173036831146" fill="#cbd5e1"/><rect x="138.3175965665236" y="189.75816539263377" width="1" height="0.2418346073662292" fill="#cbd5e1"/><rect x="138.89270386266094" y="189.75816539263377" width="1" height="0.2418346073662292" fill="#cbd5e1"/><rect x="139.46781115879827" y="189.75816539263377" width="1" height="0.2418346073662292" fill="#cbd5e1"/><rect x="140.0429184549356" y="189.87908269631689" width="1" height="0.1209173036831146" fill="#cbd5e1"/><rect x="140.61802575107296" y="190" width="1" height="0" fill="#cbd5e1"/><rect x="141.19313304721032" y="190" width="1" height="0" fill="#cbd5e1"/><rect x="141.76824034334766" y="190" width="1" height="0" fill="#cbd5e1"/><rect x="142.343347639485" y="190" width="1" height="0" fill="#cbd5e1"/><rect x="142.91845493562232" y="190" width="1" height="0" fill="#cbd5e1"/><rect x="143.49356223175965" y="189.87908269631689" width="1" height="0.1209173036831146" fill="#cbd5e1"/><rect x="144.068669527897" y="189.87908269631689" width="1" height="0.1209173036831146" fill="#cbd5e1"/><rect x="144.64377682403432" y="189.87908269631689" width="1" height="0.1209173036831146" fill="#cbd5e1"/><rect x="145.21888412017168" y="190" width="1" height="0" fill="#cbd5e1"/><rect x="145.793991416309" y="190" width="1" height="0" fill="#cbd5e1"/><rect x="146.36909871244637" y="190" width="1" height="0" fill="#cbd5e1"/><rect x="146.94420600858368" y="190" width="1" height="0" fill="#cbd5e1"/><rect x="147.51931330472104" y="189.87908269631689" width="1" height="0.1209173036831146" fill="#cbd5e1"/><rect x="148.09442060085837" y="189.87908269631689" width="1" height="0.1209173036831146" fill="#cbd5e1"/><rect x="148.6695278969957" y="189.87908269631689" width="1" height="0.1209173036831146" fill="#cbd5e1"/><rect x="149.24463519313304" y="190" width="1" height="0" fill="#cbd5e1"/><rect x="149.8197424892704" y="190" width="1" height="0" fill="#cbd5e1"/><rect x="150.3948497854077" y="190" width="1" height="0" fill="#cbd5e1"/><rect x="150.96995708154506" y="190" width="1" height="0" fill="#cbd5e1"/><rect x="151.54506437768242" y="190" width="1" height="0" fill="#cbd5e1"/><rect x="152.12017167381975" y="190" width="1" height="0" fill="#cbd5e1"/><rect x="152.6952789699571" y="190" width="1" height="0" fill="#cbd5e1"/><rect x="153.27038626609442" y="190" width="1" height="0" fill="#cbd5e1"/><rect x="153.84549356223175" y="190" width="1" height="0" fill="#cbd5e1"/><rect x="154.42060085836908" y="190" width="1" height="0" fill="#cbd5e1"/><rect x="154.99570815450645" y="190" width="1" height="0" fill="#cbd5e1"/><rect x="155.57081545064378" y="190" width="1" height="0" fill="#cbd5e1"/><rect x="156.1459227467811" y="190" width="1" height="0" fill="#cbd5e1"/><rect x="156.72103004291844" y="189.87908269631689" width="1" height="0.1209173036831146" fill="#cbd5e1"/><rect x="157.2961373390558" y="189.75816539263377" width="1" height="0.2418346073662292" fill="#cbd5e1"/><rect x="157.87124463519314" y="189.75816539263377" width="1" height="0.2418346073662292" fill="#cbd5e1"/><rect x="158.44635193133047" y="189.87908269631689" width="1" height="0.1209173036831146" fill="#cbd5e1"/><rect x="159.0214592274678" y="190" width="1" height="0" fill="#cbd5e1"/><rect x="159.59656652360513" y="190" width="1" height="0" fill="#cbd5e1"/><rect x="160.17167381974247" y="190" width="1" height="0" fill="#cbd5e1"/><rect x="160.74678111587983" y="190" width="1" height="0" fill="#cbd5e1"/><rect x="161.3218884120172" y="190" width="1" height="0" fill="#cbd5e1"/><rect x="161.89699570815452" y="190" width="1" height="0" fill="#cbd5e1"/><rect x="162.47210300429185" y="190" width="1" height="0" fill="#cbd5e1"/><rect x="163.04721030042919" y="190" width="1" height="0" fill="#cbd5e1"/><rect x="163.62231759656652" y="190" width="1" height="0" fill="#cbd5e1"/><rect x="164.19742489270385" y="190" width="1" height="0" fill="#cbd5e1"/><rect x="164.7725321888412" y="190" width="1" height="0" fill="#cbd5e1"/><rect x="165.34763948497852" y="189.63724808895066" width="1" height="0.3627519110493438" fill="#cbd5e1"/><rect x="165.92274678111588" y="189.39541348158443" width="1" height="0.604586518415573" fill="#cbd5e1"/><rect x="166.49785407725324" y="189.1535788742182" width="1" height="0.8464211257818022" fill="#cbd5e1"/><rect x="167.07296137339057" y="189.51633078526754" width="1" height="0.4836692147324584" fill="#cbd5e1"/><rect x="167.6480686695279" y="189.75816539263377" width="1" height="0.2418346073662292" fill="#cbd5e1"/><rect x="168.22317596566523" y="190" width="1" height="0" fill="#cbd5e1"/><rect x="168.79828326180257" y="189.51633078526754" width="1" height="0.4836692147324584" fill="#cbd5e1"/><rect x="169.3733905579399" y="189.03266157053508" width="1" height="0.9673384294649168" fill="#cbd5e1"/><rect x="169.94849785407726" y="189.03266157053508" width="1" height="0.9673384294649168" fill="#cbd5e1"/><rect x="170.5236051502146" y="189.51633078526754" width="1" height="0.4836692147324584" fill="#cbd5e1"/><rect x="171.09871244635195" y="190" width="1" height="0" fill="#cbd5e1"/><rect x="171.67381974248926" y="190" width="1" height="0" fill="#cbd5e1"/><rect x="172.24892703862662" y="190" width="1" height="0" fill="#cbd5e1"/><rect x="172.82403433476395" y="190" width="1" height="0" fill="#cbd5e1"/><rect x="173.39914163090128" y="189.87908269631689" width="1" height="0.1209173036831146" fill="#cbd5e1"/><rect x="173.97424892703864" y="188.1862404447533" width="1" height="1.8137595552466905" fill="#cbd5e1"/><rect x="174.54935622317595" y="188.1862404447533" width="1" height="1.8137595552466905" fill="#cbd5e1"/><rect x="175.1244635193133" y="187.94440583738708" width="1" height="2.0555941626129197" fill="#cbd5e1"/><rect x="175.69957081545064" y="189.63724808895066" width="1" height="0.3627519110493438" fill="#cbd5e1"/><rect x="176.27467811158797" y="189.51633078526754" width="1" height="0.4836692147324584" fill="#cbd5e1"/><rect x="176.84978540772534" y="189.87908269631689" width="1" height="0.1209173036831146" fill="#cbd5e1"/><rect x="177.42489270386267" y="189.75816539263377" width="1" height="0.2418346073662292" fill="#cbd5e1"/><rect x="178" y="189.75816539263377" width="1" height="0.2418346073662292" fill="#cbd5e1"/><rect x="178.57510729613733" y="189.75816539263377" width="1" height="0.2418346073662292" fill="#cbd5e1"/><rect x="179.15021459227466" y="189.87908269631689" width="1" height="0.1209173036831146" fill="#cbd5e1"/><rect x="179.72532188841203" y="190" width="1" height="0" fill="#cbd5e1"/><rect x="180.30042918454936" y="190" width="1" height="0" fill="#cbd5e1"/><rect x="180.8755364806867" y="189.87908269631689" width="1" height="0.1209173036831146" fill="#cbd5e1"/><rect x="181.45064377682402" y="189.75816539263377" width="1" height="0.2418346073662292" fill="#cbd5e1"/><rect x="182.02575107296138" y="189.75816539263377" width="1" height="0.2418346073662292" fill="#cbd5e1"/><rect x="182.60085836909872" y="189.87908269631689" width="1" height="0.1209173036831146" fill="#cbd5e1"/><rect x="183.17596566523605" y="190" width="1" height="0" fill="#cbd5e1"/><rect x="183.75107296137338" y="190" width="1" height="0" fill="#cbd5e1"/><rect x="184.3261802575107" y="189.87908269631689" width="1" height="0.1209173036831146" fill="#cbd5e1"/><rect x="184.90128755364807" y="189.87908269631689" width="1" height="0.1209173036831146" fill="#cbd5e1"/><rect x="185.4763948497854" y="189.75816539263377" width="1" height="0.2418346073662292" fill="#cbd5e1"/><rect x="186.05150214592274" y="189.75816539263377" width="1" height="0.2418346073662292" fill="#cbd5e1"/><rect x="186.6266094420601" y="189.75816539263377" width="1" height="0.2418346073662292" fill="#cbd5e1"/><rect x="187.2017167381974" y="189.87908269631689" width="1" height="0.1209173036831146" fill="#cbd5e1"/><rect x="187.77682403433477" y="190" width="1" height="0" fill="#cbd5e1"/><rect x="188.3519313304721" y="190" width="1" height="0" fill="#cbd5e1"/><rect x="188.92703862660946" y="190" width="1" height="0" fill="#cbd5e1"/><rect x="189.5021459227468" y="190" width="1" height="0" fill="#cbd5e1"/><rect x="190.07725321888412" y="189.75816539263377" width="1" height="0.2418346073662292" fill="#cbd5e1"/><rect x="190.65236051502146" y="189.63724808895066" width="1" height="0.3627519110493438" fill="#cbd5e1"/><rect x="191.2274678111588" y="189.39541348158443" width="1" height="0.604586518415573" fill="#cbd5e1"/><rect x="191.80257510729615" y="189.63724808895066" width="1" height="0.3627519110493438" fill="#cbd5e1"/><rect x="192.37768240343348" y="189.75816539263377" width="1" height="0.2418346073662292" fill="#cbd5e1"/><rect x="192.95278969957081" y="189.87908269631689" width="1" height="0.1209173036831146" fill="#cbd5e1"/><rect x="193.52789699570815" y="189.87908269631689" width="1" height="0.1209173036831146" fill="#cbd5e1"/><rect x="194.10300429184548" y="189.87908269631689" width="1" height="0.1209173036831146" fill="#cbd5e1"/><rect x="194.67811158798284" y="189.87908269631689" width="1" height="0.1209173036831146" fill="#cbd5e1"/><rect x="195.25321888412017" y="189.75816539263377" width="1" height="0.2418346073662292" fill="#cbd5e1"/><rect x="195.82832618025753" y="189.75816539263377" width="1" height="0.2418346073662292" fill="#cbd5e1"/><rect x="196.40343347639484" y="189.75816539263377" width="1" height="0.2418346073662292" fill="#cbd5e1"/><rect x="196.9785407725322" y="189.87908269631689" width="1" height="0.1209173036831146" fill="#cbd5e1"/><rect x="197.55364806866953" y="189.75816539263377" width="1" height="0.2418346073662292" fill="#cbd5e1"/><rect x="198.12875536480686" y="189.63724808895066" width="1" height="0.3627519110493438" fill="#cbd5e1"/><rect x="198.70386266094422" y="188.30715774843642" width="1" height="1.692842251563576" fill="#cbd5e1"/><rect x="199.27896995708153" y="183.7123002084781" width="1" height="6.287699791521902" fill="#cbd5e1"/><rect x="199.8540772532189" y="166.66296038915914" width="1" height="23.33703961084086" fill="#cbd5e1"/><rect x="200.42918454935622" y="34.37943015983322" width="1" height="155.62056984016678" fill="#cbd5e1"/><rect x="201.00429184549355" y="16" width="1" height="174" fill="#cbd5e1"/><rect x="201.57939914163092" y="23.980542043085478" width="1" height="166.01945795691452" fill="#cbd5e1"/><rect x="202.15450643776822" y="155.05489923558025" width="1" height="34.94510076441975" fill="#cbd5e1"/><rect x="202.72961373390558" y="176.82001389854065" width="1" height="13.179986101459349" fill="#cbd5e1"/><rect x="203.3047210300429" y="184.92147324530924" width="1" height="5.078526754690756" fill="#cbd5e1"/><rect x="203.87982832618027" y="186.25156358582348" width="1" height="3.748436414176524" fill="#cbd5e1"/><rect x="204.4549356223176" y="186.1306462821404" width="1" height="3.8693537178596102" fill="#cbd5e1"/><rect x="205.03004291845494" y="185.64697706740793" width="1" height="4.353022932592069" fill="#cbd5e1"/><rect x="205.60515021459227" y="186.4933981931897" width="1" height="3.506601806810295" fill="#cbd5e1"/><rect x="206.1802575107296" y="187.70257123002085" width="1" height="2.297428769979149" fill="#cbd5e1"/><rect x="206.75536480686696" y="187.94440583738708" width="1" height="2.0555941626129197" fill="#cbd5e1"/><rect x="207.3304721030043" y="187.2189020152884" width="1" height="2.7810979847116073" fill="#cbd5e1"/><rect x="207.90557939914163" y="187.09798471160528" width="1" height="2.902015288394722" fill="#cbd5e1"/><rect x="208.48068669527896" y="185.88881167477416" width="1" height="4.111188325225839" fill="#cbd5e1"/><rect x="209.0557939914163" y="183.7123002084781" width="1" height="6.287699791521902" fill="#cbd5e1"/><rect x="209.63090128755366" y="182.86587908269632" width="1" height="7.134120917303676" fill="#cbd5e1"/><rect x="210.206008583691" y="184.07505211952744" width="1" height="5.924947880472558" fill="#cbd5e1"/><rect x="210.78111587982832" y="186.25156358582348" width="1" height="3.748436414176524" fill="#cbd5e1"/><rect x="211.35622317596565" y="185.88881167477416" width="1" height="4.111188325225839" fill="#cbd5e1"/><rect x="211.93133047210299" y="184.43780403057679" width="1" height="5.562195969423215" fill="#cbd5e1"/><rect x="212.50643776824035" y="182.50312717164698" width="1" height="7.49687282835302" fill="#cbd5e1"/><rect x="213.08154506437768" y="181.8985406532314" width="1" height="8.101459346768593" fill="#cbd5e1"/><rect x="213.65665236051504" y="179.9638637943016" width="1" height="10.036136205698398" fill="#cbd5e1"/><rect x="214.23175965665237" y="180.08478109798472" width="1" height="9.915218902015283" fill="#cbd5e1"/><rect x="214.8068669527897" y="179.48019457956914" width="1" height="10.519805420430856" fill="#cbd5e1"/><rect x="215.38197424892704" y="181.17303683113272" width="1" height="8.82696316886728" fill="#cbd5e1"/><rect x="215.95708154506437" y="181.29395413481583" width="1" height="8.706045865184166" fill="#cbd5e1"/><rect x="216.53218884120173" y="180.8102849200834" width="1" height="9.189715079916596" fill="#cbd5e1"/><rect x="217.10729613733906" y="181.29395413481583" width="1" height="8.706045865184166" fill="#cbd5e1"/><rect x="217.6824034334764" y="181.41487143849895" width="1" height="8.585128561501051" fill="#cbd5e1"/><rect x="218.25751072961373" y="183.4704656011119" width="1" height="6.529534398888103" fill="#cbd5e1"/><rect x="218.83261802575106" y="184.80055594162613" width="1" height="5.199444058373871" fill="#cbd5e1"/><rect x="219.40772532188842" y="184.80055594162613" width="1" height="5.199444058373871" fill="#cbd5e1"/><rect x="219.98283261802575" y="182.86587908269632" width="1" height="7.134120917303676" fill="#cbd5e1"/><rect x="220.5579399141631" y="183.59138290479498" width="1" height="6.408617095205017" fill="#cbd5e1"/><rect x="221.13304721030042" y="185.4051424600417" width="1" height="4.594857539958298" fill="#cbd5e1"/><rect x="221.70815450643778" y="187.09798471160528" width="1" height="2.902015288394722" fill="#cbd5e1"/><rect x="222.2832618025751" y="186.1306462821404" width="1" height="3.8693537178596102" fill="#cbd5e1"/><rect x="222.85836909871244" y="186.00972897845728" width="1" height="3.990271021542725" fill="#cbd5e1"/><rect x="223.4334763948498" y="186.25156358582348" width="1" height="3.748436414176524" fill="#cbd5e1"/><rect x="224.0085836909871" y="186.85615010423905" width="1" height="3.143849895760951" fill="#cbd5e1"/><rect x="224.58369098712447" y="186.61431549687282" width="1" height="3.3856845031271803" fill="#cbd5e1"/><rect x="225.1587982832618" y="186.25156358582348" width="1" height="3.748436414176524" fill="#cbd5e1"/><rect x="225.73390557939913" y="186.3724808895066" width="1" height="3.6275191104934095" fill="#cbd5e1"/><rect x="226.3090128755365" y="187.58165392633774" width="1" height="2.4183460736622635" fill="#cbd5e1"/><rect x="226.8841201716738" y="188.54899235580265" width="1" height="1.4510076441973467" fill="#cbd5e1"/><rect x="227.45922746781116" y="188.42807505211954" width="1" height="1.5719249478804613" fill="#cbd5e1"/><rect x="228.0343347639485" y="187.82348853370397" width="1" height="2.1765114662960343" fill="#cbd5e1"/><rect x="228.60944206008585" y="185.16330785267547" width="1" height="4.836692147324527" fill="#cbd5e1"/><rect x="229.1845493562232" y="185.04239054899236" width="1" height="4.957609451007642" fill="#cbd5e1"/><rect x="229.7596566523605" y="181.65670604586518" width="1" height="8.343293954134822" fill="#cbd5e1"/><rect x="230.33476394849785" y="181.29395413481583" width="1" height="8.706045865184166" fill="#cbd5e1"/><rect x="230.90987124463518" y="178.99652536483669" width="1" height="11.003474635163315" fill="#cbd5e1"/><rect x="231.48497854077254" y="176.94093120222377" width="1" height="13.059068797776234" fill="#cbd5e1"/><rect x="232.06008583690988" y="178.3919388464211" width="1" height="11.608061153578888" fill="#cbd5e1"/><rect x="232.6351931330472" y="180.08478109798472" width="1" height="9.915218902015283" fill="#cbd5e1"/><rect x="233.21030042918454" y="183.95413481584433" width="1" height="6.045865184155673" fill="#cbd5e1"/><rect x="233.78540772532187" y="184.07505211952744" width="1" height="5.924947880472558" fill="#cbd5e1"/><rect x="234.36051502145924" y="183.8332175121612" width="1" height="6.166782487838788" fill="#cbd5e1"/><rect x="234.93562231759657" y="181.7776233495483" width="1" height="8.222376650451707" fill="#cbd5e1"/><rect x="235.5107296137339" y="176.94093120222377" width="1" height="13.059068797776234" fill="#cbd5e1"/><rect x="236.08583690987123" y="176.69909659485754" width="1" height="13.300903405142463" fill="#cbd5e1"/><rect x="236.66094420600857" y="180.08478109798472" width="1" height="9.915218902015283" fill="#cbd5e1"/><rect x="237.23605150214593" y="178.99652536483669" width="1" height="11.003474635163315" fill="#cbd5e1"/><rect x="237.81115879828326" y="178.63377345378734" width="1" height="11.366226546212658" fill="#cbd5e1"/><rect x="238.38626609442062" y="176.94093120222377" width="1" height="13.059068797776234" fill="#cbd5e1"/><rect x="238.96137339055792" y="181.65670604586518" width="1" height="8.343293954134822" fill="#cbd5e1"/><rect x="239.53648068669528" y="181.65670604586518" width="1" height="8.343293954134822" fill="#cbd5e1"/><rect x="240.11158798283262" y="178.87560806115357" width="1" height="11.12439193884643" fill="#cbd5e1"/><rect x="240.68669527896995" y="174.5225851285615" width="1" height="15.477414871438498" fill="#cbd5e1"/><rect x="241.2618025751073" y="172.5879082696317" width="1" height="17.412091730368303" fill="#cbd5e1"/><rect x="241.83690987124464" y="171.7414871438499" width="1" height="18.258512856150105" fill="#cbd5e1"/><rect x="242.41201716738198" y="172.5879082696317" width="1" height="17.412091730368303" fill="#cbd5e1"/><rect x="242.9871244635193" y="174.28075052119527" width="1" height="15.719249478804727" fill="#cbd5e1"/><rect x="243.56223175965664" y="176.21542738012508" width="1" height="13.784572619874922" fill="#cbd5e1"/><rect x="244.137339055794" y="181.17303683113272" width="1" height="8.82696316886728" fill="#cbd5e1"/><rect x="244.71244635193133" y="178.87560806115357" width="1" height="11.12439193884643" fill="#cbd5e1"/><rect x="245.28755364806867" y="177.3036831132731" width="1" height="12.69631688672689" fill="#cbd5e1"/><rect x="245.86266094420603" y="175.00625434329396" width="1" height="14.99374565670604" fill="#cbd5e1"/><rect x="246.43776824034336" y="175.12717164697708" width="1" height="14.872828353022925" fill="#cbd5e1"/><rect x="247.01287553648066" y="174.88533703961085" width="1" height="15.114662960389154" fill="#cbd5e1"/><rect x="247.58798283261802" y="175.85267546907573" width="1" height="14.147324530924266" fill="#cbd5e1"/><rect x="248.16309012875536" y="176.94093120222377" width="1" height="13.059068797776234" fill="#cbd5e1"/><rect x="248.73819742489272" y="169.44405837387075" width="1" height="20.555941626129254" fill="#cbd5e1"/><rect x="249.31330472103005" y="163.03544127866573" width="1" height="26.96455872133427" fill="#cbd5e1"/><rect x="249.88841201716735" y="150.8227936066713" width="1" height="39.1772063933287" fill="#cbd5e1"/><rect x="250.46351931330472" y="152.03196664350241" width="1" height="37.968033356497585" fill="#cbd5e1"/><rect x="251.03862660944205" y="152.99930507296733" width="1" height="37.00069492703267" fill="#cbd5e1"/><rect x="251.6137339055794" y="166.05837387074357" width="1" height="23.941626129256434" fill="#cbd5e1"/><rect x="252.18884120171674" y="173.6761640027797" width="1" height="16.3238359972203" fill="#cbd5e1"/><rect x="252.76394849785405" y="170.16956219596943" width="1" height="19.830437804030566" fill="#cbd5e1"/><rect x="253.33905579399143" y="156.02223766504517" width="1" height="33.97776233495483" fill="#cbd5e1"/><rect x="253.91416309012874" y="142.11674774148713" width="1" height="47.88325225851287" fill="#cbd5e1"/><rect x="254.4892703862661" y="148.1626129256428" width="1" height="41.837387074357196" fill="#cbd5e1"/><rect x="255.06437768240343" y="163.15635858234884" width="1" height="26.843641417651156" fill="#cbd5e1"/><rect x="255.6394849785408" y="178.27102154273803" width="1" height="11.728978457261974" fill="#cbd5e1"/><rect x="256.2145922746781" y="180.6893676164003" width="1" height="9.31063238359971" fill="#cbd5e1"/><rect x="256.7896995708154" y="178.27102154273803" width="1" height="11.728978457261974" fill="#cbd5e1"/><rect x="257.3648068669528" y="178.75469075747046" width="1" height="11.245309242529544" fill="#cbd5e1"/><rect x="257.9399141630901" y="180.08478109798472" width="1" height="9.915218902015283" fill="#cbd5e1"/><rect x="258.51502145922746" y="182.98679638637944" width="1" height="7.013203613620561" fill="#cbd5e1"/><rect x="259.09012875536484" y="181.65670604586518" width="1" height="8.343293954134822" fill="#cbd5e1"/><rect x="259.6652360515021" y="181.29395413481583" width="1" height="8.706045865184166" fill="#cbd5e1"/><rect x="260.2403433476395" y="178.3919388464211" width="1" height="11.608061153578888" fill="#cbd5e1"/><rect x="260.8154506437768" y="179.1174426685198" width="1" height="10.8825573314802" fill="#cbd5e1"/><rect x="261.3905579399142" y="180.32661570535095" width="1" height="9.673384294649054" fill="#cbd5e1"/><rect x="261.9656652360515" y="184.19596942321056" width="1" height="5.804030576789444" fill="#cbd5e1"/><rect x="262.54077253218884" y="186.85615010423905" width="1" height="3.143849895760951" fill="#cbd5e1"/><rect x="263.11587982832623" y="185.76789437109105" width="1" height="4.232105628908954" fill="#cbd5e1"/><rect x="263.6909871244635" y="183.34954829742878" width="1" height="6.6504517025712175" fill="#cbd5e1"/><rect x="264.2660944206009" y="181.29395413481583" width="1" height="8.706045865184166" fill="#cbd5e1"/><rect x="264.84120171673817" y="182.38220986796387" width="1" height="7.617790132036134" fill="#cbd5e1"/><rect x="265.41630901287556" y="183.34954829742878" width="1" height="6.6504517025712175" fill="#cbd5e1"/><rect x="265.9914163090129" y="185.4051424600417" width="1" height="4.594857539958298" fill="#cbd5e1"/><rect x="266.5665236051502" y="184.80055594162613" width="1" height="5.199444058373871" fill="#cbd5e1"/><rect x="267.14163090128756" y="183.22863099374567" width="1" height="6.771369006254332" fill="#cbd5e1"/><rect x="267.7167381974249" y="180.32661570535095" width="1" height="9.673384294649054" fill="#cbd5e1"/><rect x="268.2918454935622" y="179.23835997220291" width="1" height="10.761640027797085" fill="#cbd5e1"/><rect x="268.86695278969955" y="181.41487143849895" width="1" height="8.585128561501051" fill="#cbd5e1"/><rect x="269.4420600858369" y="182.6240444753301" width="1" height="7.375955524669905" fill="#cbd5e1"/><rect x="270.0171673819743" y="182.86587908269632" width="1" height="7.134120917303676" fill="#cbd5e1"/><rect x="270.5922746781116" y="181.65670604586518" width="1" height="8.343293954134822" fill="#cbd5e1"/><rect x="271.1673819742489" y="181.41487143849895" width="1" height="8.585128561501051" fill="#cbd5e1"/><rect x="271.7424892703863" y="182.86587908269632" width="1" height="7.134120917303676" fill="#cbd5e1"/><rect x="272.3175965665236" y="184.43780403057679" width="1" height="5.562195969423215" fill="#cbd5e1"/><rect x="272.89270386266094" y="185.04239054899236" width="1" height="4.957609451007642" fill="#cbd5e1"/><rect x="273.46781115879827" y="183.22863099374567" width="1" height="6.771369006254332" fill="#cbd5e1"/><rect x="274.0429184549356" y="182.01945795691452" width="1" height="7.980542043085478" fill="#cbd5e1"/><rect x="274.618025751073" y="178.0291869353718" width="1" height="11.970813064628203" fill="#cbd5e1"/><rect x="275.19313304721027" y="155.78040305767894" width="1" height="34.21959694232106" fill="#cbd5e1"/><rect x="275.76824034334766" y="130.87143849895762" width="1" height="59.128561501042384" fill="#cbd5e1"/><rect x="276.34334763948493" y="124.10006949270327" width="1" height="65.89993050729673" fill="#cbd5e1"/><rect x="276.9184549356223" y="140.18207088255733" width="1" height="49.817929117442674" fill="#cbd5e1"/><rect x="277.49356223175965" y="163.03544127866573" width="1" height="26.96455872133427" fill="#cbd5e1"/><rect x="278.068669527897" y="170.29047949965255" width="1" height="19.709520500347452" fill="#cbd5e1"/><rect x="278.6437768240344" y="175.73175816539265" width="1" height="14.268241834607352" fill="#cbd5e1"/><rect x="279.21888412017165" y="175.2480889506602" width="1" height="14.75191104933981" fill="#cbd5e1"/><rect x="279.79399141630904" y="178.1501042390549" width="1" height="11.849895760945088" fill="#cbd5e1"/><rect x="280.3690987124463" y="180.32661570535095" width="1" height="9.673384294649054" fill="#cbd5e1"/><rect x="280.9442060085837" y="183.8332175121612" width="1" height="6.166782487838788" fill="#cbd5e1"/><rect x="281.51931330472104" y="184.5587213342599" width="1" height="5.4412786657401" fill="#cbd5e1"/><rect x="282.09442060085837" y="184.31688672689367" width="1" height="5.683113273106329" fill="#cbd5e1"/><rect x="282.66952789699576" y="182.86587908269632" width="1" height="7.134120917303676" fill="#cbd5e1"/><rect x="283.24463519313304" y="177.54551772063934" width="1" height="12.454482279360661" fill="#cbd5e1"/><rect x="283.81974248927037" y="174.15983321751216" width="1" height="15.840166782487842" fill="#cbd5e1"/><rect x="284.3948497854077" y="173.07157748436413" width="1" height="16.928422515635873" fill="#cbd5e1"/><rect x="284.9699570815451" y="172.7088255733148" width="1" height="17.29117442668519" fill="#cbd5e1"/><rect x="285.5450643776824" y="162.67268936761639" width="1" height="27.327310632383615" fill="#cbd5e1"/><rect x="286.12017167381975" y="158.1987491313412" width="1" height="31.801250868658798" fill="#cbd5e1"/><rect x="286.69527896995703" y="158.31966643502432" width="1" height="31.680333564975683" fill="#cbd5e1"/><rect x="287.2703862660944" y="170.04864489228632" width="1" height="19.95135510771368" fill="#cbd5e1"/><rect x="287.84549356223175" y="176.82001389854065" width="1" height="13.179986101459349" fill="#cbd5e1"/><rect x="288.4206008583691" y="183.10771369006255" width="1" height="6.892286309937447" fill="#cbd5e1"/><rect x="288.9957081545065" y="185.16330785267547" width="1" height="4.836692147324527" fill="#cbd5e1"/><rect x="289.57081545064375" y="186.25156358582348" width="1" height="3.748436414176524" fill="#cbd5e1"/><rect x="290.14592274678114" y="186.73523280055593" width="1" height="3.2647671994440657" fill="#cbd5e1"/><rect x="290.7210300429184" y="187.3398193189715" width="1" height="2.6601806810284927" fill="#cbd5e1"/><rect x="291.2961373390558" y="185.76789437109105" width="1" height="4.232105628908954" fill="#cbd5e1"/><rect x="291.87124463519314" y="185.64697706740793" width="1" height="4.353022932592069" fill="#cbd5e1"/><rect x="292.44635193133047" y="185.4051424600417" width="1" height="4.594857539958298" fill="#cbd5e1"/><rect x="293.0214592274678" y="185.16330785267547" width="1" height="4.836692147324527" fill="#cbd5e1"/><rect x="293.59656652360513" y="183.59138290479498" width="1" height="6.408617095205017" fill="#cbd5e1"/><rect x="294.1716738197425" y="182.50312717164698" width="1" height="7.49687282835302" fill="#cbd5e1"/><rect x="294.7467811158798" y="180.56845031271718" width="1" height="9.431549687282825" fill="#cbd5e1"/><rect x="295.3218884120172" y="175.3690062543433" width="1" height="14.630993745656696" fill="#cbd5e1"/><rect x="295.8969957081545" y="171.0159833217512" width="1" height="18.984016678248793" fill="#cbd5e1"/><rect x="296.47210300429185" y="170.04864489228632" width="1" height="19.95135510771368" fill="#cbd5e1"/><rect x="297.0472103004292" y="173.19249478804727" width="1" height="16.80750521195273" fill="#cbd5e1"/><rect x="297.6223175965665" y="177.78735232800557" width="1" height="12.212647671994432" fill="#cbd5e1"/><rect x="298.1974248927039" y="176.4572619874913" width="1" height="13.542738012508693" fill="#cbd5e1"/><rect x="298.7725321888412" y="166.66296038915914" width="1" height="23.33703961084086" fill="#cbd5e1"/><rect x="299.3476394849785" y="160.25434329395415" width="1" height="29.74565670604585" fill="#cbd5e1"/><rect x="299.92274678111585" y="158.44058373870743" width="1" height="31.55941626129257" fill="#cbd5e1"/><rect x="300.49785407725324" y="163.88186240444753" width="1" height="26.11813759555247" fill="#cbd5e1"/><rect x="301.07296137339057" y="168.47671994440583" width="1" height="21.52328005559417" fill="#cbd5e1"/><rect x="301.6480686695279" y="173.55524669909659" width="1" height="16.444753300903415" fill="#cbd5e1"/><rect x="302.22317596566523" y="181.8985406532314" width="1" height="8.101459346768593" fill="#cbd5e1"/><rect x="302.79828326180257" y="185.16330785267547" width="1" height="4.836692147324527" fill="#cbd5e1"/><rect x="303.3733905579399" y="188.42807505211954" width="1" height="1.5719249478804613" fill="#cbd5e1"/><rect x="303.9484978540773" y="188.91174426685197" width="1" height="1.0882557331480314" fill="#cbd5e1"/><rect x="304.52360515021456" y="189.51633078526754" width="1" height="0.4836692147324584" fill="#cbd5e1"/><rect x="305.0987124463519" y="188.79082696316885" width="1" height="1.209173036831146" fill="#cbd5e1"/><rect x="305.6738197424893" y="188.42807505211954" width="1" height="1.5719249478804613" fill="#cbd5e1"/><rect x="306.2489270386266" y="186.97706740792216" width="1" height="3.0229325920778365" fill="#cbd5e1"/><rect x="306.82403433476395" y="187.70257123002085" width="1" height="2.297428769979149" fill="#cbd5e1"/><rect x="307.3991416309013" y="187.09798471160528" width="1" height="2.902015288394722" fill="#cbd5e1"/><rect x="307.9742489270386" y="186.73523280055593" width="1" height="3.2647671994440657" fill="#cbd5e1"/><rect x="308.54935622317595" y="182.98679638637944" width="1" height="7.013203613620561" fill="#cbd5e1"/><rect x="309.1244635193133" y="179.72202918693537" width="1" height="10.277970813064627" fill="#cbd5e1"/><rect x="309.69957081545067" y="179.48019457956914" width="1" height="10.519805420430856" fill="#cbd5e1"/><rect x="310.274678111588" y="182.26129256428075" width="1" height="7.738707435719249" fill="#cbd5e1"/><rect x="310.84978540772534" y="186.1306462821404" width="1" height="3.8693537178596102" fill="#cbd5e1"/><rect x="311.42489270386267" y="188.1862404447533" width="1" height="1.8137595552466905" fill="#cbd5e1"/><rect x="312" y="189.2744961779013" width="1" height="0.7255038220986876" fill="#cbd5e1"/><rect x="312.57510729613733" y="189.75816539263377" width="1" height="0.2418346073662292" fill="#cbd5e1"/><rect x="313.15021459227466" y="189.75816539263377" width="1" height="0.2418346073662292" fill="#cbd5e1"/><rect x="313.72532188841205" y="189.2744961779013" width="1" height="0.7255038220986876" fill="#cbd5e1"/><rect x="314.30042918454933" y="188.79082696316885" width="1" height="1.209173036831146" fill="#cbd5e1"/><rect x="314.87553648068666" y="188.30715774843642" width="1" height="1.692842251563576" fill="#cbd5e1"/><rect x="315.45064377682405" y="187.09798471160528" width="1" height="2.902015288394722" fill="#cbd5e1"/><rect x="316.0257510729614" y="184.19596942321056" width="1" height="5.804030576789444" fill="#cbd5e1"/><rect x="316.6008583690987" y="180.08478109798472" width="1" height="9.915218902015283" fill="#cbd5e1"/><rect x="317.17596566523605" y="178.3919388464211" width="1" height="11.608061153578888" fill="#cbd5e1"/><rect x="317.7510729613734" y="175.61084086170953" width="1" height="14.389159138290466" fill="#cbd5e1"/><rect x="318.3261802575107" y="166.66296038915914" width="1" height="23.33703961084086" fill="#cbd5e1"/><rect x="318.90128755364805" y="122.89089645587214" width="1" height="67.10910354412786" fill="#cbd5e1"/><rect x="319.47639484978544" y="111.40375260597638" width="1" height="78.59624739402362" fill="#cbd5e1"/><rect x="320.05150214592277" y="109.8318276580959" width="1" height="80.1681723419041" fill="#cbd5e1"/><rect x="320.62660944206004" y="145.5024322446143" width="1" height="44.49756775538569" fill="#cbd5e1"/><rect x="321.20171673819743" y="162.91452397498261" width="1" height="27.085476025017385" fill="#cbd5e1"/><rect x="321.77682403433477" y="178.0291869353718" width="1" height="11.970813064628203" fill="#cbd5e1"/><rect x="322.3519313304721" y="189.2744961779013" width="1" height="0.7255038220986876" fill="#cbd5e1"/><rect x="322.92703862660943" y="189.63724808895066" width="1" height="0.3627519110493438" fill="#cbd5e1"/><rect x="323.50214592274676" y="189.75816539263377" width="1" height="0.2418346073662292" fill="#cbd5e1"/><rect x="324.07725321888415" y="189.87908269631689" width="1" height="0.1209173036831146" fill="#cbd5e1"/><rect x="324.6523605150214" y="189.39541348158443" width="1" height="0.604586518415573" fill="#cbd5e1"/><rect x="325.2274678111588" y="189.39541348158443" width="1" height="0.604586518415573" fill="#cbd5e1"/><rect x="325.80257510729615" y="189.51633078526754" width="1" height="0.4836692147324584" fill="#cbd5e1"/><rect x="326.3776824034335" y="190" width="1" height="0" fill="#cbd5e1"/><rect x="326.9527896995708" y="190" width="1" height="0" fill="#cbd5e1"/><rect x="327.52789699570815" y="189.75816539263377" width="1" height="0.2418346073662292" fill="#cbd5e1"/><rect x="328.1030042918455" y="189.1535788742182" width="1" height="0.8464211257818022" fill="#cbd5e1"/><rect x="328.6781115879828" y="189.1535788742182" width="1" height="0.8464211257818022" fill="#cbd5e1"/><rect x="329.2532188841202" y="189.2744961779013" width="1" height="0.7255038220986876" fill="#cbd5e1"/><rect x="329.82832618025753" y="189.2744961779013" width="1" height="0.7255038220986876" fill="#cbd5e1"/><rect x="330.4034334763948" y="189.2744961779013" width="1" height="0.7255038220986876" fill="#cbd5e1"/><rect x="330.9785407725322" y="189.39541348158443" width="1" height="0.604586518415573" fill="#cbd5e1"/><rect x="331.55364806866953" y="189.87908269631689" width="1" height="0.1209173036831146" fill="#cbd5e1"/><rect x="332.12875536480686" y="189.87908269631689" width="1" height="0.1209173036831146" fill="#cbd5e1"/><rect x="332.7038626609442" y="189.87908269631689" width="1" height="0.1209173036831146" fill="#cbd5e1"/><rect x="333.27896995708153" y="190" width="1" height="0" fill="#cbd5e1"/><rect x="333.8540772532189" y="190" width="1" height="0" fill="#cbd5e1"/><rect x="334.4291845493562" y="189.87908269631689" width="1" height="0.1209173036831146" fill="#cbd5e1"/><rect x="335.0042918454936" y="189.75816539263377" width="1" height="0.2418346073662292" fill="#cbd5e1"/><rect x="335.5793991416309" y="189.63724808895066" width="1" height="0.3627519110493438" fill="#cbd5e1"/><rect x="336.15450643776825" y="189.75816539263377" width="1" height="0.2418346073662292" fill="#cbd5e1"/><rect x="336.7296137339056" y="189.87908269631689" width="1" height="0.1209173036831146" fill="#cbd5e1"/><rect x="337.3047210300429" y="190" width="1" height="0" fill="#cbd5e1"/><rect x="337.8798283261803" y="190" width="1" height="0" fill="#cbd5e1"/><rect x="338.4549356223176" y="190" width="1" height="0" fill="#cbd5e1"/><rect x="339.0300429184549" y="190" width="1" height="0" fill="#cbd5e1"/><rect x="339.6051502145923" y="190" width="1" height="0" fill="#cbd5e1"/><rect x="340.1802575107296" y="189.87908269631689" width="1" height="0.1209173036831146" fill="#cbd5e1"/><rect x="340.75536480686696" y="189.63724808895066" width="1" height="0.3627519110493438" fill="#cbd5e1"/><rect x="341.3304721030043" y="189.63724808895066" width="1" height="0.3627519110493438" fill="#cbd5e1"/><rect x="341.90557939914163" y="189.39541348158443" width="1" height="0.604586518415573" fill="#cbd5e1"/><rect x="342.48068669527896" y="189.2744961779013" width="1" height="0.7255038220986876" fill="#cbd5e1"/><rect x="343.0557939914163" y="189.1535788742182" width="1" height="0.8464211257818022" fill="#cbd5e1"/><rect x="343.6309012875537" y="189.39541348158443" width="1" height="0.604586518415573" fill="#cbd5e1"/><rect x="344.20600858369096" y="189.39541348158443" width="1" height="0.604586518415573" fill="#cbd5e1"/><rect x="344.7811158798283" y="189.2744961779013" width="1" height="0.7255038220986876" fill="#cbd5e1"/><rect x="345.3562231759657" y="189.39541348158443" width="1" height="0.604586518415573" fill="#cbd5e1"/><rect x="345.931330472103" y="189.75816539263377" width="1" height="0.2418346073662292" fill="#cbd5e1"/><rect x="346.50643776824035" y="190" width="1" height="0" fill="#cbd5e1"/><rect x="347.0815450643777" y="190" width="1" height="0" fill="#cbd5e1"/><rect x="347.65665236051507" y="190" width="1" height="0" fill="#cbd5e1"/><rect x="348.23175965665234" y="190" width="1" height="0" fill="#cbd5e1"/><rect x="348.8068669527897" y="190" width="1" height="0" fill="#cbd5e1"/><rect x="349.38197424892707" y="189.75816539263377" width="1" height="0.2418346073662292" fill="#cbd5e1"/><rect x="349.9570815450644" y="189.63724808895066" width="1" height="0.3627519110493438" fill="#cbd5e1"/><rect x="350.53218884120173" y="189.51633078526754" width="1" height="0.4836692147324584" fill="#cbd5e1"/><rect x="351.10729613733906" y="189.63724808895066" width="1" height="0.3627519110493438" fill="#cbd5e1"/><rect x="351.6824034334764" y="189.2744961779013" width="1" height="0.7255038220986876" fill="#cbd5e1"/><rect x="352.2575107296137" y="189.39541348158443" width="1" height="0.604586518415573" fill="#cbd5e1"/><rect x="352.83261802575106" y="189.2744961779013" width="1" height="0.7255038220986876" fill="#cbd5e1"/><rect x="353.40772532188845" y="189.39541348158443" width="1" height="0.604586518415573" fill="#cbd5e1"/><rect x="353.9828326180257" y="189.1535788742182" width="1" height="0.8464211257818022" fill="#cbd5e1"/><rect x="354.55793991416306" y="189.2744961779013" width="1" height="0.7255038220986876" fill="#cbd5e1"/><rect x="355.13304721030045" y="189.1535788742182" width="1" height="0.8464211257818022" fill="#cbd5e1"/><rect x="355.7081545064378" y="189.39541348158443" width="1" height="0.604586518415573" fill="#cbd5e1"/><rect x="356.2832618025751" y="189.39541348158443" width="1" height="0.604586518415573" fill="#cbd5e1"/><rect x="356.85836909871244" y="189.63724808895066" width="1" height="0.3627519110493438" fill="#cbd5e1"/><rect x="357.4334763948498" y="188.79082696316885" width="1" height="1.209173036831146" fill="#cbd5e1"/><rect x="358.0085836909871" y="188.79082696316885" width="1" height="1.209173036831146" fill="#cbd5e1"/><rect x="358.58369098712444" y="188.66990965948577" width="1" height="1.3300903405142321" fill="#cbd5e1"/><rect x="359.15879828326183" y="188.91174426685197" width="1" height="1.0882557331480314" fill="#cbd5e1"/><rect x="359.73390557939916" y="188.91174426685197" width="1" height="1.0882557331480314" fill="#cbd5e1"/><rect x="360.30901287553644" y="188.91174426685197" width="1" height="1.0882557331480314" fill="#cbd5e1"/><rect x="360.8841201716738" y="189.1535788742182" width="1" height="0.8464211257818022" fill="#cbd5e1"/><rect x="361.45922746781116" y="189.2744961779013" width="1" height="0.7255038220986876" fill="#cbd5e1"/><rect x="362.0343347639485" y="189.51633078526754" width="1" height="0.4836692147324584" fill="#cbd5e1"/><rect x="362.6094420600858" y="189.63724808895066" width="1" height="0.3627519110493438" fill="#cbd5e1"/><rect x="363.18454935622316" y="189.51633078526754" width="1" height="0.4836692147324584" fill="#cbd5e1"/><rect x="363.75965665236055" y="189.51633078526754" width="1" height="0.4836692147324584" fill="#cbd5e1"/><rect x="364.3347639484978" y="189.1535788742182" width="1" height="0.8464211257818022" fill="#cbd5e1"/><rect x="364.9098712446352" y="189.1535788742182" width="1" height="0.8464211257818022" fill="#cbd5e1"/><rect x="365.48497854077254" y="189.2744961779013" width="1" height="0.7255038220986876" fill="#cbd5e1"/><rect x="366.0600858369099" y="189.87908269631689" width="1" height="0.1209173036831146" fill="#cbd5e1"/><rect x="366.6351931330472" y="190" width="1" height="0" fill="#cbd5e1"/><rect x="367.21030042918454" y="189.75816539263377" width="1" height="0.2418346073662292" fill="#cbd5e1"/><rect x="367.7854077253219" y="189.75816539263377" width="1" height="0.2418346073662292" fill="#cbd5e1"/><rect x="368.3605150214592" y="189.2744961779013" width="1" height="0.7255038220986876" fill="#cbd5e1"/><rect x="368.9356223175966" y="188.79082696316885" width="1" height="1.209173036831146" fill="#cbd5e1"/><rect x="369.51072961373393" y="188.30715774843642" width="1" height="1.692842251563576" fill="#cbd5e1"/><rect x="370.0858369098712" y="188.0653231410702" width="1" height="1.9346768589298051" fill="#cbd5e1"/><rect x="370.6609442060086" y="188.0653231410702" width="1" height="1.9346768589298051" fill="#cbd5e1"/><rect x="371.2360515021459" y="188.1862404447533" width="1" height="1.8137595552466905" fill="#cbd5e1"/><rect x="371.81115879828326" y="188.66990965948577" width="1" height="1.3300903405142321" fill="#cbd5e1"/><rect x="372.3862660944206" y="189.2744961779013" width="1" height="0.7255038220986876" fill="#cbd5e1"/><rect x="372.9613733905579" y="189.51633078526754" width="1" height="0.4836692147324584" fill="#cbd5e1"/><rect x="373.5364806866953" y="189.39541348158443" width="1" height="0.604586518415573" fill="#cbd5e1"/><rect x="374.1115879828326" y="189.03266157053508" width="1" height="0.9673384294649168" fill="#cbd5e1"/><rect x="374.68669527897" y="188.79082696316885" width="1" height="1.209173036831146" fill="#cbd5e1"/><rect x="375.2618025751073" y="188.91174426685197" width="1" height="1.0882557331480314" fill="#cbd5e1"/><rect x="375.83690987124464" y="189.2744961779013" width="1" height="0.7255038220986876" fill="#cbd5e1"/><rect x="376.412017167382" y="189.39541348158443" width="1" height="0.604586518415573" fill="#cbd5e1"/><rect x="376.9871244635193" y="189.51633078526754" width="1" height="0.4836692147324584" fill="#cbd5e1"/><rect x="377.56223175965664" y="189.63724808895066" width="1" height="0.3627519110493438" fill="#cbd5e1"/><rect x="378.137339055794" y="189.87908269631689" width="1" height="0.1209173036831146" fill="#cbd5e1"/><rect x="378.7124463519313" y="190" width="1" height="0" fill="#cbd5e1"/><rect x="379.2875536480687" y="189.75816539263377" width="1" height="0.2418346073662292" fill="#cbd5e1"/><rect x="379.86266094420597" y="188.79082696316885" width="1" height="1.209173036831146" fill="#cbd5e1"/><rect x="380.43776824034336" y="188.66990965948577" width="1" height="1.3300903405142321" fill="#cbd5e1"/><rect x="381.0128755364807" y="188.91174426685197" width="1" height="1.0882557331480314" fill="#cbd5e1"/><rect x="381.587982832618" y="189.87908269631689" width="1" height="0.1209173036831146" fill="#cbd5e1"/><rect x="382.16309012875536" y="189.87908269631689" width="1" height="0.1209173036831146" fill="#cbd5e1"/><rect x="382.7381974248927" y="188.91174426685197" width="1" height="1.0882557331480314" fill="#cbd5e1"/><rect x="383.3133047210301" y="188.0653231410702" width="1" height="1.9346768589298051" fill="#cbd5e1"/><rect x="383.88841201716735" y="186.97706740792216" width="1" height="3.0229325920778365" fill="#cbd5e1"/><rect x="384.46351931330474" y="187.2189020152884" width="1" height="2.7810979847116073" fill="#cbd5e1"/><rect x="385.0386266094421" y="187.82348853370397" width="1" height="2.1765114662960343" fill="#cbd5e1"/><rect x="385.6137339055794" y="188.91174426685197" width="1" height="1.0882557331480314" fill="#cbd5e1"/><rect x="386.18884120171674" y="189.51633078526754" width="1" height="0.4836692147324584" fill="#cbd5e1"/><rect x="386.7639484978541" y="189.39541348158443" width="1" height="0.604586518415573" fill="#cbd5e1"/><rect x="387.33905579399146" y="189.51633078526754" width="1" height="0.4836692147324584" fill="#cbd5e1"/><rect x="387.91416309012874" y="189.63724808895066" width="1" height="0.3627519110493438" fill="#cbd5e1"/><rect x="388.48927038626607" y="189.63724808895066" width="1" height="0.3627519110493438" fill="#cbd5e1"/><rect x="389.06437768240346" y="189.2744961779013" width="1" height="0.7255038220986876" fill="#cbd5e1"/><rect x="389.63948497854074" y="189.1535788742182" width="1" height="0.8464211257818022" fill="#cbd5e1"/><rect x="390.2145922746781" y="189.39541348158443" width="1" height="0.604586518415573" fill="#cbd5e1"/><rect x="390.78969957081546" y="189.63724808895066" width="1" height="0.3627519110493438" fill="#cbd5e1"/><rect x="391.3648068669528" y="189.63724808895066" width="1" height="0.3627519110493438" fill="#cbd5e1"/><rect x="391.9399141630901" y="189.75816539263377" width="1" height="0.2418346073662292" fill="#cbd5e1"/><rect x="392.51502145922746" y="189.75816539263377" width="1" height="0.2418346073662292" fill="#cbd5e1"/><rect x="393.09012875536484" y="189.75816539263377" width="1" height="0.2418346073662292" fill="#cbd5e1"/><rect x="393.6652360515021" y="189.75816539263377" width="1" height="0.2418346073662292" fill="#cbd5e1"/><rect x="394.24034334763945" y="189.75816539263377" width="1" height="0.2418346073662292" fill="#cbd5e1"/><rect x="394.81545064377684" y="189.75816539263377" width="1" height="0.2418346073662292" fill="#cbd5e1"/><rect x="395.3905579399142" y="189.75816539263377" width="1" height="0.2418346073662292" fill="#cbd5e1"/><rect x="395.9656652360515" y="189.63724808895066" width="1" height="0.3627519110493438" fill="#cbd5e1"/><rect x="396.54077253218884" y="189.63724808895066" width="1" height="0.3627519110493438" fill="#cbd5e1"/><rect x="397.1158798283262" y="189.63724808895066" width="1" height="0.3627519110493438" fill="#cbd5e1"/><rect x="397.6909871244635" y="189.87908269631689" width="1" height="0.1209173036831146" fill="#cbd5e1"/><rect x="398.26609442060084" y="190" width="1" height="0" fill="#cbd5e1"/><rect x="398.8412017167382" y="190" width="1" height="0" fill="#cbd5e1"/><rect x="399.41630901287556" y="189.87908269631689" width="1" height="0.1209173036831146" fill="#cbd5e1"/><rect x="399.99141630901283" y="189.87908269631689" width="1" height="0.1209173036831146" fill="#cbd5e1"/><rect x="400.5665236051502" y="189.75816539263377" width="1" height="0.2418346073662292" fill="#cbd5e1"/><rect x="401.14163090128756" y="189.51633078526754" width="1" height="0.4836692147324584" fill="#cbd5e1"/><rect x="401.7167381974249" y="189.39541348158443" width="1" height="0.604586518415573" fill="#cbd5e1"/><rect x="402.2918454935622" y="189.39541348158443" width="1" height="0.604586518415573" fill="#cbd5e1"/><rect x="402.8669527896996" y="189.63724808895066" width="1" height="0.3627519110493438" fill="#cbd5e1"/><rect x="403.4420600858369" y="189.75816539263377" width="1" height="0.2418346073662292" fill="#cbd5e1"/><rect x="404.0171673819742" y="189.75816539263377" width="1" height="0.2418346073662292" fill="#cbd5e1"/><rect x="404.5922746781116" y="189.75816539263377" width="1" height="0.2418346073662292" fill="#cbd5e1"/><rect x="405.16738197424894" y="189.75816539263377" width="1" height="0.2418346073662292" fill="#cbd5e1"/><rect x="405.7424892703863" y="189.87908269631689" width="1" height="0.1209173036831146" fill="#cbd5e1"/><rect x="406.3175965665236" y="189.75816539263377" width="1" height="0.2418346073662292" fill="#cbd5e1"/><rect x="406.89270386266094" y="189.2744961779013" width="1" height="0.7255038220986876" fill="#cbd5e1"/><rect x="407.46781115879827" y="188.91174426685197" width="1" height="1.0882557331480314" fill="#cbd5e1"/><rect x="408.0429184549356" y="189.03266157053508" width="1" height="0.9673384294649168" fill="#cbd5e1"/><rect x="408.618025751073" y="188.66990965948577" width="1" height="1.3300903405142321" fill="#cbd5e1"/><rect x="409.1931330472103" y="187.58165392633774" width="1" height="2.4183460736622635" fill="#cbd5e1"/><rect x="409.7682403433476" y="187.2189020152884" width="1" height="2.7810979847116073" fill="#cbd5e1"/><rect x="410.343347639485" y="188.0653231410702" width="1" height="1.9346768589298051" fill="#cbd5e1"/><rect x="410.9184549356223" y="189.51633078526754" width="1" height="0.4836692147324584" fill="#cbd5e1"/><rect x="411.49356223175965" y="189.87908269631689" width="1" height="0.1209173036831146" fill="#cbd5e1"/><rect x="412.068669527897" y="189.63724808895066" width="1" height="0.3627519110493438" fill="#cbd5e1"/><rect x="412.6437768240343" y="189.63724808895066" width="1" height="0.3627519110493438" fill="#cbd5e1"/><rect x="413.2188841201717" y="189.63724808895066" width="1" height="0.3627519110493438" fill="#cbd5e1"/><rect x="413.793991416309" y="189.75816539263377" width="1" height="0.2418346073662292" fill="#cbd5e1"/><rect x="414.3690987124464" y="188.42807505211954" width="1" height="1.5719249478804613" fill="#cbd5e1"/><rect x="414.9442060085837" y="187.58165392633774" width="1" height="2.4183460736622635" fill="#cbd5e1"/><rect x="415.519313304721" y="187.3398193189715" width="1" height="2.6601806810284927" fill="#cbd5e1"/><rect x="416.09442060085837" y="188.42807505211954" width="1" height="1.5719249478804613" fill="#cbd5e1"/><rect x="416.6695278969957" y="188.66990965948577" width="1" height="1.3300903405142321" fill="#cbd5e1"/><rect x="417.24463519313304" y="187.3398193189715" width="1" height="2.6601806810284927" fill="#cbd5e1"/><rect x="417.81974248927037" y="186.3724808895066" width="1" height="3.6275191104934095" fill="#cbd5e1"/><rect x="418.3948497854077" y="186.25156358582348" width="1" height="3.748436414176524" fill="#cbd5e1"/><rect x="418.9699570815451" y="187.70257123002085" width="1" height="2.297428769979149" fill="#cbd5e1"/><rect x="419.54506437768237" y="188.91174426685197" width="1" height="1.0882557331480314" fill="#cbd5e1"/><rect x="420.12017167381975" y="189.75816539263377" width="1" height="0.2418346073662292" fill="#cbd5e1"/><rect x="420.6952789699571" y="189.87908269631689" width="1" height="0.1209173036831146" fill="#cbd5e1"/><rect x="421.2703862660944" y="189.75816539263377" width="1" height="0.2418346073662292" fill="#cbd5e1"/><rect x="421.84549356223175" y="189.75816539263377" width="1" height="0.2418346073662292" fill="#cbd5e1"/><rect x="422.4206008583691" y="189.75816539263377" width="1" height="0.2418346073662292" fill="#cbd5e1"/><rect x="422.9957081545065" y="189.87908269631689" width="1" height="0.1209173036831146" fill="#cbd5e1"/><rect x="423.57081545064375" y="189.87908269631689" width="1" height="0.1209173036831146" fill="#cbd5e1"/><rect x="424.14592274678114" y="190" width="1" height="0" fill="#cbd5e1"/><rect x="424.72103004291847" y="189.75816539263377" width="1" height="0.2418346073662292" fill="#cbd5e1"/><rect x="425.2961373390558" y="189.75816539263377" width="1" height="0.2418346073662292" fill="#cbd5e1"/><rect x="425.87124463519314" y="189.75816539263377" width="1" height="0.2418346073662292" fill="#cbd5e1"/><rect x="426.44635193133047" y="189.87908269631689" width="1" height="0.1209173036831146" fill="#cbd5e1"/><rect x="427.0214592274678" y="189.75816539263377" width="1" height="0.2418346073662292" fill="#cbd5e1"/><rect x="427.59656652360513" y="189.75816539263377" width="1" height="0.2418346073662292" fill="#cbd5e1"/><rect x="428.17167381974247" y="189.87908269631689" width="1" height="0.1209173036831146" fill="#cbd5e1"/><rect x="428.74678111587986" y="190" width="1" height="0" fill="#cbd5e1"/><rect x="429.32188841201713" y="190" width="1" height="0" fill="#cbd5e1"/><rect x="429.8969957081545" y="190" width="1" height="0" fill="#cbd5e1"/><rect x="430.47210300429185" y="189.63724808895066" width="1" height="0.3627519110493438" fill="#cbd5e1"/><rect x="431.0472103004292" y="189.2744961779013" width="1" height="0.7255038220986876" fill="#cbd5e1"/><rect x="431.6223175965665" y="189.1535788742182" width="1" height="0.8464211257818022" fill="#cbd5e1"/><rect x="432.19742489270385" y="189.51633078526754" width="1" height="0.4836692147324584" fill="#cbd5e1"/><rect x="432.77253218884124" y="189.75816539263377" width="1" height="0.2418346073662292" fill="#cbd5e1"/><rect x="433.3476394849785" y="189.87908269631689" width="1" height="0.1209173036831146" fill="#cbd5e1"/><rect x="433.92274678111585" y="189.75816539263377" width="1" height="0.2418346073662292" fill="#cbd5e1"/><rect x="434.49785407725324" y="189.39541348158443" width="1" height="0.604586518415573" fill="#cbd5e1"/><rect x="435.07296137339057" y="189.1535788742182" width="1" height="0.8464211257818022" fill="#cbd5e1"/><rect x="435.6480686695279" y="188.66990965948577" width="1" height="1.3300903405142321" fill="#cbd5e1"/><rect x="436.22317596566523" y="188.79082696316885" width="1" height="1.209173036831146" fill="#cbd5e1"/><rect x="436.79828326180257" y="188.91174426685197" width="1" height="1.0882557331480314" fill="#cbd5e1"/><rect x="437.3733905579399" y="189.39541348158443" width="1" height="0.604586518415573" fill="#cbd5e1"/><rect x="437.94849785407723" y="189.75816539263377" width="1" height="0.2418346073662292" fill="#cbd5e1"/><rect x="438.5236051502146" y="189.75816539263377" width="1" height="0.2418346073662292" fill="#cbd5e1"/><rect x="439.09871244635195" y="189.75816539263377" width="1" height="0.2418346073662292" fill="#cbd5e1"/><rect x="439.6738197424893" y="189.51633078526754" width="1" height="0.4836692147324584" fill="#cbd5e1"/><rect x="440.2489270386266" y="189.2744961779013" width="1" height="0.7255038220986876" fill="#cbd5e1"/><rect x="440.82403433476395" y="189.1535788742182" width="1" height="0.8464211257818022" fill="#cbd5e1"/><rect x="441.3991416309013" y="188.79082696316885" width="1" height="1.209173036831146" fill="#cbd5e1"/><rect x="441.9742489270386" y="189.03266157053508" width="1" height="0.9673384294649168" fill="#cbd5e1"/><rect x="442.549356223176" y="188.91174426685197" width="1" height="1.0882557331480314" fill="#cbd5e1"/><rect x="443.1244635193133" y="189.51633078526754" width="1" height="0.4836692147324584" fill="#cbd5e1"/><rect x="443.6995708154506" y="189.63724808895066" width="1" height="0.3627519110493438" fill="#cbd5e1"/><rect x="444.274678111588" y="189.87908269631689" width="1" height="0.1209173036831146" fill="#cbd5e1"/><rect x="444.84978540772534" y="188.91174426685197" width="1" height="1.0882557331480314" fill="#cbd5e1"/><rect x="445.42489270386267" y="188.30715774843642" width="1" height="1.692842251563576" fill="#cbd5e1"/><rect x="446" y="187.64211257817928" width="1" height="2.3578874218207204" fill="#cbd5e1"/><circle cx="201.00429184549355" cy="16" r="3" fill="#A40194" stroke="#fff" stroke-width="1"/><circle cx="209.63090128755366" cy="182.86587908269632" r="3" fill="#A40194" stroke="#fff" stroke-width="1"/><circle cx="213.65665236051504" cy="179.9638637943016" r="3" fill="#A40194" stroke="#fff" stroke-width="1"/><circle cx="219.98283261802575" cy="182.86587908269632" r="3" fill="#A40194" stroke="#fff" stroke-width="1"/><circle cx="231.48497854077254" cy="176.94093120222377" r="3" fill="#A40194" stroke="#fff" stroke-width="1"/><circle cx="236.08583690987123" cy="176.69909659485754" r="3" fill="#A40194" stroke="#fff" stroke-width="1"/><circle cx="238.38626609442062" cy="176.94093120222377" r="3" fill="#A40194" stroke="#fff" stroke-width="1"/><circle cx="241.83690987124464" cy="171.7414871438499" r="3" fill="#A40194" stroke="#fff" stroke-width="1"/><circle cx="245.86266094420603" cy="175.00625434329396" r="3" fill="#A40194" stroke="#fff" stroke-width="1"/><circle cx="249.88841201716735" cy="150.8227936066713" r="3" fill="#A40194" stroke="#fff" stroke-width="1"/><circle cx="253.91416309012874" cy="142.11674774148713" r="3" fill="#A40194" stroke="#fff" stroke-width="1"/><circle cx="256.7896995708154" cy="178.27102154273803" r="3" fill="#A40194" stroke="#fff" stroke-width="1"/><circle cx="260.2403433476395" cy="178.3919388464211" r="3" fill="#A40194" stroke="#fff" stroke-width="1"/><circle cx="264.2660944206009" cy="181.29395413481583" r="3" fill="#A40194" stroke="#fff" stroke-width="1"/><circle cx="268.2918454935622" cy="179.23835997220291" r="3" fill="#A40194" stroke="#fff" stroke-width="1"/><circle cx="271.1673819742489" cy="181.41487143849895" r="3" fill="#A40194" stroke="#fff" stroke-width="1"/><circle cx="276.34334763948493" cy="124.10006949270327" r="3" fill="#A40194" stroke="#fff" stroke-width="1"/><circle cx="279.21888412017165" cy="175.2480889506602" r="3" fill="#A40194" stroke="#fff" stroke-width="1"/><circle cx="286.12017167381975" cy="158.1987491313412" r="3" fill="#A40194" stroke="#fff" stroke-width="1"/><circle cx="296.47210300429185" cy="170.04864489228632" r="3" fill="#A40194" stroke="#fff" stroke-width="1"/><circle cx="299.92274678111585" cy="158.44058373870743" r="3" fill="#A40194" stroke="#fff" stroke-width="1"/><circle cx="309.69957081545067" cy="179.48019457956914" r="3" fill="#A40194" stroke="#fff" stroke-width="1"/><circle cx="320.05150214592277" cy="109.8318276580959" r="3" fill="#A40194" stroke="#fff" stroke-width="1"/><circle cx="418.3948497854077" cy="186.25156358582348" r="3" fill="#A40194" stroke="#fff" stroke-width="1"/><line x1="159.0214592274678" y1="16" x2="159.0214592274678" y2="190" stroke="#A40194" stroke-width="1" opacity="0.6"/><line x1="330.9785407725322" y1="16" x2="330.9785407725322" y2="190" stroke="#A40194" stroke-width="1" opacity="0.6"/><line x1="44" y1="190" x2="446" y2="190" stroke="#cbd5e1"/><text x="245" y="222" text-anchor="middle" font-size="11" fill="#475569">window (5′ → 3′): flank — gene — flank</text><text transform="translate(14,103) rotate(-90)" text-anchor="middle" font-size="10.5" fill="#475569">smoothed events</text></svg></svg>