<svg id="pair-heatmap" width="560" viewBox="0 0 560 520" class="block" style="max-width: 560px;" height="520" xmlns="http://www.w3.org/2000/svg"><defs><style>text{font-family:ui-sans-serif,system-ui;font-size:10px;fill:#64748b}</style></defs><rect x="64" y="16" width="456" height="440" fill="#fff" stroke="#e2e8f0"/><rect x="77.21739130434783" y="238.58823529411765" width="7.5" height="6.5" fill="rgb(222,229,255)"/><rect x="149.91304347826087" y="238.58823529411765" width="7.5" height="6.5" fill="rgb(222,229,255)"/><rect x="176.3478260869565" y="238.58823529411765" width="7.5" height="6.5" fill="rgb(222,229,255)"/><rect x="341.5652173913044" y="238.58823529411765" width="7.5" height="6.5" fill="rgb(222,229,255)"/><rect x="348.17391304347825" y="238.58823529411765" width="7.5" height="6.5" fill="rgb(217,225,255)"/><rect x="354.7826086956522" y="238.58823529411765" width="7.5" height="6.5" fill="rgb(182,195,253)"/><rect x="361.39130434782606" y="238.58823529411765" width="7.5" height="6.5" fill="rgb(200,210,254)"/><rect x="368" y="238.58823529411765" width="7.5" height="6.5" fill="rgb(213,221,254)"/><rect x="374.60869565217394" y="238.58823529411765" width="7.5" height="6.5" fill="rgb(202,212,254)"/><rect x="381.2173913043478" y="238.58823529411765" width="7.5" height="6.5" fill="rgb(204,214,254)"/><rect x="387.82608695652175" y="238.58823529411765" width="7.5" height="6.5" fill="rgb(213,221,254)"/><rect x="407.6521739130435" y="238.58823529411765" width="7.5" height="6.5" fill="rgb(37,33,101)"/><rect x="414.2608695652174" y="238.58823529411765" width="7.5" height="6.5" fill="rgb(222,229,255)"/><rect x="354.7826086956522" y="233.41176470588238" width="7.5" height="6.5" fill="rgb(198,208,254)"/><rect x="361.39130434782606" y="233.41176470588238" width="7.5" height="6.5" fill="rgb(220,227,255)"/><rect x="368" y="233.41176470588238" width="7.5" height="6.5" fill="rgb(220,227,255)"/><rect x="374.60869565217394" y="233.41176470588238" width="7.5" height="6.5" fill="rgb(211,220,254)"/><rect x="387.82608695652175" y="233.41176470588238" width="7.5" height="6.5" fill="rgb(222,229,255)"/><rect x="407.6521739130435" y="233.41176470588238" width="7.5" height="6.5" fill="rgb(193,204,253)"/><rect x="70.6086956521739" y="228.23529411764707" width="7.5" height="6.5" fill="rgb(220,227,255)"/><rect x="354.7826086956522" y="228.23529411764707" width="7.5" height="6.5" fill="rgb(222,229,255)"/><rect x="361.39130434782606" y="228.23529411764707" width="7.5" height="6.5" fill="rgb(222,229,255)"/><rect x="368" y="228.23529411764707" width="7.5" height="6.5" fill="rgb(220,227,255)"/><rect x="374.60869565217394" y="228.23529411764707" width="7.5" height="6.5" fill="rgb(215,223,255)"/><rect x="381.2173913043478" y="228.23529411764707" width="7.5" height="6.5" fill="rgb(222,229,255)"/><rect x="387.82608695652175" y="228.23529411764707" width="7.5" height="6.5" fill="rgb(222,229,255)"/><rect x="407.6521739130435" y="228.23529411764707" width="7.5" height="6.5" fill="rgb(217,225,255)"/><rect x="334.95652173913044" y="223.05882352941177" width="7.5" height="6.5" fill="rgb(222,229,255)"/><rect x="354.7826086956522" y="223.05882352941177" width="7.5" height="6.5" fill="rgb(211,220,254)"/><rect x="361.39130434782606" y="223.05882352941177" width="7.5" height="6.5" fill="rgb(217,225,255)"/><rect x="374.60869565217394" y="223.05882352941177" width="7.5" height="6.5" fill="rgb(222,229,255)"/><rect x="334.95652173913044" y="217.8823529411765" width="7.5" height="6.5" fill="rgb(217,225,255)"/><rect x="341.5652173913044" y="217.8823529411765" width="7.5" height="6.5" fill="rgb(222,229,255)"/><rect x="295.304347826087" y="212.7058823529412" width="7.5" height="6.5" fill="rgb(222,229,255)"/><rect x="262.2608695652174" y="207.52941176470588" width="7.5" height="6.5" fill="rgb(222,229,255)"/><rect x="295.304347826087" y="207.52941176470588" width="7.5" height="6.5" fill="rgb(222,229,255)"/><rect x="301.9130434782609" y="207.52941176470588" width="7.5" height="6.5" fill="rgb(215,223,255)"/><rect x="328.3478260869565" y="207.52941176470588" width="7.5" height="6.5" fill="rgb(222,229,255)"/><rect x="262.2608695652174" y="202.3529411764706" width="7.5" height="6.5" fill="rgb(222,229,255)"/><rect x="288.695652173913" y="202.3529411764706" width="7.5" height="6.5" fill="rgb(222,229,255)"/><rect x="301.9130434782609" y="202.3529411764706" width="7.5" height="6.5" fill="rgb(220,227,255)"/><rect x="308.52173913043475" y="202.3529411764706" width="7.5" height="6.5" fill="rgb(220,227,255)"/><rect x="321.7391304347826" y="202.3529411764706" width="7.5" height="6.5" fill="rgb(222,229,255)"/><rect x="235.82608695652175" y="197.1764705882353" width="7.5" height="6.5" fill="rgb(222,229,255)"/><rect x="242.43478260869566" y="197.1764705882353" width="7.5" height="6.5" fill="rgb(222,229,255)"/><rect x="275.47826086956525" y="197.1764705882353" width="7.5" height="6.5" fill="rgb(222,229,255)"/><rect x="301.9130434782609" y="197.1764705882353" width="7.5" height="6.5" fill="rgb(220,227,255)"/><rect x="308.52173913043475" y="197.1764705882353" width="7.5" height="6.5" fill="rgb(222,229,255)"/><rect x="315.1304347826087" y="197.1764705882353" width="7.5" height="6.5" fill="rgb(220,227,255)"/><rect x="321.7391304347826" y="197.1764705882353" width="7.5" height="6.5" fill="rgb(222,229,255)"/><rect x="275.47826086956525" y="192" width="7.5" height="6.5" fill="rgb(222,229,255)"/><rect x="315.1304347826087" y="192" width="7.5" height="6.5" fill="rgb(222,229,255)"/><rect x="328.3478260869565" y="192" width="7.5" height="6.5" fill="rgb(220,227,255)"/><rect x="249.04347826086956" y="186.82352941176472" width="7.5" height="6.5" fill="rgb(220,227,255)"/><rect x="255.65217391304347" y="186.82352941176472" width="7.5" height="6.5" fill="rgb(222,229,255)"/><rect x="262.2608695652174" y="186.82352941176472" width="7.5" height="6.5" fill="rgb(217,225,255)"/><rect x="275.47826086956525" y="186.82352941176472" width="7.5" height="6.5" fill="rgb(215,223,255)"/><rect x="288.695652173913" y="186.82352941176472" width="7.5" height="6.5" fill="rgb(217,225,255)"/><rect x="295.304347826087" y="186.82352941176472" width="7.5" height="6.5" fill="rgb(215,223,255)"/><rect x="301.9130434782609" y="186.82352941176472" width="7.5" height="6.5" fill="rgb(215,223,255)"/><rect x="308.52173913043475" y="186.82352941176472" width="7.5" height="6.5" fill="rgb(215,223,255)"/><rect x="315.1304347826087" y="186.82352941176472" width="7.5" height="6.5" fill="rgb(182,195,253)"/><rect x="321.7391304347826" y="186.82352941176472" width="7.5" height="6.5" fill="rgb(213,221,254)"/><rect x="328.3478260869565" y="186.82352941176472" width="7.5" height="6.5" fill="rgb(215,223,255)"/><rect x="97.04347826086956" y="181.64705882352942" width="7.5" height="6.5" fill="rgb(222,229,255)"/><rect x="136.69565217391306" y="181.64705882352942" width="7.5" height="6.5" fill="rgb(222,229,255)"/><rect x="189.56521739130434" y="181.64705882352942" width="7.5" height="6.5" fill="rgb(222,229,255)"/><rect x="196.17391304347825" y="181.64705882352942" width="7.5" height="6.5" fill="rgb(222,229,255)"/><rect x="235.82608695652175" y="181.64705882352942" width="7.5" height="6.5" fill="rgb(222,229,255)"/><rect x="242.43478260869566" y="181.64705882352942" width="7.5" height="6.5" fill="rgb(220,227,255)"/><rect x="255.65217391304347" y="181.64705882352942" width="7.5" height="6.5" fill="rgb(189,201,253)"/><rect x="262.2608695652174" y="181.64705882352942" width="7.5" height="6.5" fill="rgb(195,206,254)"/><rect x="268.8695652173913" y="181.64705882352942" width="7.5" height="6.5" fill="rgb(167,182,252)"/><rect x="275.47826086956525" y="181.64705882352942" width="7.5" height="6.5" fill="rgb(155,169,251)"/><rect x="282.0869565217391" y="181.64705882352942" width="7.5" height="6.5" fill="rgb(195,206,254)"/><rect x="288.695652173913" y="181.64705882352942" width="7.5" height="6.5" fill="rgb(150,163,250)"/><rect x="295.304347826087" y="181.64705882352942" width="7.5" height="6.5" fill="rgb(138,150,249)"/><rect x="301.9130434782609" y="181.64705882352942" width="7.5" height="6.5" fill="rgb(30,27,75)"/><rect x="308.52173913043475" y="181.64705882352942" width="7.5" height="6.5" fill="rgb(106,106,233)"/><rect x="315.1304347826087" y="181.64705882352942" width="7.5" height="6.5" fill="rgb(71,64,191)"/><rect x="321.7391304347826" y="181.64705882352942" width="7.5" height="6.5" fill="rgb(147,160,250)"/><rect x="328.3478260869565" y="181.64705882352942" width="7.5" height="6.5" fill="rgb(176,189,253)"/><g pointer-events="none"><line x1="301.52173913043475" y1="285.94117647058823" x2="315.52173913043475" y2="299.94117647058823" stroke="#fff" stroke-width="4.5" stroke-linecap="round"/><line x1="301.52173913043475" y1="299.94117647058823" x2="315.52173913043475" y2="285.94117647058823" stroke="#fff" stroke-width="4.5" stroke-linecap="round"/><line x1="301.52173913043475" y1="285.94117647058823" x2="315.52173913043475" y2="299.94117647058823" stroke="#111827" stroke-width="2.2" stroke-linecap="round"/><line x1="301.52173913043475" y1="299.94117647058823" x2="315.52173913043475" y2="285.94117647058823" stroke="#111827" stroke-width="2.2" stroke-linecap="round"/></g><g pointer-events="none"><line x1="281.695652173913" y1="257.47058823529414" x2="295.695652173913" y2="271.47058823529414" stroke="#fff" stroke-width="4.5" stroke-linecap="round"/><line x1="281.695652173913" y1="271.47058823529414" x2="295.695652173913" y2="257.47058823529414" stroke="#fff" stroke-width="4.5" stroke-linecap="round"/><line x1="281.695652173913" y1="257.47058823529414" x2="295.695652173913" y2="271.47058823529414" stroke="#9ca3af" stroke-width="2.2" stroke-linecap="round"/><line x1="281.695652173913" y1="271.47058823529414" x2="295.695652173913" y2="257.47058823529414" stroke="#9ca3af" stroke-width="2.2" stroke-linecap="round"/></g><rect x="64" y="16" width="456" height="440" fill="none" stroke="#cbd5e1"/><g transform="translate(69,22)"><line x1="0" y1="0" x2="9" y2="9" stroke="#111827" stroke-width="2" stroke-linecap="round"/><line x1="0" y1="9" x2="9" y2="0" stroke="#111827" stroke-width="2" stroke-linecap="round"/><text x="15" y="8.5" font-size="9.5" fill="#64748b">site 1</text></g><g transform="translate(69,35)"><line x1="0" y1="0" x2="9" y2="9" stroke="#9ca3af" stroke-width="2" stroke-linecap="round"/><line x1="0" y1="9" x2="9" y2="0" stroke="#9ca3af" stroke-width="2" stroke-linecap="round"/><text x="15" y="8.5" font-size="9.5" fill="#64748b">site 2</text></g><g transform="translate(64,456)"><line y2="5" stroke="#94a3b8"/><text y="17" text-anchor="middle">-300</text></g><g transform="translate(262.2608695652174,456)"><line y2="5" stroke="#94a3b8"/><text y="17" text-anchor="middle">start</text></g><g transform="translate(308.5217391304348,456)"><line y2="5" stroke="#94a3b8"/><text y="17" text-anchor="middle">end</text></g><g transform="translate(513.3913043478261,456)"><line y2="5" stroke="#94a3b8"/><text y="17" text-anchor="middle">+300</text></g><g transform="translate(64,453.4117647058824)"><line x2="-5" stroke="#94a3b8"/><text x="-9" y="3" text-anchor="end">-300</text></g><g transform="translate(64,298.11764705882354)"><line x2="-5" stroke="#94a3b8"/><text x="-9" y="3" text-anchor="end">start</text></g><g transform="translate(64,179.05882352941177)"><line x2="-5" stroke="#94a3b8"/><text x="-9" y="3" text-anchor="end">end</text></g><g transform="translate(64,18.58823529411765)"><line x2="-5" stroke="#94a3b8"/><text x="-9" y="3" text-anchor="end">+300</text></g><text x="292" y="512" text-anchor="middle" font-size="11" fill="#475569" style="font-style: italic;">5'yfiS (5′→3′)</text><text transform="translate(16,236) rotate(-90)" text-anchor="middle" font-size="11" fill="#475569" style="font-style: normal;">SdsR (5′→3′)</text></svg>