<svg xmlns="http://www.w3.org/2000/svg" viewBox="0 0 950 460" width="950" height="460"><svg id="fold-matrix" width="460" viewBox="0 0 460 460" x="0" y="0" height="460"><defs><style>text{font-family:ui-sans-serif,system-ui;font-size:10px;fill:#94a3b8}</style></defs><rect x="44" y="44" width="372" height="372" fill="#fff" stroke="#e2e8f0"/><rect x="44" y="44" width="112.72727272727273" height="372" fill="#0f172a" opacity="0.04"/><rect x="303.2727272727273" y="44" width="112.72727272727269" height="372" fill="#0f172a" opacity="0.04"/><rect x="55.27272727272727" y="44" width="12.5" height="12.5" fill="rgb(255,254,254)"/><rect x="44" y="55.27272727272727" width="12.5" height="12.5" fill="rgb(255,254,254)"/><rect x="303.2727272727273" y="77.81818181818181" width="12.5" height="12.5" fill="rgb(255,254,254)"/><rect x="292" y="89.0909090909091" width="12.5" height="12.5" fill="rgb(255,254,254)"/><rect x="292" y="111.63636363636364" width="12.5" height="12.5" fill="rgb(255,253,253)"/><rect x="235.63636363636365" y="122.9090909090909" width="12.5" height="12.5" fill="rgb(255,254,254)"/><rect x="224.36363636363637" y="134.1818181818182" width="12.5" height="12.5" fill="rgb(255,254,254)"/><rect x="213.0909090909091" y="145.45454545454547" width="12.5" height="12.5" fill="rgb(255,254,254)"/><rect x="235.63636363636365" y="145.45454545454547" width="12.5" height="12.5" fill="rgb(255,251,251)"/><rect x="292" y="145.45454545454547" width="12.5" height="12.5" fill="rgb(255,250,250)"/><rect x="303.2727272727273" y="145.45454545454547" width="12.5" height="12.5" fill="rgb(255,249,249)"/><rect x="235.63636363636365" y="168" width="12.5" height="12.5" fill="rgb(255,251,251)"/><rect x="280.72727272727275" y="168" width="12.5" height="12.5" fill="rgb(255,254,254)"/><rect x="292" y="168" width="12.5" height="12.5" fill="rgb(255,251,251)"/><rect x="303.2727272727273" y="168" width="12.5" height="12.5" fill="rgb(255,253,253)"/><rect x="224.36363636363637" y="179.27272727272728" width="12.5" height="12.5" fill="rgb(255,254,254)"/><rect x="280.72727272727275" y="179.27272727272728" width="12.5" height="12.5" fill="rgb(255,254,254)"/><rect x="213.0909090909091" y="190.54545454545456" width="12.5" height="12.5" fill="rgb(255,254,254)"/><rect x="280.72727272727275" y="190.54545454545456" width="12.5" height="12.5" fill="rgb(255,248,248)"/><rect x="292" y="190.54545454545456" width="12.5" height="12.5" fill="rgb(255,254,254)"/><rect x="145.45454545454547" y="213.0909090909091" width="12.5" height="12.5" fill="rgb(255,254,254)"/><rect x="190.54545454545456" y="213.0909090909091" width="12.5" height="12.5" fill="rgb(255,254,254)"/><rect x="213.0909090909091" y="213.0909090909091" width="12.5" height="12.5" fill="rgb(255,254,254)"/><rect x="258.1818181818182" y="213.0909090909091" width="12.5" height="12.5" fill="rgb(255,251,251)"/><rect x="269.4545454545455" y="213.0909090909091" width="12.5" height="12.5" fill="rgb(255,251,251)"/><rect x="280.72727272727275" y="213.0909090909091" width="12.5" height="12.5" fill="rgb(254,217,217)"/><rect x="134.1818181818182" y="224.36363636363637" width="12.5" height="12.5" fill="rgb(255,254,254)"/><rect x="179.27272727272728" y="224.36363636363637" width="12.5" height="12.5" fill="rgb(255,254,254)"/><rect x="235.63636363636365" y="224.36363636363637" width="12.5" height="12.5" fill="rgb(255,253,253)"/><rect x="246.90909090909093" y="224.36363636363637" width="12.5" height="12.5" fill="rgb(255,253,253)"/><rect x="258.1818181818182" y="224.36363636363637" width="12.5" height="12.5" fill="rgb(255,254,254)"/><rect x="269.4545454545455" y="224.36363636363637" width="12.5" height="12.5" fill="rgb(255,250,250)"/><rect x="280.72727272727275" y="224.36363636363637" width="12.5" height="12.5" fill="rgb(255,243,243)"/><rect x="393.4545454545455" y="224.36363636363637" width="12.5" height="12.5" fill="rgb(255,253,253)"/><rect x="122.9090909090909" y="235.63636363636365" width="12.5" height="12.5" fill="rgb(255,254,254)"/><rect x="145.45454545454547" y="235.63636363636365" width="12.5" height="12.5" fill="rgb(255,251,251)"/><rect x="168" y="235.63636363636365" width="12.5" height="12.5" fill="rgb(255,251,251)"/><rect x="224.36363636363637" y="235.63636363636365" width="12.5" height="12.5" fill="rgb(255,253,253)"/><rect x="235.63636363636365" y="235.63636363636365" width="12.5" height="12.5" fill="rgb(255,251,251)"/><rect x="246.90909090909093" y="235.63636363636365" width="12.5" height="12.5" fill="rgb(255,249,249)"/><rect x="258.1818181818182" y="235.63636363636365" width="12.5" height="12.5" fill="rgb(255,248,248)"/><rect x="269.4545454545455" y="235.63636363636365" width="12.5" height="12.5" fill="rgb(255,241,241)"/><rect x="280.72727272727275" y="235.63636363636365" width="12.5" height="12.5" fill="rgb(69,10,10)"/><rect x="292" y="235.63636363636365" width="12.5" height="12.5" fill="rgb(255,251,251)"/><rect x="224.36363636363637" y="246.90909090909093" width="12.5" height="12.5" fill="rgb(255,253,253)"/><rect x="235.63636363636365" y="246.90909090909093" width="12.5" height="12.5" fill="rgb(255,249,249)"/><rect x="246.90909090909093" y="246.90909090909093" width="12.5" height="12.5" fill="rgb(255,251,251)"/><rect x="280.72727272727275" y="246.90909090909093" width="12.5" height="12.5" fill="rgb(255,244,244)"/><rect x="393.4545454545455" y="246.90909090909093" width="12.5" height="12.5" fill="rgb(255,254,254)"/><rect x="213.0909090909091" y="258.1818181818182" width="12.5" height="12.5" fill="rgb(255,251,251)"/><rect x="224.36363636363637" y="258.1818181818182" width="12.5" height="12.5" fill="rgb(255,254,254)"/><rect x="235.63636363636365" y="258.1818181818182" width="12.5" height="12.5" fill="rgb(255,248,248)"/><rect x="258.1818181818182" y="258.1818181818182" width="12.5" height="12.5" fill="rgb(255,250,250)"/><rect x="269.4545454545455" y="258.1818181818182" width="12.5" height="12.5" fill="rgb(255,254,254)"/><rect x="213.0909090909091" y="269.4545454545455" width="12.5" height="12.5" fill="rgb(255,251,251)"/><rect x="224.36363636363637" y="269.4545454545455" width="12.5" height="12.5" fill="rgb(255,250,250)"/><rect x="235.63636363636365" y="269.4545454545455" width="12.5" height="12.5" fill="rgb(255,241,241)"/><rect x="258.1818181818182" y="269.4545454545455" width="12.5" height="12.5" fill="rgb(255,254,254)"/><rect x="269.4545454545455" y="269.4545454545455" width="12.5" height="12.5" fill="rgb(255,254,254)"/><rect x="168" y="280.72727272727275" width="12.5" height="12.5" fill="rgb(255,254,254)"/><rect x="179.27272727272728" y="280.72727272727275" width="12.5" height="12.5" fill="rgb(255,254,254)"/><rect x="190.54545454545456" y="280.72727272727275" width="12.5" height="12.5" fill="rgb(255,248,248)"/><rect x="213.0909090909091" y="280.72727272727275" width="12.5" height="12.5" fill="rgb(254,217,217)"/><rect x="224.36363636363637" y="280.72727272727275" width="12.5" height="12.5" fill="rgb(255,243,243)"/><rect x="235.63636363636365" y="280.72727272727275" width="12.5" height="12.5" fill="rgb(69,10,10)"/><rect x="246.90909090909093" y="280.72727272727275" width="12.5" height="12.5" fill="rgb(255,244,244)"/><rect x="280.72727272727275" y="280.72727272727275" width="12.5" height="12.5" fill="rgb(255,250,250)"/><rect x="393.4545454545455" y="280.72727272727275" width="12.5" height="12.5" fill="rgb(255,251,251)"/><rect x="89.0909090909091" y="292" width="12.5" height="12.5" fill="rgb(255,254,254)"/><rect x="111.63636363636364" y="292" width="12.5" height="12.5" fill="rgb(255,253,253)"/><rect x="145.45454545454547" y="292" width="12.5" height="12.5" fill="rgb(255,250,250)"/><rect x="168" y="292" width="12.5" height="12.5" fill="rgb(255,251,251)"/><rect x="190.54545454545456" y="292" width="12.5" height="12.5" fill="rgb(255,254,254)"/><rect x="235.63636363636365" y="292" width="12.5" height="12.5" fill="rgb(255,251,251)"/><rect x="359.6363636363636" y="292" width="12.5" height="12.5" fill="rgb(255,253,253)"/><rect x="77.81818181818181" y="303.2727272727273" width="12.5" height="12.5" fill="rgb(255,254,254)"/><rect x="145.45454545454547" y="303.2727272727273" width="12.5" height="12.5" fill="rgb(255,249,249)"/><rect x="168" y="303.2727272727273" width="12.5" height="12.5" fill="rgb(255,253,253)"/><rect x="370.90909090909093" y="348.3636363636364" width="12.5" height="12.5" fill="rgb(255,254,254)"/><rect x="292" y="359.6363636363636" width="12.5" height="12.5" fill="rgb(255,253,253)"/><rect x="348.3636363636364" y="370.90909090909093" width="12.5" height="12.5" fill="rgb(255,254,254)"/><rect x="224.36363636363637" y="393.4545454545455" width="12.5" height="12.5" fill="rgb(255,253,253)"/><rect x="246.90909090909093" y="393.4545454545455" width="12.5" height="12.5" fill="rgb(255,254,254)"/><rect x="280.72727272727275" y="393.4545454545455" width="12.5" height="12.5" fill="rgb(255,251,251)"/><line x1="156.72727272727275" y1="44" x2="156.72727272727275" y2="416" stroke="#A40194" stroke-width="1" opacity="0.6"/><line x1="303.2727272727273" y1="44" x2="303.2727272727273" y2="416" stroke="#A40194" stroke-width="1" opacity="0.6"/><line x1="44" y1="156.72727272727275" x2="416" y2="156.72727272727275" stroke="#A40194" stroke-width="1" opacity="0.6"/><line x1="44" y1="303.2727272727273" x2="416" y2="303.2727272727273" stroke="#A40194" stroke-width="1" opacity="0.6"/><rect x="44" y="44" width="372" height="372" fill="none" stroke="#cbd5e1"/><text x="230" y="446" text-anchor="middle" font-size="11" fill="#475569">5′ → 3′ (bins)</text><text transform="translate(14,230) rotate(-90)" text-anchor="middle" font-size="11" fill="#475569">5′ → 3′ (bins)</text></svg><svg id="fold-profile" width="460" viewBox="0 0 460 230" x="490" y="115" height="230"><defs><style>text{font-family:ui-sans-serif,system-ui;font-size:10px;fill:#94a3b8}</style></defs><rect x="44" y="16" width="125.625" height="174" fill="#0f172a" opacity="0.04"/><rect x="320.375" y="16" width="125.625" height="174" fill="#0f172a" opacity="0.04"/><rect x="44" y="190" width="1" height="0" fill="#cbd5e1"/><rect x="44.628125" y="190" width="1" height="0" fill="#cbd5e1"/><rect x="45.25625" y="190" width="1" height="0" fill="#cbd5e1"/><rect x="45.884375" y="190" width="1" height="0" fill="#cbd5e1"/><rect x="46.5125" y="190" width="1" height="0" fill="#cbd5e1"/><rect x="47.140625" y="190" width="1" height="0" fill="#cbd5e1"/><rect x="47.76875" y="190" width="1" height="0" fill="#cbd5e1"/><rect x="48.396875" y="190" width="1" height="0" fill="#cbd5e1"/><rect x="49.025" y="190" width="1" height="0" fill="#cbd5e1"/><rect x="49.653125" y="190" width="1" height="0" fill="#cbd5e1"/><rect x="50.28125" y="190" width="1" height="0" fill="#cbd5e1"/><rect x="50.909375" y="190" width="1" height="0" fill="#cbd5e1"/><rect x="51.5375" y="190" width="1" height="0" fill="#cbd5e1"/><rect x="52.165625" y="190" width="1" height="0" fill="#cbd5e1"/><rect x="52.79375" y="190" width="1" height="0" fill="#cbd5e1"/><rect x="53.421875" y="190" width="1" height="0" fill="#cbd5e1"/><rect x="54.05" y="190" width="1" height="0" fill="#cbd5e1"/><rect x="54.678125" y="190" width="1" height="0" fill="#cbd5e1"/><rect x="55.30625" y="190" width="1" height="0" fill="#cbd5e1"/><rect x="55.934375" y="189.9822828632522" width="1" height="0.017717136747791074" fill="#cbd5e1"/><rect x="56.5625" y="189.9822828632522" width="1" height="0.017717136747791074" fill="#cbd5e1"/><rect x="57.190625" y="189.9822828632522" width="1" height="0.017717136747791074" fill="#cbd5e1"/><rect x="57.81875" y="190" width="1" height="0" fill="#cbd5e1"/><rect x="58.446875" y="190" width="1" height="0" fill="#cbd5e1"/><rect x="59.075" y="190" width="1" height="0" fill="#cbd5e1"/><rect x="59.703125" y="190" width="1" height="0" fill="#cbd5e1"/><rect x="60.33125" y="189.9822828632522" width="1" height="0.017717136747791074" fill="#cbd5e1"/><rect x="60.959375" y="189.9822828632522" width="1" height="0.017717136747791074" fill="#cbd5e1"/><rect x="61.5875" y="189.9822828632522" width="1" height="0.017717136747791074" fill="#cbd5e1"/><rect x="62.215625" y="190" width="1" height="0" fill="#cbd5e1"/><rect x="62.84375" y="189.96456572650442" width="1" height="0.03543427349558215" fill="#cbd5e1"/><rect x="63.471875" y="189.96456572650442" width="1" height="0.03543427349558215" fill="#cbd5e1"/><rect x="64.1" y="189.94684858975666" width="1" height="0.0531514102433448" fill="#cbd5e1"/><rect x="64.728125" y="189.94684858975666" width="1" height="0.0531514102433448" fill="#cbd5e1"/><rect x="65.35625" y="189.89369717951328" width="1" height="0.10630282048671802" fill="#cbd5e1"/><rect x="65.984375" y="189.91141431626107" width="1" height="0.08858568373892695" fill="#cbd5e1"/><rect x="66.6125" y="189.94684858975666" width="1" height="0.0531514102433448" fill="#cbd5e1"/><rect x="67.240625" y="190" width="1" height="0" fill="#cbd5e1"/><rect x="67.86875" y="190" width="1" height="0" fill="#cbd5e1"/><rect x="68.496875" y="190" width="1" height="0" fill="#cbd5e1"/><rect x="69.125" y="189.9822828632522" width="1" height="0.017717136747791074" fill="#cbd5e1"/><rect x="69.753125" y="189.9822828632522" width="1" height="0.017717136747791074" fill="#cbd5e1"/><rect x="70.38125" y="189.9822828632522" width="1" height="0.017717136747791074" fill="#cbd5e1"/><rect x="71.009375" y="189.9822828632522" width="1" height="0.017717136747791074" fill="#cbd5e1"/><rect x="71.6375" y="189.9822828632522" width="1" height="0.017717136747791074" fill="#cbd5e1"/><rect x="72.265625" y="189.96456572650442" width="1" height="0.03543427349558215" fill="#cbd5e1"/><rect x="72.89375" y="189.9822828632522" width="1" height="0.017717136747791074" fill="#cbd5e1"/><rect x="73.521875" y="189.9822828632522" width="1" height="0.017717136747791074" fill="#cbd5e1"/><rect x="74.15" y="189.9822828632522" width="1" height="0.017717136747791074" fill="#cbd5e1"/><rect x="74.778125" y="189.9822828632522" width="1" height="0.017717136747791074" fill="#cbd5e1"/><rect x="75.40625" y="189.9822828632522" width="1" height="0.017717136747791074" fill="#cbd5e1"/><rect x="76.034375" y="189.96456572650442" width="1" height="0.03543427349558215" fill="#cbd5e1"/><rect x="76.6625" y="189.96456572650442" width="1" height="0.03543427349558215" fill="#cbd5e1"/><rect x="77.290625" y="189.92913145300886" width="1" height="0.07086854699113587" fill="#cbd5e1"/><rect x="77.91875" y="189.96456572650442" width="1" height="0.03543427349558215" fill="#cbd5e1"/><rect x="78.546875" y="189.96456572650442" width="1" height="0.03543427349558215" fill="#cbd5e1"/><rect x="79.175" y="189.9822828632522" width="1" height="0.017717136747791074" fill="#cbd5e1"/><rect x="79.803125" y="189.9822828632522" width="1" height="0.017717136747791074" fill="#cbd5e1"/><rect x="80.43125" y="189.9822828632522" width="1" height="0.017717136747791074" fill="#cbd5e1"/><rect x="81.059375" y="189.9822828632522" width="1" height="0.017717136747791074" fill="#cbd5e1"/><rect x="81.6875" y="189.96456572650442" width="1" height="0.03543427349558215" fill="#cbd5e1"/><rect x="82.315625" y="189.96456572650442" width="1" height="0.03543427349558215" fill="#cbd5e1"/><rect x="82.94375" y="189.9822828632522" width="1" height="0.017717136747791074" fill="#cbd5e1"/><rect x="83.571875" y="190" width="1" height="0" fill="#cbd5e1"/><rect x="84.2" y="190" width="1" height="0" fill="#cbd5e1"/><rect x="84.828125" y="190" width="1" height="0" fill="#cbd5e1"/><rect x="85.45625" y="190" width="1" height="0" fill="#cbd5e1"/><rect x="86.084375" y="190" width="1" height="0" fill="#cbd5e1"/><rect x="86.7125" y="190" width="1" height="0" fill="#cbd5e1"/><rect x="87.340625" y="190" width="1" height="0" fill="#cbd5e1"/><rect x="87.96875" y="189.9822828632522" width="1" height="0.017717136747791074" fill="#cbd5e1"/><rect x="88.596875" y="189.9822828632522" width="1" height="0.017717136747791074" fill="#cbd5e1"/><rect x="89.225" y="189.9822828632522" width="1" height="0.017717136747791074" fill="#cbd5e1"/><rect x="89.853125" y="190" width="1" height="0" fill="#cbd5e1"/><rect x="90.48125" y="190" width="1" height="0" fill="#cbd5e1"/><rect x="91.109375" y="190" width="1" height="0" fill="#cbd5e1"/><rect x="91.7375" y="190" width="1" height="0" fill="#cbd5e1"/><rect x="92.365625" y="190" width="1" height="0" fill="#cbd5e1"/><rect x="92.99375" y="189.9822828632522" width="1" height="0.017717136747791074" fill="#cbd5e1"/><rect x="93.621875" y="189.96456572650442" width="1" height="0.03543427349558215" fill="#cbd5e1"/><rect x="94.25" y="189.96456572650442" width="1" height="0.03543427349558215" fill="#cbd5e1"/><rect x="94.878125" y="189.9822828632522" width="1" height="0.017717136747791074" fill="#cbd5e1"/><rect x="95.50625" y="190" width="1" height="0" fill="#cbd5e1"/><rect x="96.134375" y="189.9822828632522" width="1" height="0.017717136747791074" fill="#cbd5e1"/><rect x="96.7625" y="189.9822828632522" width="1" height="0.017717136747791074" fill="#cbd5e1"/><rect x="97.390625" y="189.9822828632522" width="1" height="0.017717136747791074" fill="#cbd5e1"/><rect x="98.01875" y="189.96456572650442" width="1" height="0.03543427349558215" fill="#cbd5e1"/><rect x="98.646875" y="189.96456572650442" width="1" height="0.03543427349558215" fill="#cbd5e1"/><rect x="99.275" y="189.89369717951328" width="1" height="0.10630282048671802" fill="#cbd5e1"/><rect x="99.903125" y="189.92913145300886" width="1" height="0.07086854699113587" fill="#cbd5e1"/><rect x="100.53125" y="189.92913145300886" width="1" height="0.07086854699113587" fill="#cbd5e1"/><rect x="101.159375" y="190" width="1" height="0" fill="#cbd5e1"/><rect x="101.7875" y="190" width="1" height="0" fill="#cbd5e1"/><rect x="102.415625" y="190" width="1" height="0" fill="#cbd5e1"/><rect x="103.04375" y="189.9822828632522" width="1" height="0.017717136747791074" fill="#cbd5e1"/><rect x="103.671875" y="189.9822828632522" width="1" height="0.017717136747791074" fill="#cbd5e1"/><rect x="104.3" y="189.9822828632522" width="1" height="0.017717136747791074" fill="#cbd5e1"/><rect x="104.928125" y="189.96456572650442" width="1" height="0.03543427349558215" fill="#cbd5e1"/><rect x="105.55625" y="189.96456572650442" width="1" height="0.03543427349558215" fill="#cbd5e1"/><rect x="106.184375" y="189.94684858975666" width="1" height="0.0531514102433448" fill="#cbd5e1"/><rect x="106.8125" y="189.9822828632522" width="1" height="0.017717136747791074" fill="#cbd5e1"/><rect x="107.440625" y="189.9822828632522" width="1" height="0.017717136747791074" fill="#cbd5e1"/><rect x="108.06875" y="190" width="1" height="0" fill="#cbd5e1"/><rect x="108.696875" y="189.9822828632522" width="1" height="0.017717136747791074" fill="#cbd5e1"/><rect x="109.325" y="189.9822828632522" width="1" height="0.017717136747791074" fill="#cbd5e1"/><rect x="109.953125" y="189.9822828632522" width="1" height="0.017717136747791074" fill="#cbd5e1"/><rect x="110.58125" y="190" width="1" height="0" fill="#cbd5e1"/><rect x="111.209375" y="190" width="1" height="0" fill="#cbd5e1"/><rect x="111.8375" y="190" width="1" height="0" fill="#cbd5e1"/><rect x="112.465625" y="190" width="1" height="0" fill="#cbd5e1"/><rect x="113.09375" y="189.96456572650442" width="1" height="0.03543427349558215" fill="#cbd5e1"/><rect x="113.721875" y="189.96456572650442" width="1" height="0.03543427349558215" fill="#cbd5e1"/><rect x="114.35" y="189.92913145300886" width="1" height="0.07086854699113587" fill="#cbd5e1"/><rect x="114.978125" y="189.94684858975666" width="1" height="0.0531514102433448" fill="#cbd5e1"/><rect x="115.60625" y="189.92913145300886" width="1" height="0.07086854699113587" fill="#cbd5e1"/><rect x="116.234375" y="189.94684858975666" width="1" height="0.0531514102433448" fill="#cbd5e1"/><rect x="116.8625" y="189.96456572650442" width="1" height="0.03543427349558215" fill="#cbd5e1"/><rect x="117.490625" y="189.9822828632522" width="1" height="0.017717136747791074" fill="#cbd5e1"/><rect x="118.11875" y="190" width="1" height="0" fill="#cbd5e1"/><rect x="118.746875" y="190" width="1" height="0" fill="#cbd5e1"/><rect x="119.375" y="190" width="1" height="0" fill="#cbd5e1"/><rect x="120.003125" y="189.9822828632522" width="1" height="0.017717136747791074" fill="#cbd5e1"/><rect x="120.63125" y="189.9822828632522" width="1" height="0.017717136747791074" fill="#cbd5e1"/><rect x="121.259375" y="189.9822828632522" width="1" height="0.017717136747791074" fill="#cbd5e1"/><rect x="121.8875" y="190" width="1" height="0" fill="#cbd5e1"/><rect x="122.515625" y="190" width="1" height="0" fill="#cbd5e1"/><rect x="123.14375" y="190" width="1" height="0" fill="#cbd5e1"/><rect x="123.771875" y="190" width="1" height="0" fill="#cbd5e1"/><rect x="124.4" y="190" width="1" height="0" fill="#cbd5e1"/><rect x="125.028125" y="189.96456572650442" width="1" height="0.03543427349558215" fill="#cbd5e1"/><rect x="125.65625" y="189.94684858975666" width="1" height="0.0531514102433448" fill="#cbd5e1"/><rect x="126.284375" y="189.89369717951328" width="1" height="0.10630282048671802" fill="#cbd5e1"/><rect x="126.9125" y="189.91141431626107" width="1" height="0.08858568373892695" fill="#cbd5e1"/><rect x="127.540625" y="189.89369717951328" width="1" height="0.10630282048671802" fill="#cbd5e1"/><rect x="128.16875" y="189.94684858975666" width="1" height="0.0531514102433448" fill="#cbd5e1"/><rect x="128.796875" y="189.96456572650442" width="1" height="0.03543427349558215" fill="#cbd5e1"/><rect x="129.425" y="190" width="1" height="0" fill="#cbd5e1"/><rect x="130.053125" y="190" width="1" height="0" fill="#cbd5e1"/><rect x="130.68125" y="190" width="1" height="0" fill="#cbd5e1"/><rect x="131.309375" y="190" width="1" height="0" fill="#cbd5e1"/><rect x="131.9375" y="190" width="1" height="0" fill="#cbd5e1"/><rect x="132.565625" y="190" width="1" height="0" fill="#cbd5e1"/><rect x="133.19375" y="190" width="1" height="0" fill="#cbd5e1"/><rect x="133.821875" y="190" width="1" height="0" fill="#cbd5e1"/><rect x="134.45" y="190" width="1" height="0" fill="#cbd5e1"/><rect x="135.078125" y="190" width="1" height="0" fill="#cbd5e1"/><rect x="135.70625" y="190" width="1" height="0" fill="#cbd5e1"/><rect x="136.334375" y="190" width="1" height="0" fill="#cbd5e1"/><rect x="136.9625" y="190" width="1" height="0" fill="#cbd5e1"/><rect x="137.590625" y="189.9822828632522" width="1" height="0.017717136747791074" fill="#cbd5e1"/><rect x="138.21875" y="189.9822828632522" width="1" height="0.017717136747791074" fill="#cbd5e1"/><rect x="138.846875" y="189.9822828632522" width="1" height="0.017717136747791074" fill="#cbd5e1"/><rect x="139.475" y="190" width="1" height="0" fill="#cbd5e1"/><rect x="140.103125" y="190" width="1" height="0" fill="#cbd5e1"/><rect x="140.73125" y="190" width="1" height="0" fill="#cbd5e1"/><rect x="141.359375" y="190" width="1" height="0" fill="#cbd5e1"/><rect x="141.9875" y="189.9822828632522" width="1" height="0.017717136747791074" fill="#cbd5e1"/><rect x="142.615625" y="189.94684858975666" width="1" height="0.0531514102433448" fill="#cbd5e1"/><rect x="143.24375" y="189.92913145300886" width="1" height="0.07086854699113587" fill="#cbd5e1"/><rect x="143.871875" y="189.92913145300886" width="1" height="0.07086854699113587" fill="#cbd5e1"/><rect x="144.5" y="189.96456572650442" width="1" height="0.03543427349558215" fill="#cbd5e1"/><rect x="145.128125" y="189.9822828632522" width="1" height="0.017717136747791074" fill="#cbd5e1"/><rect x="145.75625" y="190" width="1" height="0" fill="#cbd5e1"/><rect x="146.384375" y="190" width="1" height="0" fill="#cbd5e1"/><rect x="147.0125" y="190" width="1" height="0" fill="#cbd5e1"/><rect x="147.640625" y="190" width="1" height="0" fill="#cbd5e1"/><rect x="148.26875" y="190" width="1" height="0" fill="#cbd5e1"/><rect x="148.896875" y="189.9822828632522" width="1" height="0.017717136747791074" fill="#cbd5e1"/><rect x="149.525" y="189.9822828632522" width="1" height="0.017717136747791074" fill="#cbd5e1"/><rect x="150.153125" y="189.9822828632522" width="1" height="0.017717136747791074" fill="#cbd5e1"/><rect x="150.78125" y="190" width="1" height="0" fill="#cbd5e1"/><rect x="151.409375" y="190" width="1" height="0" fill="#cbd5e1"/><rect x="152.0375" y="190" width="1" height="0" fill="#cbd5e1"/><rect x="152.665625" y="189.9822828632522" width="1" height="0.017717136747791074" fill="#cbd5e1"/><rect x="153.29375" y="189.9822828632522" width="1" height="0.017717136747791074" fill="#cbd5e1"/><rect x="153.921875" y="189.9822828632522" width="1" height="0.017717136747791074" fill="#cbd5e1"/><rect x="154.55" y="190" width="1" height="0" fill="#cbd5e1"/><rect x="155.178125" y="189.9822828632522" width="1" height="0.017717136747791074" fill="#cbd5e1"/><rect x="155.80625" y="189.9822828632522" width="1" height="0.017717136747791074" fill="#cbd5e1"/><rect x="156.434375" y="189.9822828632522" width="1" height="0.017717136747791074" fill="#cbd5e1"/><rect x="157.0625" y="189.9822828632522" width="1" height="0.017717136747791074" fill="#cbd5e1"/><rect x="157.690625" y="189.9822828632522" width="1" height="0.017717136747791074" fill="#cbd5e1"/><rect x="158.31875" y="189.94684858975666" width="1" height="0.0531514102433448" fill="#cbd5e1"/><rect x="158.946875" y="189.94684858975666" width="1" height="0.0531514102433448" fill="#cbd5e1"/><rect x="159.575" y="189.91141431626107" width="1" height="0.08858568373892695" fill="#cbd5e1"/><rect x="160.203125" y="189.91141431626107" width="1" height="0.08858568373892695" fill="#cbd5e1"/><rect x="160.83125" y="189.82282863252215" width="1" height="0.1771713674778539" fill="#cbd5e1"/><rect x="161.459375" y="189.80511149577436" width="1" height="0.19488850422564497" fill="#cbd5e1"/><rect x="162.0875" y="189.80511149577436" width="1" height="0.19488850422564497" fill="#cbd5e1"/><rect x="162.715625" y="189.89369717951328" width="1" height="0.10630282048671802" fill="#cbd5e1"/><rect x="163.34375" y="189.94684858975666" width="1" height="0.0531514102433448" fill="#cbd5e1"/><rect x="163.971875" y="189.9822828632522" width="1" height="0.017717136747791074" fill="#cbd5e1"/><rect x="164.6" y="190" width="1" height="0" fill="#cbd5e1"/><rect x="165.228125" y="190" width="1" height="0" fill="#cbd5e1"/><rect x="165.85625" y="190" width="1" height="0" fill="#cbd5e1"/><rect x="166.484375" y="190" width="1" height="0" fill="#cbd5e1"/><rect x="167.1125" y="190" width="1" height="0" fill="#cbd5e1"/><rect x="167.740625" y="190" width="1" height="0" fill="#cbd5e1"/><rect x="168.36875" y="190" width="1" height="0" fill="#cbd5e1"/><rect x="168.996875" y="190" width="1" height="0" fill="#cbd5e1"/><rect x="169.625" y="189.9822828632522" width="1" height="0.017717136747791074" fill="#cbd5e1"/><rect x="170.253125" y="189.9822828632522" width="1" height="0.017717136747791074" fill="#cbd5e1"/><rect x="170.88125" y="189.9822828632522" width="1" height="0.017717136747791074" fill="#cbd5e1"/><rect x="171.509375" y="189.9822828632522" width="1" height="0.017717136747791074" fill="#cbd5e1"/><rect x="172.1375" y="189.9822828632522" width="1" height="0.017717136747791074" fill="#cbd5e1"/><rect x="172.765625" y="189.9822828632522" width="1" height="0.017717136747791074" fill="#cbd5e1"/><rect x="173.39375" y="190" width="1" height="0" fill="#cbd5e1"/><rect x="174.021875" y="190" width="1" height="0" fill="#cbd5e1"/><rect x="174.65" y="190" width="1" height="0" fill="#cbd5e1"/><rect x="175.278125" y="190" width="1" height="0" fill="#cbd5e1"/><rect x="175.90625" y="190" width="1" height="0" fill="#cbd5e1"/><rect x="176.534375" y="190" width="1" height="0" fill="#cbd5e1"/><rect x="177.1625" y="190" width="1" height="0" fill="#cbd5e1"/><rect x="177.790625" y="190" width="1" height="0" fill="#cbd5e1"/><rect x="178.41875" y="190" width="1" height="0" fill="#cbd5e1"/><rect x="179.046875" y="189.9822828632522" width="1" height="0.017717136747791074" fill="#cbd5e1"/><rect x="179.675" y="189.9822828632522" width="1" height="0.017717136747791074" fill="#cbd5e1"/><rect x="180.303125" y="189.9822828632522" width="1" height="0.017717136747791074" fill="#cbd5e1"/><rect x="180.93125" y="190" width="1" height="0" fill="#cbd5e1"/><rect x="181.559375" y="190" width="1" height="0" fill="#cbd5e1"/><rect x="182.1875" y="190" width="1" height="0" fill="#cbd5e1"/><rect x="182.815625" y="190" width="1" height="0" fill="#cbd5e1"/><rect x="183.44375" y="189.96456572650442" width="1" height="0.03543427349558215" fill="#cbd5e1"/><rect x="184.071875" y="189.96456572650442" width="1" height="0.03543427349558215" fill="#cbd5e1"/><rect x="184.7" y="189.96456572650442" width="1" height="0.03543427349558215" fill="#cbd5e1"/><rect x="185.328125" y="190" width="1" height="0" fill="#cbd5e1"/><rect x="185.95625" y="190" width="1" height="0" fill="#cbd5e1"/><rect x="186.584375" y="190" width="1" height="0" fill="#cbd5e1"/><rect x="187.2125" y="190" width="1" height="0" fill="#cbd5e1"/><rect x="187.840625" y="189.96456572650442" width="1" height="0.03543427349558215" fill="#cbd5e1"/><rect x="188.46875" y="189.96456572650442" width="1" height="0.03543427349558215" fill="#cbd5e1"/><rect x="189.096875" y="189.92913145300886" width="1" height="0.07086854699113587" fill="#cbd5e1"/><rect x="189.725" y="189.91141431626107" width="1" height="0.08858568373892695" fill="#cbd5e1"/><rect x="190.353125" y="189.89369717951328" width="1" height="0.10630282048671802" fill="#cbd5e1"/><rect x="190.98125" y="189.84054576926994" width="1" height="0.15945423073006282" fill="#cbd5e1"/><rect x="191.609375" y="189.82282863252215" width="1" height="0.1771713674778539" fill="#cbd5e1"/><rect x="192.2375" y="189.82282863252215" width="1" height="0.1771713674778539" fill="#cbd5e1"/><rect x="192.865625" y="189.91141431626107" width="1" height="0.08858568373892695" fill="#cbd5e1"/><rect x="193.49375" y="189.94684858975666" width="1" height="0.0531514102433448" fill="#cbd5e1"/><rect x="194.121875" y="189.92913145300886" width="1" height="0.07086854699113587" fill="#cbd5e1"/><rect x="194.75" y="189.92913145300886" width="1" height="0.07086854699113587" fill="#cbd5e1"/><rect x="195.378125" y="189.96456572650442" width="1" height="0.03543427349558215" fill="#cbd5e1"/><rect x="196.00625" y="190" width="1" height="0" fill="#cbd5e1"/><rect x="196.634375" y="190" width="1" height="0" fill="#cbd5e1"/><rect x="197.2625" y="189.9822828632522" width="1" height="0.017717136747791074" fill="#cbd5e1"/><rect x="197.890625" y="189.9822828632522" width="1" height="0.017717136747791074" fill="#cbd5e1"/><rect x="198.51875" y="189.9822828632522" width="1" height="0.017717136747791074" fill="#cbd5e1"/><rect x="199.146875" y="190" width="1" height="0" fill="#cbd5e1"/><rect x="199.775" y="190" width="1" height="0" fill="#cbd5e1"/><rect x="200.403125" y="190" width="1" height="0" fill="#cbd5e1"/><rect x="201.03125" y="190" width="1" height="0" fill="#cbd5e1"/><rect x="201.659375" y="189.9822828632522" width="1" height="0.017717136747791074" fill="#cbd5e1"/><rect x="202.2875" y="189.9822828632522" width="1" height="0.017717136747791074" fill="#cbd5e1"/><rect x="202.915625" y="189.9822828632522" width="1" height="0.017717136747791074" fill="#cbd5e1"/><rect x="203.54375" y="190" width="1" height="0" fill="#cbd5e1"/><rect x="204.171875" y="189.9822828632522" width="1" height="0.017717136747791074" fill="#cbd5e1"/><rect x="204.8" y="189.9822828632522" width="1" height="0.017717136747791074" fill="#cbd5e1"/><rect x="205.428125" y="189.9822828632522" width="1" height="0.017717136747791074" fill="#cbd5e1"/><rect x="206.05625" y="189.9822828632522" width="1" height="0.017717136747791074" fill="#cbd5e1"/><rect x="206.684375" y="189.92913145300886" width="1" height="0.07086854699113587" fill="#cbd5e1"/><rect x="207.3125" y="189.91141431626107" width="1" height="0.08858568373892695" fill="#cbd5e1"/><rect x="207.940625" y="189.8759800427655" width="1" height="0.12401995723450909" fill="#cbd5e1"/><rect x="208.56875" y="189.7696772222788" width="1" height="0.2303227777211987" fill="#cbd5e1"/><rect x="209.196875" y="189.78739435902656" width="1" height="0.21260564097343604" fill="#cbd5e1"/><rect x="209.825" y="189.82282863252215" width="1" height="0.1771713674778539" fill="#cbd5e1"/><rect x="210.453125" y="189.94684858975666" width="1" height="0.0531514102433448" fill="#cbd5e1"/><rect x="211.08125" y="189.94684858975666" width="1" height="0.0531514102433448" fill="#cbd5e1"/><rect x="211.709375" y="189.94684858975666" width="1" height="0.0531514102433448" fill="#cbd5e1"/><rect x="212.3375" y="189.96456572650442" width="1" height="0.03543427349558215" fill="#cbd5e1"/><rect x="212.965625" y="189.91141431626107" width="1" height="0.08858568373892695" fill="#cbd5e1"/><rect x="213.59375" y="189.8759800427655" width="1" height="0.12401995723450909" fill="#cbd5e1"/><rect x="214.221875" y="189.8759800427655" width="1" height="0.12401995723450909" fill="#cbd5e1"/><rect x="214.85" y="189.89369717951328" width="1" height="0.10630282048671802" fill="#cbd5e1"/><rect x="215.478125" y="189.92913145300886" width="1" height="0.07086854699113587" fill="#cbd5e1"/><rect x="216.10625" y="189.92913145300886" width="1" height="0.07086854699113587" fill="#cbd5e1"/><rect x="216.734375" y="189.96456572650442" width="1" height="0.03543427349558215" fill="#cbd5e1"/><rect x="217.3625" y="189.9822828632522" width="1" height="0.017717136747791074" fill="#cbd5e1"/><rect x="217.990625" y="190" width="1" height="0" fill="#cbd5e1"/><rect x="218.61875" y="190" width="1" height="0" fill="#cbd5e1"/><rect x="219.246875" y="189.9822828632522" width="1" height="0.017717136747791074" fill="#cbd5e1"/><rect x="219.875" y="189.94684858975666" width="1" height="0.0531514102433448" fill="#cbd5e1"/><rect x="220.503125" y="189.89369717951328" width="1" height="0.10630282048671802" fill="#cbd5e1"/><rect x="221.13125" y="189.89369717951328" width="1" height="0.10630282048671802" fill="#cbd5e1"/><rect x="221.759375" y="189.91141431626107" width="1" height="0.08858568373892695" fill="#cbd5e1"/><rect x="222.3875" y="189.96456572650442" width="1" height="0.03543427349558215" fill="#cbd5e1"/><rect x="223.015625" y="189.9822828632522" width="1" height="0.017717136747791074" fill="#cbd5e1"/><rect x="223.64375" y="190" width="1" height="0" fill="#cbd5e1"/><rect x="224.271875" y="190" width="1" height="0" fill="#cbd5e1"/><rect x="224.9" y="190" width="1" height="0" fill="#cbd5e1"/><rect x="225.528125" y="190" width="1" height="0" fill="#cbd5e1"/><rect x="226.15625" y="190" width="1" height="0" fill="#cbd5e1"/><rect x="226.784375" y="190" width="1" height="0" fill="#cbd5e1"/><rect x="227.4125" y="190" width="1" height="0" fill="#cbd5e1"/><rect x="228.040625" y="189.96456572650442" width="1" height="0.03543427349558215" fill="#cbd5e1"/><rect x="228.66875" y="189.96456572650442" width="1" height="0.03543427349558215" fill="#cbd5e1"/><rect x="229.296875" y="189.94684858975666" width="1" height="0.0531514102433448" fill="#cbd5e1"/><rect x="229.925" y="189.9822828632522" width="1" height="0.017717136747791074" fill="#cbd5e1"/><rect x="230.553125" y="189.96456572650442" width="1" height="0.03543427349558215" fill="#cbd5e1"/><rect x="231.18125" y="189.9822828632522" width="1" height="0.017717136747791074" fill="#cbd5e1"/><rect x="231.809375" y="189.9822828632522" width="1" height="0.017717136747791074" fill="#cbd5e1"/><rect x="232.4375" y="190" width="1" height="0" fill="#cbd5e1"/><rect x="233.065625" y="190" width="1" height="0" fill="#cbd5e1"/><rect x="233.69375" y="189.9822828632522" width="1" height="0.017717136747791074" fill="#cbd5e1"/><rect x="234.321875" y="189.92913145300886" width="1" height="0.07086854699113587" fill="#cbd5e1"/><rect x="234.95" y="189.89369717951328" width="1" height="0.10630282048671802" fill="#cbd5e1"/><rect x="235.578125" y="189.85826290601773" width="1" height="0.14173709398227174" fill="#cbd5e1"/><rect x="236.20625" y="189.85826290601773" width="1" height="0.14173709398227174" fill="#cbd5e1"/><rect x="236.834375" y="189.8759800427655" width="1" height="0.12401995723450909" fill="#cbd5e1"/><rect x="237.4625" y="189.84054576926994" width="1" height="0.15945423073006282" fill="#cbd5e1"/><rect x="238.090625" y="189.84054576926994" width="1" height="0.15945423073006282" fill="#cbd5e1"/><rect x="238.71875" y="189.80511149577436" width="1" height="0.19488850422564497" fill="#cbd5e1"/><rect x="239.346875" y="189.69880867528764" width="1" height="0.301191324712363" fill="#cbd5e1"/><rect x="239.975" y="189.6279401282965" width="1" height="0.37205987170349886" fill="#cbd5e1"/><rect x="240.603125" y="189.6102229915487" width="1" height="0.38977700845128993" fill="#cbd5e1"/><rect x="241.23125" y="189.6456572650443" width="1" height="0.3543427349557078" fill="#cbd5e1"/><rect x="241.859375" y="183.8344364117707" width="1" height="6.165563588229304" fill="#cbd5e1"/><rect x="242.4875" y="97.5342633133082" width="1" height="92.4657366866918" fill="#cbd5e1"/><rect x="243.115625" y="86.39018429895123" width="1" height="103.60981570104877" fill="#cbd5e1"/><rect x="243.74375" y="83.67946237654006" width="1" height="106.32053762345994" fill="#cbd5e1"/><rect x="244.371875" y="164.75308013440588" width="1" height="25.246919865594123" fill="#cbd5e1"/><rect x="245" y="173.4167600040729" width="1" height="16.5832399959271" fill="#cbd5e1"/><rect x="245.628125" y="181.31860299358516" width="1" height="8.68139700641484" fill="#cbd5e1"/><rect x="246.25625000000002" y="186.4920069239385" width="1" height="3.5079930760614957" fill="#cbd5e1"/><rect x="246.88437499999998" y="188.7775175644028" width="1" height="1.2224824355971862" fill="#cbd5e1"/><rect x="247.5125" y="188.22828632522146" width="1" height="1.771713674778539" fill="#cbd5e1"/><rect x="248.140625" y="187.16525812035434" width="1" height="2.8347418796456623" fill="#cbd5e1"/><rect x="248.76875" y="186.4920069239385" width="1" height="3.5079930760614957" fill="#cbd5e1"/><rect x="249.39687500000002" y="186.43885551369513" width="1" height="3.561144486304869" fill="#cbd5e1"/><rect x="250.02499999999998" y="185.83647286427043" width="1" height="4.1635271357295665" fill="#cbd5e1"/><rect x="250.653125" y="185.7833214540271" width="1" height="4.216678545972911" fill="#cbd5e1"/><rect x="251.28125" y="186.82863252214642" width="1" height="3.171367477853579" fill="#cbd5e1"/><rect x="251.909375" y="188.52947764993382" width="1" height="1.470522350066176" fill="#cbd5e1"/><rect x="252.53750000000002" y="189.52163730780978" width="1" height="0.4783626921902169" fill="#cbd5e1"/><rect x="253.16562499999998" y="189.69880867528764" width="1" height="0.301191324712363" fill="#cbd5e1"/><rect x="253.79375" y="189.751960085531" width="1" height="0.24803991446898976" fill="#cbd5e1"/><rect x="254.421875" y="189.50392017106202" width="1" height="0.49607982893797953" fill="#cbd5e1"/><rect x="255.05" y="188.26372059871704" width="1" height="1.7362794012829568" fill="#cbd5e1"/><rect x="255.67812500000002" y="185.58843294980144" width="1" height="4.411567050198556" fill="#cbd5e1"/><rect x="256.30625" y="177.72202423378474" width="1" height="12.277975766215263" fill="#cbd5e1"/><rect x="256.934375" y="168.88117299663986" width="1" height="21.11882700336014" fill="#cbd5e1"/><rect x="257.5625" y="165.39089705732613" width="1" height="24.60910294267387" fill="#cbd5e1"/><rect x="258.190625" y="171.55646064555543" width="1" height="18.443539354444567" fill="#cbd5e1"/><rect x="258.81875" y="181.35403726708074" width="1" height="8.645962732919259" fill="#cbd5e1"/><rect x="259.446875" y="187.39558089807556" width="1" height="2.604419101924435" fill="#cbd5e1"/><rect x="260.075" y="188.91925465838509" width="1" height="1.0807453416149144" fill="#cbd5e1"/><rect x="260.703125" y="187.80307504327462" width="1" height="2.1969249567253826" fill="#cbd5e1"/><rect x="261.33125" y="180.52133183993485" width="1" height="9.478668160065155" fill="#cbd5e1"/><rect x="261.959375" y="170.5111495774361" width="1" height="19.4888504225639" fill="#cbd5e1"/><rect x="262.5875" y="164.20384889522452" width="1" height="25.796151104775475" fill="#cbd5e1"/><rect x="263.215625" y="163.47744628856532" width="1" height="26.522553711434682" fill="#cbd5e1"/><rect x="263.84375" y="169.2886671418389" width="1" height="20.711332858161086" fill="#cbd5e1"/><rect x="264.471875" y="171.6273291925466" width="1" height="18.372670807453403" fill="#cbd5e1"/><rect x="265.1" y="176.8007331228999" width="1" height="13.199266877100087" fill="#cbd5e1"/><rect x="265.728125" y="180.3264433357092" width="1" height="9.6735566642908" fill="#cbd5e1"/><rect x="266.35625" y="184.47225333469098" width="1" height="5.527746665309024" fill="#cbd5e1"/><rect x="266.984375" y="187.18297525710213" width="1" height="2.817024742897871" fill="#cbd5e1"/><rect x="267.6125" y="187.99796354750026" width="1" height="2.0020364524997376" fill="#cbd5e1"/><rect x="268.240625" y="188.84838611139395" width="1" height="1.1516138886060503" fill="#cbd5e1"/><rect x="268.86875" y="188.95468893188067" width="1" height="1.0453110681193323" fill="#cbd5e1"/><rect x="269.496875" y="189.0255574788718" width="1" height="0.9744425211281964" fill="#cbd5e1"/><rect x="270.125" y="189.3799002138275" width="1" height="0.6200997861724886" fill="#cbd5e1"/><rect x="270.753125" y="189.50392017106202" width="1" height="0.49607982893797953" fill="#cbd5e1"/><rect x="271.38125" y="189.66337440179208" width="1" height="0.3366255982079167" fill="#cbd5e1"/><rect x="272.009375" y="189.68109153853987" width="1" height="0.31890846146012564" fill="#cbd5e1"/><rect x="272.6375" y="189.55707158130537" width="1" height="0.44292841869463473" fill="#cbd5e1"/><rect x="273.265625" y="189.53935444455757" width="1" height="0.4606455554424258" fill="#cbd5e1"/><rect x="273.89375" y="189.46848589756644" width="1" height="0.5315141024335617" fill="#cbd5e1"/><rect x="274.521875" y="189.30903166683638" width="1" height="0.6909683331636245" fill="#cbd5e1"/><rect x="275.15" y="189.1495774361063" width="1" height="0.8504225638936873" fill="#cbd5e1"/><rect x="275.778125" y="188.95468893188067" width="1" height="1.0453110681193323" fill="#cbd5e1"/><rect x="276.40625" y="188.6357804704205" width="1" height="1.3642195295794863" fill="#cbd5e1"/><rect x="277.034375" y="188.3168720089604" width="1" height="1.683127991039612" fill="#cbd5e1"/><rect x="277.6625" y="187.99796354750026" width="1" height="2.0020364524997376" fill="#cbd5e1"/><rect x="278.290625" y="187.90937786376134" width="1" height="2.0906221362386646" fill="#cbd5e1"/><rect x="278.91875" y="188.40545769269931" width="1" height="1.594542307300685" fill="#cbd5e1"/><rect x="279.546875" y="188.99012320537622" width="1" height="1.0098767946237786" fill="#cbd5e1"/><rect x="280.175" y="189.50392017106202" width="1" height="0.49607982893797953" fill="#cbd5e1"/><rect x="280.803125" y="188.58262906017717" width="1" height="1.4173709398228311" fill="#cbd5e1"/><rect x="281.43125" y="186.88178393238977" width="1" height="3.118216067610234" fill="#cbd5e1"/><rect x="282.059375" y="183.4446594033194" width="1" height="6.555340596680594" fill="#cbd5e1"/><rect x="282.6875" y="182.64738824966906" width="1" height="7.3526117503309365" fill="#cbd5e1"/><rect x="283.315625" y="184.01160777924855" width="1" height="5.98839222075145" fill="#cbd5e1"/><rect x="283.94375" y="187.43101517157112" width="1" height="2.5689848284288814" fill="#cbd5e1"/><rect x="284.571875" y="188.93697179513288" width="1" height="1.0630282048671233" fill="#cbd5e1"/><rect x="285.2" y="189.0432746156196" width="1" height="0.9567253843804053" fill="#cbd5e1"/><rect x="285.828125" y="188.88382038488953" width="1" height="1.1161796151104681" fill="#cbd5e1"/><rect x="286.45625" y="189.06099175236739" width="1" height="0.9390082476326143" fill="#cbd5e1"/><rect x="287.084375" y="189.3799002138275" width="1" height="0.6200997861724886" fill="#cbd5e1"/><rect x="287.7125" y="189.78739435902656" width="1" height="0.21260564097343604" fill="#cbd5e1"/><rect x="288.340625" y="189.92913145300886" width="1" height="0.07086854699113587" fill="#cbd5e1"/><rect x="288.96875" y="189.89369717951328" width="1" height="0.10630282048671802" fill="#cbd5e1"/><rect x="289.596875" y="189.68109153853987" width="1" height="0.31890846146012564" fill="#cbd5e1"/><rect x="290.225" y="189.4153344873231" width="1" height="0.5846655126769065" fill="#cbd5e1"/><rect x="290.853125" y="189.20272884634966" width="1" height="0.7972711536503425" fill="#cbd5e1"/><rect x="291.48125" y="189.16729457285408" width="1" height="0.8327054271459247" fill="#cbd5e1"/><rect x="292.109375" y="189.34446594033193" width="1" height="0.6555340596680708" fill="#cbd5e1"/><rect x="292.7375" y="188.86610324814174" width="1" height="1.1338967518582592" fill="#cbd5e1"/><rect x="293.365625" y="188.74208329090723" width="1" height="1.2579167090927683" fill="#cbd5e1"/><rect x="293.99375" y="188.56491192342938" width="1" height="1.4350880765706222" fill="#cbd5e1"/><rect x="294.621875" y="187.80307504327462" width="1" height="2.1969249567253826" fill="#cbd5e1"/><rect x="295.25" y="187.20069239384992" width="1" height="2.79930760615008" fill="#cbd5e1"/><rect x="295.878125" y="186.864066795642" width="1" height="3.135933204357997" fill="#cbd5e1"/><rect x="296.50625" y="187.96252927400468" width="1" height="2.0374707259953198" fill="#cbd5e1"/><rect x="297.134375" y="188.75980042765502" width="1" height="1.2401995723449772" fill="#cbd5e1"/><rect x="297.7625" y="189.34446594033193" width="1" height="0.6555340596680708" fill="#cbd5e1"/><rect x="298.390625" y="189.7696772222788" width="1" height="0.2303227777211987" fill="#cbd5e1"/><rect x="299.01875" y="189.91141431626107" width="1" height="0.08858568373892695" fill="#cbd5e1"/><rect x="299.646875" y="189.92913145300886" width="1" height="0.07086854699113587" fill="#cbd5e1"/><rect x="300.275" y="189.8759800427655" width="1" height="0.12401995723450909" fill="#cbd5e1"/><rect x="300.903125" y="189.89369717951328" width="1" height="0.10630282048671802" fill="#cbd5e1"/><rect x="301.53125" y="189.89369717951328" width="1" height="0.10630282048671802" fill="#cbd5e1"/><rect x="302.159375" y="189.84054576926994" width="1" height="0.15945423073006282" fill="#cbd5e1"/><rect x="302.7875" y="189.751960085531" width="1" height="0.24803991446898976" fill="#cbd5e1"/><rect x="303.415625" y="189.46848589756644" width="1" height="0.5315141024335617" fill="#cbd5e1"/><rect x="304.04375" y="188.83066897464616" width="1" height="1.1693310253538414" fill="#cbd5e1"/><rect x="304.671875" y="186.65146115466857" width="1" height="3.348538845331433" fill="#cbd5e1"/><rect x="305.3" y="183.7990021382751" width="1" height="6.200997861724886" fill="#cbd5e1"/><rect x="305.928125" y="180.52133183993485" width="1" height="9.478668160065155" fill="#cbd5e1"/><rect x="306.55625" y="173.31045718358618" width="1" height="16.68954281641382" fill="#cbd5e1"/><rect x="307.184375" y="147.42572039507178" width="1" height="42.57427960492822" fill="#cbd5e1"/><rect x="307.8125" y="53.09968434986254" width="1" height="136.90031565013746" fill="#cbd5e1"/><rect x="308.440625" y="24.947154057631593" width="1" height="165.0528459423684" fill="#cbd5e1"/><rect x="309.06875" y="16" width="1" height="174" fill="#cbd5e1"/><rect x="309.696875" y="110.18429895122695" width="1" height="79.81570104877305" fill="#cbd5e1"/><rect x="310.325" y="147.08909479686386" width="1" height="42.91090520313614" fill="#cbd5e1"/><rect x="310.953125" y="184.25964769371754" width="1" height="5.74035230628246" fill="#cbd5e1"/><rect x="311.58125" y="188.26372059871704" width="1" height="1.7362794012829568" fill="#cbd5e1"/><rect x="312.209375" y="188.97240606862846" width="1" height="1.0275939313715412" fill="#cbd5e1"/><rect x="312.8375" y="189.7696772222788" width="1" height="0.2303227777211987" fill="#cbd5e1"/><rect x="313.465625" y="189.92913145300886" width="1" height="0.07086854699113587" fill="#cbd5e1"/><rect x="314.09375" y="189.92913145300886" width="1" height="0.07086854699113587" fill="#cbd5e1"/><rect x="314.721875" y="189.94684858975666" width="1" height="0.0531514102433448" fill="#cbd5e1"/><rect x="315.35" y="189.94684858975666" width="1" height="0.0531514102433448" fill="#cbd5e1"/><rect x="315.978125" y="189.9822828632522" width="1" height="0.017717136747791074" fill="#cbd5e1"/><rect x="316.60625" y="189.9822828632522" width="1" height="0.017717136747791074" fill="#cbd5e1"/><rect x="317.234375" y="189.94684858975666" width="1" height="0.0531514102433448" fill="#cbd5e1"/><rect x="317.8625" y="189.94684858975666" width="1" height="0.0531514102433448" fill="#cbd5e1"/><rect x="318.490625" y="189.96456572650442" width="1" height="0.03543427349558215" fill="#cbd5e1"/><rect x="319.11875" y="190" width="1" height="0" fill="#cbd5e1"/><rect x="319.746875" y="190" width="1" height="0" fill="#cbd5e1"/><rect x="320.375" y="189.89369717951328" width="1" height="0.10630282048671802" fill="#cbd5e1"/><rect x="321.003125" y="189.8759800427655" width="1" height="0.12401995723450909" fill="#cbd5e1"/><rect x="321.63125" y="189.85826290601773" width="1" height="0.14173709398227174" fill="#cbd5e1"/><rect x="322.259375" y="189.92913145300886" width="1" height="0.07086854699113587" fill="#cbd5e1"/><rect x="322.8875" y="189.94684858975666" width="1" height="0.0531514102433448" fill="#cbd5e1"/><rect x="323.515625" y="189.91141431626107" width="1" height="0.08858568373892695" fill="#cbd5e1"/><rect x="324.14375" y="189.94684858975666" width="1" height="0.0531514102433448" fill="#cbd5e1"/><rect x="324.771875" y="189.92913145300886" width="1" height="0.07086854699113587" fill="#cbd5e1"/><rect x="325.4" y="189.9822828632522" width="1" height="0.017717136747791074" fill="#cbd5e1"/><rect x="326.028125" y="189.9822828632522" width="1" height="0.017717136747791074" fill="#cbd5e1"/><rect x="326.65625" y="189.9822828632522" width="1" height="0.017717136747791074" fill="#cbd5e1"/><rect x="327.284375" y="189.9822828632522" width="1" height="0.017717136747791074" fill="#cbd5e1"/><rect x="327.9125" y="189.96456572650442" width="1" height="0.03543427349558215" fill="#cbd5e1"/><rect x="328.540625" y="189.9822828632522" width="1" height="0.017717136747791074" fill="#cbd5e1"/><rect x="329.16875" y="189.96456572650442" width="1" height="0.03543427349558215" fill="#cbd5e1"/><rect x="329.796875" y="189.92913145300886" width="1" height="0.07086854699113587" fill="#cbd5e1"/><rect x="330.425" y="189.92913145300886" width="1" height="0.07086854699113587" fill="#cbd5e1"/><rect x="331.053125" y="189.73424294878322" width="1" height="0.26575705121678084" fill="#cbd5e1"/><rect x="331.68125" y="189.43305162407086" width="1" height="0.5669483759291438" fill="#cbd5e1"/><rect x="332.309375" y="189.32674880358417" width="1" height="0.6732511964158334" fill="#cbd5e1"/><rect x="332.9375" y="189.52163730780978" width="1" height="0.4783626921902169" fill="#cbd5e1"/><rect x="333.565625" y="189.8759800427655" width="1" height="0.12401995723450909" fill="#cbd5e1"/><rect x="334.19375" y="189.9822828632522" width="1" height="0.017717136747791074" fill="#cbd5e1"/><rect x="334.821875" y="190" width="1" height="0" fill="#cbd5e1"/><rect x="335.45" y="190" width="1" height="0" fill="#cbd5e1"/><rect x="336.078125" y="190" width="1" height="0" fill="#cbd5e1"/><rect x="336.70625" y="190" width="1" height="0" fill="#cbd5e1"/><rect x="337.334375" y="189.9822828632522" width="1" height="0.017717136747791074" fill="#cbd5e1"/><rect x="337.9625" y="189.9822828632522" width="1" height="0.017717136747791074" fill="#cbd5e1"/><rect x="338.590625" y="189.9822828632522" width="1" height="0.017717136747791074" fill="#cbd5e1"/><rect x="339.21875" y="190" width="1" height="0" fill="#cbd5e1"/><rect x="339.846875" y="190" width="1" height="0" fill="#cbd5e1"/><rect x="340.475" y="190" width="1" height="0" fill="#cbd5e1"/><rect x="341.103125" y="189.9822828632522" width="1" height="0.017717136747791074" fill="#cbd5e1"/><rect x="341.73125" y="189.9822828632522" width="1" height="0.017717136747791074" fill="#cbd5e1"/><rect x="342.359375" y="189.9822828632522" width="1" height="0.017717136747791074" fill="#cbd5e1"/><rect x="342.9875" y="190" width="1" height="0" fill="#cbd5e1"/><rect x="343.615625" y="190" width="1" height="0" fill="#cbd5e1"/><rect x="344.24375" y="190" width="1" height="0" fill="#cbd5e1"/><rect x="344.871875" y="190" width="1" height="0" fill="#cbd5e1"/><rect x="345.5" y="190" width="1" height="0" fill="#cbd5e1"/><rect x="346.128125" y="190" width="1" height="0" fill="#cbd5e1"/><rect x="346.75625" y="190" width="1" height="0" fill="#cbd5e1"/><rect x="347.384375" y="190" width="1" height="0" fill="#cbd5e1"/><rect x="348.0125" y="190" width="1" height="0" fill="#cbd5e1"/><rect x="348.640625" y="190" width="1" height="0" fill="#cbd5e1"/><rect x="349.26875" y="190" width="1" height="0" fill="#cbd5e1"/><rect x="349.896875" y="190" width="1" height="0" fill="#cbd5e1"/><rect x="350.525" y="190" width="1" height="0" fill="#cbd5e1"/><rect x="351.153125" y="190" width="1" height="0" fill="#cbd5e1"/><rect x="351.78125" y="190" width="1" height="0" fill="#cbd5e1"/><rect x="352.409375" y="190" width="1" height="0" fill="#cbd5e1"/><rect x="353.0375" y="190" width="1" height="0" fill="#cbd5e1"/><rect x="353.665625" y="190" width="1" height="0" fill="#cbd5e1"/><rect x="354.29375" y="190" width="1" height="0" fill="#cbd5e1"/><rect x="354.921875" y="190" width="1" height="0" fill="#cbd5e1"/><rect x="355.55" y="190" width="1" height="0" fill="#cbd5e1"/><rect x="356.178125" y="190" width="1" height="0" fill="#cbd5e1"/><rect x="356.80625" y="190" width="1" height="0" fill="#cbd5e1"/><rect x="357.434375" y="190" width="1" height="0" fill="#cbd5e1"/><rect x="358.0625" y="189.9822828632522" width="1" height="0.017717136747791074" fill="#cbd5e1"/><rect x="358.690625" y="189.9822828632522" width="1" height="0.017717136747791074" fill="#cbd5e1"/><rect x="359.31875" y="189.96456572650442" width="1" height="0.03543427349558215" fill="#cbd5e1"/><rect x="359.946875" y="189.9822828632522" width="1" height="0.017717136747791074" fill="#cbd5e1"/><rect x="360.575" y="189.9822828632522" width="1" height="0.017717136747791074" fill="#cbd5e1"/><rect x="361.203125" y="190" width="1" height="0" fill="#cbd5e1"/><rect x="361.83125" y="190" width="1" height="0" fill="#cbd5e1"/><rect x="362.459375" y="190" width="1" height="0" fill="#cbd5e1"/><rect x="363.0875" y="190" width="1" height="0" fill="#cbd5e1"/><rect x="363.715625" y="190" width="1" height="0" fill="#cbd5e1"/><rect x="364.34375" y="190" width="1" height="0" fill="#cbd5e1"/><rect x="364.971875" y="190" width="1" height="0" fill="#cbd5e1"/><rect x="365.6" y="189.96456572650442" width="1" height="0.03543427349558215" fill="#cbd5e1"/><rect x="366.228125" y="189.96456572650442" width="1" height="0.03543427349558215" fill="#cbd5e1"/><rect x="366.85625" y="189.96456572650442" width="1" height="0.03543427349558215" fill="#cbd5e1"/><rect x="367.484375" y="190" width="1" height="0" fill="#cbd5e1"/><rect x="368.1125" y="190" width="1" height="0" fill="#cbd5e1"/><rect x="368.740625" y="190" width="1" height="0" fill="#cbd5e1"/><rect x="369.36875" y="189.9822828632522" width="1" height="0.017717136747791074" fill="#cbd5e1"/><rect x="369.996875" y="189.96456572650442" width="1" height="0.03543427349558215" fill="#cbd5e1"/><rect x="370.625" y="189.96456572650442" width="1" height="0.03543427349558215" fill="#cbd5e1"/><rect x="371.253125" y="189.9822828632522" width="1" height="0.017717136747791074" fill="#cbd5e1"/><rect x="371.88125" y="189.9822828632522" width="1" height="0.017717136747791074" fill="#cbd5e1"/><rect x="372.509375" y="189.9822828632522" width="1" height="0.017717136747791074" fill="#cbd5e1"/><rect x="373.1375" y="189.9822828632522" width="1" height="0.017717136747791074" fill="#cbd5e1"/><rect x="373.765625" y="190" width="1" height="0" fill="#cbd5e1"/><rect x="374.39375" y="190" width="1" height="0" fill="#cbd5e1"/><rect x="375.021875" y="190" width="1" height="0" fill="#cbd5e1"/><rect x="375.65" y="190" width="1" height="0" fill="#cbd5e1"/><rect x="376.278125" y="189.9822828632522" width="1" height="0.017717136747791074" fill="#cbd5e1"/><rect x="376.90625" y="189.9822828632522" width="1" height="0.017717136747791074" fill="#cbd5e1"/><rect x="377.534375" y="189.9822828632522" width="1" height="0.017717136747791074" fill="#cbd5e1"/><rect x="378.1625" y="190" width="1" height="0" fill="#cbd5e1"/><rect x="378.790625" y="190" width="1" height="0" fill="#cbd5e1"/><rect x="379.41875" y="190" width="1" height="0" fill="#cbd5e1"/><rect x="380.046875" y="190" width="1" height="0" fill="#cbd5e1"/><rect x="380.675" y="189.9822828632522" width="1" height="0.017717136747791074" fill="#cbd5e1"/><rect x="381.303125" y="189.9822828632522" width="1" height="0.017717136747791074" fill="#cbd5e1"/><rect x="381.93125" y="189.9822828632522" width="1" height="0.017717136747791074" fill="#cbd5e1"/><rect x="382.559375" y="190" width="1" height="0" fill="#cbd5e1"/><rect x="383.1875" y="190" width="1" height="0" fill="#cbd5e1"/><rect x="383.815625" y="190" width="1" height="0" fill="#cbd5e1"/><rect x="384.44375" y="190" width="1" height="0" fill="#cbd5e1"/><rect x="385.071875" y="190" width="1" height="0" fill="#cbd5e1"/><rect x="385.7" y="190" width="1" height="0" fill="#cbd5e1"/><rect x="386.328125" y="189.9822828632522" width="1" height="0.017717136747791074" fill="#cbd5e1"/><rect x="386.95625" y="189.9822828632522" width="1" height="0.017717136747791074" fill="#cbd5e1"/><rect x="387.584375" y="189.9822828632522" width="1" height="0.017717136747791074" fill="#cbd5e1"/><rect x="388.2125" y="189.9822828632522" width="1" height="0.017717136747791074" fill="#cbd5e1"/><rect x="388.840625" y="189.94684858975666" width="1" height="0.0531514102433448" fill="#cbd5e1"/><rect x="389.46875" y="189.92913145300886" width="1" height="0.07086854699113587" fill="#cbd5e1"/><rect x="390.096875" y="189.94684858975666" width="1" height="0.0531514102433448" fill="#cbd5e1"/><rect x="390.725" y="189.9822828632522" width="1" height="0.017717136747791074" fill="#cbd5e1"/><rect x="391.353125" y="189.96456572650442" width="1" height="0.03543427349558215" fill="#cbd5e1"/><rect x="391.98125" y="189.96456572650442" width="1" height="0.03543427349558215" fill="#cbd5e1"/><rect x="392.609375" y="189.96456572650442" width="1" height="0.03543427349558215" fill="#cbd5e1"/><rect x="393.2375" y="190" width="1" height="0" fill="#cbd5e1"/><rect x="393.865625" y="190" width="1" height="0" fill="#cbd5e1"/><rect x="394.49375" y="189.9822828632522" width="1" height="0.017717136747791074" fill="#cbd5e1"/><rect x="395.121875" y="189.9822828632522" width="1" height="0.017717136747791074" fill="#cbd5e1"/><rect x="395.75" y="189.96456572650442" width="1" height="0.03543427349558215" fill="#cbd5e1"/><rect x="396.378125" y="189.96456572650442" width="1" height="0.03543427349558215" fill="#cbd5e1"/><rect x="397.00625" y="189.96456572650442" width="1" height="0.03543427349558215" fill="#cbd5e1"/><rect x="397.634375" y="189.9822828632522" width="1" height="0.017717136747791074" fill="#cbd5e1"/><rect x="398.2625" y="190" width="1" height="0" fill="#cbd5e1"/><rect x="398.890625" y="190" width="1" height="0" fill="#cbd5e1"/><rect x="399.51875" y="190" width="1" height="0" fill="#cbd5e1"/><rect x="400.146875" y="190" width="1" height="0" fill="#cbd5e1"/><rect x="400.775" y="190" width="1" height="0" fill="#cbd5e1"/><rect x="401.403125" y="190" width="1" height="0" fill="#cbd5e1"/><rect x="402.03125" y="189.9822828632522" width="1" height="0.017717136747791074" fill="#cbd5e1"/><rect x="402.659375" y="189.96456572650442" width="1" height="0.03543427349558215" fill="#cbd5e1"/><rect x="403.2875" y="189.94684858975666" width="1" height="0.0531514102433448" fill="#cbd5e1"/><rect x="403.915625" y="189.91141431626107" width="1" height="0.08858568373892695" fill="#cbd5e1"/><rect x="404.54375" y="189.91141431626107" width="1" height="0.08858568373892695" fill="#cbd5e1"/><rect x="405.171875" y="189.89369717951328" width="1" height="0.10630282048671802" fill="#cbd5e1"/><rect x="405.8" y="189.92913145300886" width="1" height="0.07086854699113587" fill="#cbd5e1"/><rect x="406.428125" y="189.94684858975666" width="1" height="0.0531514102433448" fill="#cbd5e1"/><rect x="407.05625" y="189.9822828632522" width="1" height="0.017717136747791074" fill="#cbd5e1"/><rect x="407.684375" y="190" width="1" height="0" fill="#cbd5e1"/><rect x="408.3125" y="190" width="1" height="0" fill="#cbd5e1"/><rect x="408.940625" y="190" width="1" height="0" fill="#cbd5e1"/><rect x="409.56875" y="189.9822828632522" width="1" height="0.017717136747791074" fill="#cbd5e1"/><rect x="410.196875" y="189.9822828632522" width="1" height="0.017717136747791074" fill="#cbd5e1"/><rect x="410.825" y="189.9822828632522" width="1" height="0.017717136747791074" fill="#cbd5e1"/><rect x="411.453125" y="190" width="1" height="0" fill="#cbd5e1"/><rect x="412.08125" y="190" width="1" height="0" fill="#cbd5e1"/><rect x="412.709375" y="190" width="1" height="0" fill="#cbd5e1"/><rect x="413.3375" y="190" width="1" height="0" fill="#cbd5e1"/><rect x="413.965625" y="190" width="1" height="0" fill="#cbd5e1"/><rect x="414.59375" y="190" width="1" height="0" fill="#cbd5e1"/><rect x="415.221875" y="190" width="1" height="0" fill="#cbd5e1"/><rect x="415.85" y="190" width="1" height="0" fill="#cbd5e1"/><rect x="416.478125" y="190" width="1" height="0" fill="#cbd5e1"/><rect x="417.10625" y="190" width="1" height="0" fill="#cbd5e1"/><rect x="417.734375" y="190" width="1" height="0" fill="#cbd5e1"/><rect x="418.3625" y="189.96456572650442" width="1" height="0.03543427349558215" fill="#cbd5e1"/><rect x="418.990625" y="189.94684858975666" width="1" height="0.0531514102433448" fill="#cbd5e1"/><rect x="419.61875" y="189.94684858975666" width="1" height="0.0531514102433448" fill="#cbd5e1"/><rect x="420.246875" y="189.9822828632522" width="1" height="0.017717136747791074" fill="#cbd5e1"/><rect x="420.875" y="190" width="1" height="0" fill="#cbd5e1"/><rect x="421.503125" y="190" width="1" height="0" fill="#cbd5e1"/><rect x="422.13125" y="190" width="1" height="0" fill="#cbd5e1"/><rect x="422.759375" y="190" width="1" height="0" fill="#cbd5e1"/><rect x="423.3875" y="190" width="1" height="0" fill="#cbd5e1"/><rect x="424.015625" y="190" width="1" height="0" fill="#cbd5e1"/><rect x="424.64375" y="190" width="1" height="0" fill="#cbd5e1"/><rect x="425.271875" y="190" width="1" height="0" fill="#cbd5e1"/><rect x="425.9" y="190" width="1" height="0" fill="#cbd5e1"/><rect x="426.528125" y="190" width="1" height="0" fill="#cbd5e1"/><rect x="427.15625" y="190" width="1" height="0" fill="#cbd5e1"/><rect x="427.784375" y="190" width="1" height="0" fill="#cbd5e1"/><rect x="428.4125" y="190" width="1" height="0" fill="#cbd5e1"/><rect x="429.040625" y="190" width="1" height="0" fill="#cbd5e1"/><rect x="429.66875" y="190" width="1" height="0" fill="#cbd5e1"/><rect x="430.296875" y="190" width="1" height="0" fill="#cbd5e1"/><rect x="430.925" y="190" width="1" height="0" fill="#cbd5e1"/><rect x="431.553125" y="190" width="1" height="0" fill="#cbd5e1"/><rect x="432.18125" y="190" width="1" height="0" fill="#cbd5e1"/><rect x="432.809375" y="189.9822828632522" width="1" height="0.017717136747791074" fill="#cbd5e1"/><rect x="433.4375" y="189.9822828632522" width="1" height="0.017717136747791074" fill="#cbd5e1"/><rect x="434.065625" y="189.9822828632522" width="1" height="0.017717136747791074" fill="#cbd5e1"/><rect x="434.69375" y="190" width="1" height="0" fill="#cbd5e1"/><rect x="435.321875" y="190" width="1" height="0" fill="#cbd5e1"/><rect x="435.95" y="190" width="1" height="0" fill="#cbd5e1"/><rect x="436.578125" y="189.9822828632522" width="1" height="0.017717136747791074" fill="#cbd5e1"/><rect x="437.20625" y="189.9822828632522" width="1" height="0.017717136747791074" fill="#cbd5e1"/><rect x="437.834375" y="189.94684858975666" width="1" height="0.0531514102433448" fill="#cbd5e1"/><rect x="438.4625" y="189.94684858975666" width="1" height="0.0531514102433448" fill="#cbd5e1"/><rect x="439.090625" y="189.94684858975666" width="1" height="0.0531514102433448" fill="#cbd5e1"/><rect x="439.71875" y="189.96456572650442" width="1" height="0.03543427349558215" fill="#cbd5e1"/><rect x="440.346875" y="189.9822828632522" width="1" height="0.017717136747791074" fill="#cbd5e1"/><rect x="440.975" y="189.9822828632522" width="1" height="0.017717136747791074" fill="#cbd5e1"/><rect x="441.603125" y="190" width="1" height="0" fill="#cbd5e1"/><rect x="442.23125" y="190" width="1" height="0" fill="#cbd5e1"/><rect x="442.859375" y="190" width="1" height="0" fill="#cbd5e1"/><rect x="443.4875" y="189.9822828632522" width="1" height="0.017717136747791074" fill="#cbd5e1"/><rect x="444.115625" y="189.9822828632522" width="1" height="0.017717136747791074" fill="#cbd5e1"/><rect x="444.74375" y="189.96456572650442" width="1" height="0.03543427349558215" fill="#cbd5e1"/><rect x="445.371875" y="189.9822828632522" width="1" height="0.017717136747791074" fill="#cbd5e1"/><rect x="446" y="189.97342429487833" width="1" height="0.0265757051216724" fill="#cbd5e1"/><circle cx="243.74375" cy="83.67946237654006" r="3" fill="#A40194" stroke="#fff" stroke-width="1"/><circle cx="250.653125" cy="185.7833214540271" r="3" fill="#A40194" stroke="#fff" stroke-width="1"/><circle cx="257.5625" cy="165.39089705732613" r="3" fill="#A40194" stroke="#fff" stroke-width="1"/><circle cx="263.215625" cy="163.47744628856532" r="3" fill="#A40194" stroke="#fff" stroke-width="1"/><circle cx="282.6875" cy="182.64738824966906" r="3" fill="#A40194" stroke="#fff" stroke-width="1"/><circle cx="309.06875" cy="16" r="3" fill="#A40194" stroke="#fff" stroke-width="1"/><line x1="169.625" y1="16" x2="169.625" y2="190" stroke="#A40194" stroke-width="1" opacity="0.6"/><line x1="320.375" y1="16" x2="320.375" y2="190" stroke="#A40194" stroke-width="1" opacity="0.6"/><line x1="44" y1="190" x2="446" y2="190" stroke="#cbd5e1"/><text x="245" y="222" text-anchor="middle" font-size="11" fill="#475569">window (5′ → 3′): flank — gene — flank</text><text transform="translate(14,103) rotate(-90)" text-anchor="middle" font-size="10.5" fill="#475569">smoothed events</text></svg></svg>