<svg xmlns="http://www.w3.org/2000/svg" viewBox="0 0 762 740" width="762" height="740"><svg id="compare-scatter" width="762" height="480" x="0" y="0" viewBox="0 0 762 480"><defs><style>text{font-family:ui-sans-serif,system-ui;font-size:11px;fill:#64748b}</style></defs><g transform="translate(60,24)"><g transform="translate(0,386)"><line x1="0" x2="672" stroke="#eef2f7"/><text x="-9" y="3" text-anchor="end" fill="#94a3b8">0</text></g><g transform="translate(0,375.56466260749556)"><line x1="0" x2="672" stroke="#eef2f7"/><text x="-9" y="3" text-anchor="end" fill="#94a3b8">1</text></g><g transform="translate(0,333.82331303747776)"><line x1="0" x2="672" stroke="#eef2f7"/><text x="-9" y="3" text-anchor="end" fill="#94a3b8">5</text></g><g transform="translate(0,281.6466260749555)"><line x1="0" x2="672" stroke="#eef2f7"/><text x="-9" y="3" text-anchor="end" fill="#94a3b8">10</text></g><g transform="translate(0,240.12024355026693)"><line x1="0" x2="672" stroke="#eef2f7"/><text x="-9" y="3" text-anchor="end" fill="#94a3b8">25</text></g><g transform="translate(0,208.70674785008896)"><line x1="0" x2="672" stroke="#eef2f7"/><text x="-9" y="3" text-anchor="end" fill="#94a3b8">50</text></g><g transform="translate(0,177.29325214991104)"><line x1="0" x2="672" stroke="#eef2f7"/><text x="-9" y="3" text-anchor="end" fill="#94a3b8">100</text></g><g transform="translate(0,135.76686962522245)"><line x1="0" x2="672" stroke="#eef2f7"/><text x="-9" y="3" text-anchor="end" fill="#94a3b8">250</text></g><g transform="translate(0,104.35337392504448)"><line x1="0" x2="672" stroke="#eef2f7"/><text x="-9" y="3" text-anchor="end" fill="#94a3b8">500</text></g><g transform="translate(0,72.9398782248665)"><line x1="0" x2="672" stroke="#eef2f7"/><text x="-9" y="3" text-anchor="end" fill="#94a3b8">1000</text></g><g transform="translate(0,31.41349570017792)"><line x1="0" x2="672" stroke="#eef2f7"/><text x="-9" y="3" text-anchor="end" fill="#94a3b8">2500</text></g><g transform="translate(0,0)"><line x1="0" x2="672" stroke="#eef2f7"/><text x="-9" y="3" text-anchor="end" fill="#94a3b8">5000</text></g><text transform="translate(-46,193) rotate(-90)" text-anchor="middle" fill="#64748b">Odds ratio (symlog)</text><g><line x1="84" y1="0" x2="84" y2="386" stroke="#cbd5e1" stroke-dasharray="3 4"/><circle cx="77" cy="165.35027574884055" r="40.193283020922784" fill="#fff" stroke="#0C0C0C" stroke-width="2"/><circle cx="78.16666666666667" cy="158.1869731956448" r="33.741665637605976" fill="#fff" stroke="#76AAD7" stroke-width="2"/><circle cx="79.33333333333333" cy="283.21024347116185" r="27.577164466275352" fill="#fff" stroke="#82F778" stroke-width="2"/><circle cx="80.5" cy="279.26546353360976" r="25.98076211353316" fill="#fff" stroke="#F78208" stroke-width="2"/><circle cx="81.66666666666667" cy="231.98838340623215" r="23.622023622035435" fill="#fff" stroke="#F78208" stroke-width="2"/><circle cx="82.83333333333333" cy="267.2035496314142" r="20.89258241577618" fill="#fff" stroke="#F78208" stroke-width="2"/><circle cx="84" cy="190.4712702947435" r="20.784609690826528" fill="#fff" stroke="#F78208" stroke-width="2"/><circle cx="85.16666666666667" cy="273.9922253051718" r="16.970562748477143" fill="#fff" stroke="#F78208" stroke-width="2"/><circle cx="86.33333333333333" cy="249.96195359292838" r="16.837458240482736" fill="#fff" stroke="#F78208" stroke-width="2"/><circle cx="87.5" cy="344.58372942879384" r="16.635804759614125" fill="#fff" stroke="#F78208" stroke-width="2"/><circle cx="88.66666666666667" cy="355.1653889886918" r="15.945218719101975" fill="#fff" stroke="#F78208" stroke-width="2"/><circle cx="89.83333333333333" cy="359.54535961298797" r="15.803480629279107" fill="#fff" stroke="#F78208" stroke-width="2"/><circle cx="91" cy="342.79616384640156" r="15.516120649182902" fill="#fff" stroke="#A40194" stroke-width="2"/><circle cx="77" cy="264.9710353831371" r="15.443445211480501" fill="#fff" stroke="#F78208" stroke-width="2"/><circle cx="78.16666666666667" cy="171.49477998815263" r="15.297058540778353" fill="#fff" stroke="#0C0C0C" stroke-width="2"/><circle cx="79.33333333333333" cy="323.2078186614491" r="15.074813431681335" fill="#fff" stroke="#F78208" stroke-width="2"/><circle cx="80.5" cy="253.7692995747164" r="14.773286702694156" fill="#fff" stroke="#F78208" stroke-width="2"/><circle cx="81.66666666666667" cy="202.8651706342" r="14.543039572248988" fill="#fff" stroke="#76AAD7" stroke-width="2"/><circle cx="82.83333333333333" cy="167.76434632133456" r="14.465476141489432" fill="#fff" stroke="#76AAD7" stroke-width="2"/><circle cx="84" cy="187.58450582593272" r="14.387494569938157" fill="#fff" stroke="#F78208" stroke-width="2"/><circle cx="85.16666666666667" cy="349.89712981898447" r="13.991068579633223" fill="#fff" stroke="#F78208" stroke-width="2"/><circle cx="86.33333333333333" cy="305.59970711589347" r="13.82931668593933" fill="#fff" stroke="#F78208" stroke-width="2"/><circle cx="87.5" cy="219.24818557952827" r="13.74772708486752" fill="#fff" stroke="#F78208" stroke-width="2"/><circle cx="88.66666666666667" cy="233.1773964893806" r="13.665650368716449" fill="#fff" stroke="#76AAD7" stroke-width="2"/><circle cx="89.83333333333333" cy="361.33286015355" r="13.665650368716449" fill="#fff" stroke="#A40194" stroke-width="2"/><circle cx="91" cy="227.37512267840245" r="13.332291625973383" fill="#fff" stroke="#F78208" stroke-width="2"/><circle cx="77" cy="217.96632856942816" r="12.99038105676658" fill="#fff" stroke="#F78208" stroke-width="2"/><circle cx="78.16666666666667" cy="238.23988940460538" r="12.90348790056394" fill="#fff" stroke="#F78208" stroke-width="2"/><circle cx="79.33333333333333" cy="225.89730395510298" r="12.549900398011133" fill="#fff" stroke="#F78208" stroke-width="2"/><circle cx="80.5" cy="226.86318051346683" r="12.278029157808675" fill="#fff" stroke="#76AAD7" stroke-width="2"/><circle cx="81.66666666666667" cy="166.72713662585295" r="12.186057606953941" fill="#fff" stroke="#0C0C0C" stroke-width="2"/><circle cx="82.83333333333333" cy="336.97431022407244" r="12.093386622447824" fill="#fff" stroke="#F78208" stroke-width="2"/><circle cx="84" cy="323.98534249822046" r="11.715374513859981" fill="#fff" stroke="#F78208" stroke-width="2"/><circle cx="85.16666666666667" cy="250.276423069603" r="11.715374513859981" fill="#fff" stroke="#F78208" stroke-width="2"/><circle cx="86.33333333333333" cy="273.72884361303034" r="11.521718621802911" fill="#fff" stroke="#F78208" stroke-width="2"/><circle cx="87.5" cy="319.2813201896327" r="11.423659658795863" fill="#fff" stroke="#F78208" stroke-width="2"/><circle cx="88.66666666666667" cy="240.78424347263294" r="11.324751652906125" fill="#fff" stroke="#F78208" stroke-width="2"/><circle cx="89.83333333333333" cy="302.4637893230006" r="11.324751652906125" fill="#fff" stroke="#F78208" stroke-width="2"/><circle cx="91" cy="267.2717430673348" r="10.816653826391967" fill="#fff" stroke="#F78208" stroke-width="2"/><circle cx="77" cy="281.86698554720573" r="10.816653826391967" fill="#fff" stroke="#F78208" stroke-width="2"/><circle cx="78.16666666666667" cy="382.39240071685623" r="10.816653826391967" fill="#fff" stroke="#F78208" stroke-width="2"/><circle cx="79.33333333333333" cy="347.0073730582999" r="10.392304845413264" fill="#fff" stroke="#F78208" stroke-width="2"/><circle cx="80.5" cy="328.1216949036833" r="10.173494974687902" fill="#fff" stroke="#F78208" stroke-width="2"/><circle cx="81.66666666666667" cy="338.93046141359537" r="10.062305898749054" fill="#fff" stroke="#F78208" stroke-width="2"/><circle cx="82.83333333333333" cy="383.33109286840994" r="10.062305898749054" fill="#fff" stroke="#F78208" stroke-width="2"/><circle cx="84" cy="164.57092599441282" r="9.9498743710662" fill="#fff" stroke="#0C0C0C" stroke-width="2"/><circle cx="85.16666666666667" cy="301.8709215130597" r="9.836157786453" fill="#fff" stroke="#F78208" stroke-width="2"/><circle cx="86.33333333333333" cy="242.57869712312473" r="9.836157786453" fill="#fff" stroke="#76AAD7" stroke-width="2"/><circle cx="87.5" cy="306.2359011601929" r="9.72111104761179" fill="#fff" stroke="#F78208" stroke-width="2"/><circle cx="88.66666666666667" cy="380.81471182267404" r="9.72111104761179" fill="#fff" stroke="#F78208" stroke-width="2"/><circle cx="89.83333333333333" cy="271.90179178145024" r="9.604686356149273" fill="#fff" stroke="#F78208" stroke-width="2"/><circle cx="91" cy="376.6247337671813" r="9.604686356149273" fill="#fff" stroke="#F78208" stroke-width="2"/><circle cx="77" cy="303.1828428762312" r="9.367496997597598" fill="#fff" stroke="#F78208" stroke-width="2"/><circle cx="78.16666666666667" cy="326.0892837174826" r="9.367496997597598" fill="#fff" stroke="#76AAD7" stroke-width="2"/><circle cx="79.33333333333333" cy="368.950040270514" r="9.246621004453464" fill="#fff" stroke="#F78208" stroke-width="2"/><circle cx="80.5" cy="272.2699027227914" r="9.246621004453464" fill="#fff" stroke="#F78208" stroke-width="2"/><circle cx="81.66666666666667" cy="367.237248845908" r="9" fill="#fff" stroke="#F78208" stroke-width="2"/><circle cx="82.83333333333333" cy="376.6216874917791" r="9" fill="#fff" stroke="#F78208" stroke-width="2"/><circle cx="84" cy="260.8767666333325" r="9" fill="#fff" stroke="#F78208" stroke-width="2"/><circle cx="85.16666666666667" cy="328.90841974134855" r="8.874119674649425" fill="#fff" stroke="#F78208" stroke-width="2"/><circle cx="86.33333333333333" cy="338.1332727013125" r="8.874119674649425" fill="#fff" stroke="#F78208" stroke-width="2"/><circle cx="87.5" cy="365.4114232246597" r="8.746427842267952" fill="#fff" stroke="#F78208" stroke-width="2"/><circle cx="88.66666666666667" cy="366.2553162934036" r="8.746427842267952" fill="#fff" stroke="#F78208" stroke-width="2"/><circle cx="89.83333333333333" cy="371.0067234177357" r="8.746427842267952" fill="#fff" stroke="#F78208" stroke-width="2"/><circle cx="91" cy="376.4261122708911" r="8.746427842267952" fill="#fff" stroke="#F78208" stroke-width="2"/><circle cx="77" cy="272.5360102225515" r="8.746427842267952" fill="#fff" stroke="#F78208" stroke-width="2"/><circle cx="78.16666666666667" cy="331.053396666129" r="8.746427842267952" fill="#fff" stroke="#82F778" stroke-width="2"/><circle cx="79.33333333333333" cy="262.78143311854683" r="8.616843969807043" fill="#fff" stroke="#F78208" stroke-width="2"/><circle cx="80.5" cy="235.58047656680625" r="8.616843969807043" fill="#fff" stroke="#F78208" stroke-width="2"/><circle cx="81.66666666666667" cy="357.45914668979464" r="8.616843969807043" fill="#fff" stroke="#F78208" stroke-width="2"/><circle cx="82.83333333333333" cy="317.61262240776944" r="8.616843969807043" fill="#fff" stroke="#F78208" stroke-width="2"/><circle cx="84" cy="371.6700661396759" r="8.485281374238571" fill="#fff" stroke="#82F778" stroke-width="2"/><circle cx="85.16666666666667" cy="252.64211989554565" r="8.485281374238571" fill="#fff" stroke="#F78208" stroke-width="2"/><circle cx="86.33333333333333" cy="198.19958187975925" r="8.485281374238571" fill="#fff" stroke="#0C0C0C" stroke-width="2"/><circle cx="87.5" cy="282.2152626326481" r="8.351646544245032" fill="#fff" stroke="#F78208" stroke-width="2"/><circle cx="88.66666666666667" cy="377.5307435929839" r="8.351646544245032" fill="#fff" stroke="#F78208" stroke-width="2"/><circle cx="89.83333333333333" cy="372.0723678019729" r="8.351646544245032" fill="#fff" stroke="#F78208" stroke-width="2"/><circle cx="91" cy="322.51704897224363" r="8.351646544245032" fill="#fff" stroke="#F78208" stroke-width="2"/><circle cx="77" cy="339.90122645787807" r="8.351646544245032" fill="#fff" stroke="#F78208" stroke-width="2"/><circle cx="78.16666666666667" cy="225.16558374886145" r="8.215838362577491" fill="#fff" stroke="#F78208" stroke-width="2"/><circle cx="79.33333333333333" cy="187.008847372183" r="8.215838362577491" fill="#fff" stroke="#76AAD7" stroke-width="2"/><circle cx="80.5" cy="376.68851504064827" r="8.215838362577491" fill="#fff" stroke="#F78208" stroke-width="2"/><circle cx="81.66666666666667" cy="320.64389282854063" r="8.215838362577491" fill="#fff" stroke="#F78208" stroke-width="2"/><circle cx="82.83333333333333" cy="342.6192827088728" r="8.077747210701755" fill="#fff" stroke="#F78208" stroke-width="2"/><circle cx="84" cy="276.21990671284726" r="8.077747210701755" fill="#fff" stroke="#F78208" stroke-width="2"/><circle cx="85.16666666666667" cy="163.4564467558382" r="7.937253933193772" fill="#fff" stroke="#76AAD7" stroke-width="2"/><circle cx="86.33333333333333" cy="249.31796956792195" r="7.937253933193772" fill="#fff" stroke="#F78208" stroke-width="2"/><circle cx="87.5" cy="356.0508336843455" r="7.937253933193772" fill="#fff" stroke="#A40194" stroke-width="2"/><circle cx="88.66666666666667" cy="360.6434413419274" r="7.937253933193772" fill="#fff" stroke="#F78208" stroke-width="2"/><circle cx="89.83333333333333" cy="257.3906721863585" r="7.937253933193772" fill="#fff" stroke="#F78208" stroke-width="2"/><circle cx="91" cy="196.4826678646748" r="7.937253933193772" fill="#fff" stroke="#76AAD7" stroke-width="2"/><circle cx="77" cy="228.9167255335751" r="7.794228634059948" fill="#fff" stroke="#76AAD7" stroke-width="2"/><circle cx="78.16666666666667" cy="362.31833740492635" r="7.794228634059948" fill="#fff" stroke="#82F778" stroke-width="2"/><circle cx="79.33333333333333" cy="346.4043739867838" r="7.794228634059948" fill="#fff" stroke="#F78208" stroke-width="2"/><circle cx="80.5" cy="349.69779016083965" r="7.794228634059948" fill="#fff" stroke="#76AAD7" stroke-width="2"/><circle cx="81.66666666666667" cy="275.8969007203094" r="7.794228634059948" fill="#fff" stroke="#F78208" stroke-width="2"/><circle cx="82.83333333333333" cy="359.72521062047275" r="7.648529270389177" fill="#fff" stroke="#F78208" stroke-width="2"/><circle cx="84" cy="190.28778007830306" r="7.648529270389177" fill="#fff" stroke="#0C0C0C" stroke-width="2"/><circle cx="85.16666666666667" cy="339.12012397677404" r="7.648529270389177" fill="#fff" stroke="#F78208" stroke-width="2"/><circle cx="86.33333333333333" cy="364.43782033451305" r="7.648529270389177" fill="#fff" stroke="#F78208" stroke-width="2"/><circle cx="87.5" cy="369.7042957475509" r="7.648529270389177" fill="#fff" stroke="#F78208" stroke-width="2"/><circle cx="88.66666666666667" cy="275.3623548203208" r="7.5" fill="#fff" stroke="#76AAD7" stroke-width="2"/><circle cx="89.83333333333333" cy="267.6989857624185" r="7.348469228349534" fill="#fff" stroke="#76AAD7" stroke-width="2"/><circle cx="91" cy="347.9757590625843" r="7.348469228349534" fill="#fff" stroke="#F78208" stroke-width="2"/><circle cx="77" cy="262.97593521937483" r="7.348469228349534" fill="#fff" stroke="#F78208" stroke-width="2"/><circle cx="78.16666666666667" cy="235.36516877574186" r="7.348469228349534" fill="#fff" stroke="#F78208" stroke-width="2"/><circle cx="79.33333333333333" cy="194.5312445597067" r="7.348469228349534" fill="#fff" stroke="#0C0C0C" stroke-width="2"/><circle cx="80.5" cy="304.3030564068913" r="7.348469228349534" fill="#fff" stroke="#F78208" stroke-width="2"/><circle cx="81.66666666666667" cy="320.6588432609111" r="7.193747284969079" fill="#fff" stroke="#F78208" stroke-width="2"/><circle cx="82.83333333333333" cy="269.73409376552877" r="7.193747284969079" fill="#fff" stroke="#F78208" stroke-width="2"/><circle cx="84" cy="359.6626760651959" r="7.193747284969079" fill="#fff" stroke="#F78208" stroke-width="2"/><circle cx="85.16666666666667" cy="344.0937054397518" r="7.193747284969079" fill="#fff" stroke="#F78208" stroke-width="2"/><circle cx="86.33333333333333" cy="214.90048089612105" r="7.193747284969079" fill="#fff" stroke="#76AAD7" stroke-width="2"/><circle cx="87.5" cy="249.85918221713317" r="7.035623639735144" fill="#fff" stroke="#F78208" stroke-width="2"/><circle cx="88.66666666666667" cy="365.1392767277543" r="7.035623639735144" fill="#fff" stroke="#F78208" stroke-width="2"/><circle cx="89.83333333333333" cy="332.57063491532494" r="7.035623639735144" fill="#fff" stroke="#F78208" stroke-width="2"/><circle cx="91" cy="232.4966943326636" r="7.035623639735144" fill="#fff" stroke="#F78208" stroke-width="2"/><circle cx="77" cy="330.9596751461469" r="7.035623639735144" fill="#fff" stroke="#76AAD7" stroke-width="2"/><circle cx="78.16666666666667" cy="359.54450415782355" r="7.035623639735144" fill="#fff" stroke="#F78208" stroke-width="2"/><circle cx="79.33333333333333" cy="308.752023392544" r="7.035623639735144" fill="#fff" stroke="#F78208" stroke-width="2"/><circle cx="80.5" cy="239.03934120515908" r="7.035623639735144" fill="#fff" stroke="#76AAD7" stroke-width="2"/><circle cx="81.66666666666667" cy="343.29975633351216" r="7.035623639735144" fill="#fff" stroke="#F78208" stroke-width="2"/><circle cx="82.83333333333333" cy="287.96259220396377" r="7.035623639735144" fill="#fff" stroke="#F78208" stroke-width="2"/><circle cx="84" cy="289.71540750614975" r="6.87386354243376" fill="#fff" stroke="#F78208" stroke-width="2"/><circle cx="85.16666666666667" cy="342.918984781241" r="6.87386354243376" fill="#fff" stroke="#76AAD7" stroke-width="2"/><circle cx="86.33333333333333" cy="258.06419457990023" r="6.87386354243376" fill="#fff" stroke="#F78208" stroke-width="2"/><circle cx="87.5" cy="372.28434423764077" r="6.87386354243376" fill="#fff" stroke="#F78208" stroke-width="2"/><circle cx="88.66666666666667" cy="215.03589067817342" r="6.87386354243376" fill="#fff" stroke="#76AAD7" stroke-width="2"/><circle cx="89.83333333333333" cy="290.4813669059343" r="6.87386354243376" fill="#fff" stroke="#F78208" stroke-width="2"/><circle cx="91" cy="191.4000151740953" r="6.87386354243376" fill="#fff" stroke="#76AAD7" stroke-width="2"/><circle cx="77" cy="328.6639537323591" r="6.87386354243376" fill="#fff" stroke="#F78208" stroke-width="2"/><circle cx="78.16666666666667" cy="357.99805574294646" r="6.87386354243376" fill="#fff" stroke="#F78208" stroke-width="2"/><circle cx="79.33333333333333" cy="367.62968561766036" r="6.708203932499369" fill="#fff" stroke="#F78208" stroke-width="2"/><circle cx="80.5" cy="338.60649946966726" r="6.708203932499369" fill="#fff" stroke="#F78208" stroke-width="2"/><circle cx="81.66666666666667" cy="353.9457847790525" r="6.708203932499369" fill="#fff" stroke="#F78208" stroke-width="2"/><circle cx="82.83333333333333" cy="376.72503529725606" r="6.708203932499369" fill="#fff" stroke="#82F778" stroke-width="2"/><circle cx="84" cy="373.47903191001114" r="6.708203932499369" fill="#fff" stroke="#F78208" stroke-width="2"/><circle cx="85.16666666666667" cy="266.3739525823782" r="6.708203932499369" fill="#fff" stroke="#0C0C0C" stroke-width="2"/><circle cx="86.33333333333333" cy="275.8039682494933" r="6.708203932499369" fill="#fff" stroke="#F78208" stroke-width="2"/><circle cx="87.5" cy="378.28445440417596" r="6.708203932499369" fill="#fff" stroke="#82F778" stroke-width="2"/><circle cx="88.66666666666667" cy="201.18493764250465" r="6.538348415311011" fill="#fff" stroke="#F78208" stroke-width="2"/><circle cx="89.83333333333333" cy="367.3222669263285" r="6.538348415311011" fill="#fff" stroke="#F78208" stroke-width="2"/><circle cx="91" cy="300.8067596839438" r="6.538348415311011" fill="#fff" stroke="#76AAD7" stroke-width="2"/><circle cx="77" cy="336.1950733258003" r="6.538348415311011" fill="#fff" stroke="#F78208" stroke-width="2"/><circle cx="78.16666666666667" cy="261.0901814819424" r="6.538348415311011" fill="#fff" stroke="#F78208" stroke-width="2"/><circle cx="79.33333333333333" cy="335.71440592108263" r="6.538348415311011" fill="#fff" stroke="#F78208" stroke-width="2"/><circle cx="80.5" cy="309.13434513935044" r="6.538348415311011" fill="#fff" stroke="#F78208" stroke-width="2"/><circle cx="81.66666666666667" cy="347.48184725478836" r="6.538348415311011" fill="#fff" stroke="#76AAD7" stroke-width="2"/><circle cx="82.83333333333333" cy="378.0725484803579" r="6.538348415311011" fill="#fff" stroke="#A40194" stroke-width="2"/><circle cx="84" cy="359.8213007430089" r="6.538348415311011" fill="#fff" stroke="#F78208" stroke-width="2"/><circle cx="85.16666666666667" cy="307.77733581792467" r="6.363961030678928" fill="#fff" stroke="#F78208" stroke-width="2"/><circle cx="86.33333333333333" cy="379.9006576997013" r="6.363961030678928" fill="#fff" stroke="#82F778" stroke-width="2"/><circle cx="87.5" cy="382.0846102944875" r="6.363961030678928" fill="#fff" stroke="#F78208" stroke-width="2"/><circle cx="88.66666666666667" cy="219.01368965372373" r="6.363961030678928" fill="#fff" stroke="#F78208" stroke-width="2"/><circle cx="89.83333333333333" cy="252.15699008584002" r="6.363961030678928" fill="#fff" stroke="#F78208" stroke-width="2"/><circle cx="91" cy="377.82693755959826" r="6.363961030678928" fill="#fff" stroke="#F78208" stroke-width="2"/><circle cx="77" cy="221.5543476755221" r="6.363961030678928" fill="#fff" stroke="#F78208" stroke-width="2"/><circle cx="78.16666666666667" cy="373.09603006415523" r="6.363961030678928" fill="#fff" stroke="#F78208" stroke-width="2"/><circle cx="79.33333333333333" cy="368.9931700091539" r="6.363961030678928" fill="#fff" stroke="#F78208" stroke-width="2"/><circle cx="80.5" cy="370.0004508058614" r="6.363961030678928" fill="#fff" stroke="#F78208" stroke-width="2"/><circle cx="81.66666666666667" cy="271.6319679894717" r="6.18465843842649" fill="#fff" stroke="#F78208" stroke-width="2"/><circle cx="82.83333333333333" cy="366.4960098777385" r="6.18465843842649" fill="#fff" stroke="#F78208" stroke-width="2"/><circle cx="84" cy="342.2149903772324" r="6.18465843842649" fill="#fff" stroke="#F78208" stroke-width="2"/><circle cx="85.16666666666667" cy="286.17565066581375" r="6.18465843842649" fill="#fff" stroke="#F78208" stroke-width="2"/><circle cx="86.33333333333333" cy="308.91445317163414" r="6.18465843842649" fill="#fff" stroke="#A40194" stroke-width="2"/><circle cx="87.5" cy="359.2183044558858" r="6.18465843842649" fill="#fff" stroke="#F78208" stroke-width="2"/><circle cx="88.66666666666667" cy="198.39849482918066" r="6.18465843842649" fill="#fff" stroke="#76AAD7" stroke-width="2"/><circle cx="89.83333333333333" cy="383.5106025767693" r="6.18465843842649" fill="#fff" stroke="#F78208" stroke-width="2"/><circle cx="91" cy="333.33080653656" r="6.18465843842649" fill="#fff" stroke="#76AAD7" stroke-width="2"/><circle cx="77" cy="229.5960293839026" r="6.18465843842649" fill="#fff" stroke="#F78208" stroke-width="2"/><circle cx="78.16666666666667" cy="377.84840513807876" r="6.18465843842649" fill="#fff" stroke="#F78208" stroke-width="2"/><circle cx="79.33333333333333" cy="281.8020587477075" r="6.18465843842649" fill="#fff" stroke="#F78208" stroke-width="2"/><circle cx="80.5" cy="382.61615315211327" r="6.18465843842649" fill="#fff" stroke="#A40194" stroke-width="2"/><circle cx="81.66666666666667" cy="242.60296544946013" r="6.18465843842649" fill="#fff" stroke="#0C0C0C" stroke-width="2"/><circle cx="82.83333333333333" cy="316.36463963149424" r="6.18465843842649" fill="#fff" stroke="#F78208" stroke-width="2"/><circle cx="84" cy="229.41947825799832" r="6.18465843842649" fill="#fff" stroke="#F78208" stroke-width="2"/><circle cx="85.16666666666667" cy="285.4246444257092" r="6.18465843842649" fill="#fff" stroke="#F78208" stroke-width="2"/><circle cx="86.33333333333333" cy="274.6561848149667" r="6" fill="#fff" stroke="#F78208" stroke-width="2"/><circle cx="87.5" cy="353.89961982672423" r="6" fill="#fff" stroke="#F78208" stroke-width="2"/><circle cx="88.66666666666667" cy="384.4116580756945" r="6" fill="#fff" stroke="#F78208" stroke-width="2"/><circle cx="89.83333333333333" cy="360.20258921914393" r="6" fill="#fff" stroke="#F78208" stroke-width="2"/><circle cx="91" cy="334.5077702405128" r="6" fill="#fff" stroke="#F78208" stroke-width="2"/><circle cx="77" cy="279.5885795045007" r="6" fill="#fff" stroke="#F78208" stroke-width="2"/><circle cx="78.16666666666667" cy="347.54846502478944" r="6" fill="#fff" stroke="#F78208" stroke-width="2"/><circle cx="79.33333333333333" cy="338.88224053959925" r="6" fill="#fff" stroke="#76AAD7" stroke-width="2"/><circle cx="80.5" cy="358.84207833423875" r="6" fill="#fff" stroke="#F78208" stroke-width="2"/><circle cx="81.66666666666667" cy="250.69226576369056" r="6" fill="#fff" stroke="#0C0C0C" stroke-width="2"/><circle cx="82.83333333333333" cy="331.97492629375324" r="6" fill="#fff" stroke="#F78208" stroke-width="2"/><circle cx="84" cy="372.4232254272156" r="6" fill="#fff" stroke="#82F778" stroke-width="2"/><circle cx="85.16666666666667" cy="379.75641259653776" r="6" fill="#fff" stroke="#F78208" stroke-width="2"/><circle cx="86.33333333333333" cy="331.2949626158067" r="6" fill="#fff" stroke="#F78208" stroke-width="2"/><circle cx="87.5" cy="326.50304629949966" r="6" fill="#fff" stroke="#F78208" stroke-width="2"/><circle cx="88.66666666666667" cy="258.9658805359022" r="6" fill="#fff" stroke="#F78208" stroke-width="2"/><circle cx="89.83333333333333" cy="345.9650091906752" r="6" fill="#fff" stroke="#F78208" stroke-width="2"/><circle cx="91" cy="377.750951185631" r="6" fill="#fff" stroke="#82F778" stroke-width="2"/><circle cx="77" cy="327.77888453985554" r="6" fill="#fff" stroke="#76AAD7" stroke-width="2"/><circle cx="78.16666666666667" cy="351.9828879430789" r="6" fill="#fff" stroke="#F78208" stroke-width="2"/><circle cx="79.33333333333333" cy="331.175390572923" r="5.809475019311126" fill="#fff" stroke="#F78208" stroke-width="2"/><circle cx="80.5" cy="339.68682052226376" r="5.809475019311126" fill="#fff" stroke="#F78208" stroke-width="2"/><circle cx="81.66666666666667" cy="331.7424981930683" r="5.809475019311126" fill="#fff" stroke="#F78208" stroke-width="2"/><circle cx="82.83333333333333" cy="364.40577028748135" r="5.809475019311126" fill="#fff" stroke="#F78208" stroke-width="2"/><circle cx="84" cy="382.5986019110076" r="5.809475019311126" fill="#fff" stroke="#F78208" stroke-width="2"/><circle cx="85.16666666666667" cy="365.98978699507995" r="5.809475019311126" fill="#fff" stroke="#F78208" stroke-width="2"/><circle cx="86.33333333333333" cy="335.89686135398955" r="5.809475019311126" fill="#fff" stroke="#F78208" stroke-width="2"/><circle cx="87.5" cy="343.7050118922266" r="5.809475019311126" fill="#fff" stroke="#F78208" stroke-width="2"/><circle cx="88.66666666666667" cy="341.70685457607317" r="5.809475019311126" fill="#fff" stroke="#F78208" stroke-width="2"/><circle cx="89.83333333333333" cy="315.8606123928377" r="5.809475019311126" fill="#fff" stroke="#F78208" stroke-width="2"/><circle cx="91" cy="255.07750743197917" r="5.809475019311126" fill="#fff" stroke="#76AAD7" stroke-width="2"/><circle cx="77" cy="332.9373718813142" r="5.612486080160912" fill="#fff" stroke="#F78208" stroke-width="2"/><circle cx="78.16666666666667" cy="377.042171254205" r="5.612486080160912" fill="#fff" stroke="#F78208" stroke-width="2"/><circle cx="79.33333333333333" cy="227.40149017760822" r="5.612486080160912" fill="#fff" stroke="#76AAD7" stroke-width="2"/><circle cx="80.5" cy="279.15647302102855" r="5.612486080160912" fill="#fff" stroke="#F78208" stroke-width="2"/><circle cx="81.66666666666667" cy="272.97290235328967" r="5.612486080160912" fill="#fff" stroke="#F78208" stroke-width="2"/><circle cx="82.83333333333333" cy="369.01622352869106" r="5.612486080160912" fill="#fff" stroke="#F78208" stroke-width="2"/><circle cx="84" cy="355.81440792465446" r="5.612486080160912" fill="#fff" stroke="#F78208" stroke-width="2"/><circle cx="85.16666666666667" cy="278.2726659605327" r="5.612486080160912" fill="#fff" stroke="#F78208" stroke-width="2"/><circle cx="86.33333333333333" cy="364.7908314539969" r="5.612486080160912" fill="#fff" stroke="#F78208" stroke-width="2"/><circle cx="87.5" cy="268.4195292267931" r="5.612486080160912" fill="#fff" stroke="#0C0C0C" stroke-width="2"/><circle cx="88.66666666666667" cy="384.9410965889433" r="5.612486080160912" fill="#fff" stroke="#F78208" stroke-width="2"/><circle cx="89.83333333333333" cy="310.07488122025075" r="5.612486080160912" fill="#fff" stroke="#F78208" stroke-width="2"/><circle cx="91" cy="273.14384256933306" r="5.612486080160912" fill="#fff" stroke="#F78208" stroke-width="2"/><circle cx="77" cy="329.5661622987518" r="5.612486080160912" fill="#fff" stroke="#F78208" stroke-width="2"/><circle cx="78.16666666666667" cy="338.2840673565532" r="5.612486080160912" fill="#fff" stroke="#F78208" stroke-width="2"/><circle cx="79.33333333333333" cy="262.35711338813564" r="5.4083269131959835" fill="#fff" stroke="#76AAD7" stroke-width="2"/><circle cx="80.5" cy="301.71678543290847" r="5.4083269131959835" fill="#fff" stroke="#F78208" stroke-width="2"/><circle cx="81.66666666666667" cy="350.72922775023545" r="5.4083269131959835" fill="#fff" stroke="#F78208" stroke-width="2"/><circle cx="82.83333333333333" cy="369.7509117798634" r="5.4083269131959835" fill="#fff" stroke="#F78208" stroke-width="2"/><circle cx="84" cy="312.3225601705053" r="5.4083269131959835" fill="#fff" stroke="#76AAD7" stroke-width="2"/><circle cx="85.16666666666667" cy="381.07619584393314" r="5.4083269131959835" fill="#fff" stroke="#F78208" stroke-width="2"/><circle cx="86.33333333333333" cy="373.9332792106363" r="5.4083269131959835" fill="#fff" stroke="#82F778" stroke-width="2"/><circle cx="87.5" cy="356.5350250455801" r="5.4083269131959835" fill="#fff" stroke="#76AAD7" stroke-width="2"/><circle cx="88.66666666666667" cy="374.237273395657" r="5.4083269131959835" fill="#fff" stroke="#F78208" stroke-width="2"/><circle cx="89.83333333333333" cy="283.61941320109037" r="5.4083269131959835" fill="#fff" stroke="#F78208" stroke-width="2"/><circle cx="91" cy="371.08675941756803" r="5.4083269131959835" fill="#fff" stroke="#A40194" stroke-width="2"/><circle cx="77" cy="248.3510298122304" r="5.4083269131959835" fill="#fff" stroke="#0C0C0C" stroke-width="2"/><circle cx="78.16666666666667" cy="359.9485223626996" r="5.4083269131959835" fill="#fff" stroke="#F78208" stroke-width="2"/><circle cx="79.33333333333333" cy="382.67802394737885" r="5.4083269131959835" fill="#fff" stroke="#A40194" stroke-width="2"/><circle cx="80.5" cy="369.71013217980135" r="5.4083269131959835" fill="#fff" stroke="#F78208" stroke-width="2"/><circle cx="81.66666666666667" cy="362.2702916867645" r="5.4083269131959835" fill="#fff" stroke="#F78208" stroke-width="2"/><circle cx="82.83333333333333" cy="371.9529721164433" r="5.4083269131959835" fill="#fff" stroke="#F78208" stroke-width="2"/><circle cx="84" cy="332.1847377801819" r="5.4083269131959835" fill="#fff" stroke="#F78208" stroke-width="2"/><circle cx="85.16666666666667" cy="326.445045740702" r="5.4083269131959835" fill="#fff" stroke="#F78208" stroke-width="2"/><circle cx="86.33333333333333" cy="300.1941471761645" r="5.4083269131959835" fill="#fff" stroke="#F78208" stroke-width="2"/><circle cx="87.5" cy="345.6487538566322" r="5.4083269131959835" fill="#fff" stroke="#F78208" stroke-width="2"/><circle cx="88.66666666666667" cy="352.97521001909615" r="5.196152422706632" fill="#fff" stroke="#F78208" stroke-width="2"/><circle cx="89.83333333333333" cy="357.07150937618394" r="5.196152422706632" fill="#fff" stroke="#F78208" stroke-width="2"/><circle cx="91" cy="352.57245599185967" r="5.196152422706632" fill="#fff" stroke="#F78208" stroke-width="2"/><circle cx="77" cy="336.83618988292045" r="5.196152422706632" fill="#fff" stroke="#F78208" stroke-width="2"/><circle cx="78.16666666666667" cy="209.8436822048649" r="5.196152422706632" fill="#fff" stroke="#76AAD7" stroke-width="2"/><circle cx="79.33333333333333" cy="353.05273361217604" r="5.196152422706632" fill="#fff" stroke="#F78208" stroke-width="2"/><circle cx="80.5" cy="354.7236430191594" r="5.196152422706632" fill="#fff" stroke="#F78208" stroke-width="2"/><circle cx="81.66666666666667" cy="360.1495325008431" r="5.196152422706632" fill="#fff" stroke="#76AAD7" stroke-width="2"/><circle cx="82.83333333333333" cy="376.6610414618277" r="5.196152422706632" fill="#fff" stroke="#F78208" stroke-width="2"/><circle cx="84" cy="365.20445776984576" r="5.196152422706632" fill="#fff" stroke="#F78208" stroke-width="2"/><circle cx="85.16666666666667" cy="376.90450011851" r="5.196152422706632" fill="#fff" stroke="#F78208" stroke-width="2"/><circle cx="86.33333333333333" cy="277.0718981349983" r="5.196152422706632" fill="#fff" stroke="#76AAD7" stroke-width="2"/><circle cx="87.5" cy="321.7605605889857" r="5.196152422706632" fill="#fff" stroke="#F78208" stroke-width="2"/><circle cx="88.66666666666667" cy="322.3974885159637" r="5.196152422706632" fill="#fff" stroke="#F78208" stroke-width="2"/><circle cx="89.83333333333333" cy="364.40564257247837" r="5.196152422706632" fill="#fff" stroke="#F78208" stroke-width="2"/><circle cx="91" cy="358.5623628063155" r="5.196152422706632" fill="#fff" stroke="#F78208" stroke-width="2"/><circle cx="77" cy="370.56015510544046" r="5.196152422706632" fill="#fff" stroke="#F78208" stroke-width="2"/><circle cx="78.16666666666667" cy="329.2829685274654" r="5.196152422706632" fill="#fff" stroke="#F78208" stroke-width="2"/><circle cx="79.33333333333333" cy="296.3871154378696" r="5.196152422706632" fill="#fff" stroke="#F78208" stroke-width="2"/><circle cx="80.5" cy="177.6929411728172" r="5.196152422706632" fill="#fff" stroke="#76AAD7" stroke-width="2"/><circle cx="81.66666666666667" cy="280.3534936953618" r="5.196152422706632" fill="#fff" stroke="#76AAD7" stroke-width="2"/><circle cx="82.83333333333333" cy="203.83286466591548" r="5.196152422706632" fill="#fff" stroke="#76AAD7" stroke-width="2"/><circle cx="84" cy="354.5221358697022" r="4.9749371855331" fill="#fff" stroke="#F78208" stroke-width="2"/><circle cx="85.16666666666667" cy="376.1447285985761" r="4.9749371855331" fill="#fff" stroke="#F78208" stroke-width="2"/><circle cx="86.33333333333333" cy="243.80748328806285" r="4.9749371855331" fill="#fff" stroke="#F78208" stroke-width="2"/><circle cx="87.5" cy="309.543862524695" r="4.9749371855331" fill="#fff" stroke="#0C0C0C" stroke-width="2"/><circle cx="88.66666666666667" cy="383.45222803900793" r="4.9749371855331" fill="#fff" stroke="#82F778" stroke-width="2"/><circle cx="89.83333333333333" cy="378.33561386227825" r="4.9749371855331" fill="#fff" stroke="#F78208" stroke-width="2"/><circle cx="91" cy="337.47499162866166" r="4.9749371855331" fill="#fff" stroke="#F78208" stroke-width="2"/><circle cx="77" cy="275.0450718742044" r="4.9749371855331" fill="#fff" stroke="#0C0C0C" stroke-width="2"/><circle cx="78.16666666666667" cy="382.5760564275738" r="4.9749371855331" fill="#fff" stroke="#82F778" stroke-width="2"/><circle cx="79.33333333333333" cy="370.4121313571433" r="4.9749371855331" fill="#fff" stroke="#F78208" stroke-width="2"/><circle cx="80.5" cy="289.3186345086273" r="4.9749371855331" fill="#fff" stroke="#F78208" stroke-width="2"/><circle cx="81.66666666666667" cy="279.74653968651285" r="4.9749371855331" fill="#fff" stroke="#F78208" stroke-width="2"/><circle cx="82.83333333333333" cy="316.58496874632704" r="4.9749371855331" fill="#fff" stroke="#F78208" stroke-width="2"/><circle cx="84" cy="331.19446096804" r="4.9749371855331" fill="#fff" stroke="#F78208" stroke-width="2"/><circle cx="85.16666666666667" cy="303.2569857298346" r="4.9749371855331" fill="#fff" stroke="#F78208" stroke-width="2"/><circle cx="86.33333333333333" cy="332.4667764083297" r="4.9749371855331" fill="#fff" stroke="#F78208" stroke-width="2"/><circle cx="87.5" cy="184.98252967484225" r="4.9749371855331" fill="#fff" stroke="#82F778" stroke-width="2"/><circle cx="88.66666666666667" cy="327.33456446452755" r="4.9749371855331" fill="#fff" stroke="#F78208" stroke-width="2"/><circle cx="89.83333333333333" cy="369.7042996975933" r="4.9749371855331" fill="#fff" stroke="#F78208" stroke-width="2"/><circle cx="91" cy="373.5500369302526" r="4.9749371855331" fill="#fff" stroke="#F78208" stroke-width="2"/><circle cx="77" cy="342.04556479804194" r="4.9749371855331" fill="#fff" stroke="#F78208" stroke-width="2"/><circle cx="78.16666666666667" cy="380.7504169436931" r="4.9749371855331" fill="#fff" stroke="#82F778" stroke-width="2"/><circle cx="79.33333333333333" cy="271.50612266279416" r="4.9749371855331" fill="#fff" stroke="#F78208" stroke-width="2"/><circle cx="80.5" cy="354.1227888210837" r="4.9749371855331" fill="#fff" stroke="#F78208" stroke-width="2"/><circle cx="81.66666666666667" cy="306.2470072299673" r="4.9749371855331" fill="#fff" stroke="#F78208" stroke-width="2"/><circle cx="82.83333333333333" cy="378.21137093116874" r="4.9749371855331" fill="#fff" stroke="#F78208" stroke-width="2"/><circle cx="84" cy="268.87596490978876" r="4.9749371855331" fill="#fff" stroke="#F78208" stroke-width="2"/><circle cx="85.16666666666667" cy="206.95314705719684" r="4.9749371855331" fill="#fff" stroke="#0C0C0C" stroke-width="2"/><circle cx="86.33333333333333" cy="328.3680803507627" r="4.9749371855331" fill="#fff" stroke="#F78208" stroke-width="2"/><circle cx="87.5" cy="383.2213076807493" r="4.743416490252569" fill="#fff" stroke="#F78208" stroke-width="2"/><circle cx="88.66666666666667" cy="268.53258052927987" r="4.743416490252569" fill="#fff" stroke="#76AAD7" stroke-width="2"/><circle cx="89.83333333333333" cy="372.96662836169753" r="4.743416490252569" fill="#fff" stroke="#F78208" stroke-width="2"/><circle cx="91" cy="337.6293298177633" r="4.743416490252569" fill="#fff" stroke="#F78208" stroke-width="2"/><circle cx="77" cy="270.0525817158985" r="4.743416490252569" fill="#fff" stroke="#F78208" stroke-width="2"/><circle cx="78.16666666666667" cy="266.99020803044664" r="4.743416490252569" fill="#fff" stroke="#F78208" stroke-width="2"/><circle cx="79.33333333333333" cy="359.04191185149125" r="4.743416490252569" fill="#fff" stroke="#F78208" stroke-width="2"/><circle cx="80.5" cy="352.0847303814144" r="4.743416490252569" fill="#fff" stroke="#F78208" stroke-width="2"/><circle cx="81.66666666666667" cy="349.52819479318276" r="4.743416490252569" fill="#fff" stroke="#F78208" stroke-width="2"/><circle cx="82.83333333333333" cy="360.4535453068555" r="4.743416490252569" fill="#fff" stroke="#F78208" stroke-width="2"/><circle cx="84" cy="223.42478195554756" r="4.743416490252569" fill="#fff" stroke="#0C0C0C" stroke-width="2"/><circle cx="85.16666666666667" cy="318.28326522270726" r="4.743416490252569" fill="#fff" stroke="#F78208" stroke-width="2"/><circle cx="86.33333333333333" cy="349.4980742717929" r="4.743416490252569" fill="#fff" stroke="#76AAD7" stroke-width="2"/><circle cx="87.5" cy="377.6572061284902" r="4.743416490252569" fill="#fff" stroke="#F78208" stroke-width="2"/><circle cx="88.66666666666667" cy="328.99937328088356" r="4.743416490252569" fill="#fff" stroke="#F78208" stroke-width="2"/><circle cx="89.83333333333333" cy="336.9708793098738" r="4.743416490252569" fill="#fff" stroke="#F78208" stroke-width="2"/><circle cx="91" cy="259.8029919594385" r="4.743416490252569" fill="#fff" stroke="#76AAD7" stroke-width="2"/><circle cx="77" cy="336.7714807654672" r="4.743416490252569" fill="#fff" stroke="#F78208" stroke-width="2"/><circle cx="78.16666666666667" cy="359.8294062764799" r="4.743416490252569" fill="#fff" stroke="#76AAD7" stroke-width="2"/><circle cx="79.33333333333333" cy="368.0880449412629" r="4.743416490252569" fill="#fff" stroke="#F78208" stroke-width="2"/><circle cx="80.5" cy="305.9219547461437" r="4.743416490252569" fill="#fff" stroke="#F78208" stroke-width="2"/><circle cx="81.66666666666667" cy="333.271957038583" r="4.743416490252569" fill="#fff" stroke="#F78208" stroke-width="2"/><circle cx="82.83333333333333" cy="381.18470501678024" r="4.743416490252569" fill="#fff" stroke="#F78208" stroke-width="2"/><circle cx="84" cy="267.951795642279" r="4.743416490252569" fill="#fff" stroke="#0C0C0C" stroke-width="2"/><circle cx="85.16666666666667" cy="358.9521027054843" r="4.743416490252569" fill="#fff" stroke="#82F778" stroke-width="2"/><circle cx="86.33333333333333" cy="364.17922019006323" r="4.743416490252569" fill="#fff" stroke="#F78208" stroke-width="2"/><circle cx="87.5" cy="334.4527512740022" r="4.743416490252569" fill="#fff" stroke="#F78208" stroke-width="2"/><circle cx="88.66666666666667" cy="291.99276941600124" r="4.743416490252569" fill="#fff" stroke="#F78208" stroke-width="2"/><circle cx="89.83333333333333" cy="239.7978891672848" r="4.743416490252569" fill="#fff" stroke="#76AAD7" stroke-width="2"/><circle cx="91" cy="319.5159799462527" r="4.743416490252569" fill="#fff" stroke="#F78208" stroke-width="2"/><circle cx="77" cy="355.7345970161392" r="4.743416490252569" fill="#fff" stroke="#F78208" stroke-width="2"/><circle cx="78.16666666666667" cy="351.997272584074" r="4.743416490252569" fill="#fff" stroke="#F78208" stroke-width="2"/><circle cx="79.33333333333333" cy="383.74171086287583" r="4.743416490252569" fill="#fff" stroke="#F78208" stroke-width="2"/><circle cx="80.5" cy="366.9018632185142" r="4.743416490252569" fill="#fff" stroke="#F78208" stroke-width="2"/><circle cx="81.66666666666667" cy="276.0448392236214" r="4.743416490252569" fill="#fff" stroke="#F78208" stroke-width="2"/><circle cx="82.83333333333333" cy="371.30965023173934" r="4.743416490252569" fill="#fff" stroke="#F78208" stroke-width="2"/><circle cx="84" cy="363.39957227118555" r="4.743416490252569" fill="#fff" stroke="#F78208" stroke-width="2"/><circle cx="85.16666666666667" cy="253.56194048941043" r="4.743416490252569" fill="#fff" stroke="#76AAD7" stroke-width="2"/><circle cx="86.33333333333333" cy="247.1116386363708" r="4.743416490252569" fill="#fff" stroke="#F78208" stroke-width="2"/><circle cx="87.5" cy="382.38452168269464" r="4.743416490252569" fill="#fff" stroke="#F78208" stroke-width="2"/><circle cx="88.66666666666667" cy="328.49095406238115" r="4.743416490252569" fill="#fff" stroke="#F78208" stroke-width="2"/><circle cx="89.83333333333333" cy="274.6011428696603" r="4.743416490252569" fill="#fff" stroke="#F78208" stroke-width="2"/><circle cx="91" cy="354.61316358812485" r="4.743416490252569" fill="#fff" stroke="#F78208" stroke-width="2"/><circle cx="77" cy="287.0676156405919" r="4.743416490252569" fill="#fff" stroke="#F78208" stroke-width="2"/><text x="84" y="408" text-anchor="middle" font-weight="700" fill="#0f172a" style="font-style: normal;">SdsR</text><text x="84" y="424" text-anchor="middle" font-size="9" fill="#94a3b8">focal</text></g><g><line x1="252" y1="0" x2="252" y2="386" stroke="#eef2f7" stroke-dasharray="3 4"/><circle cx="245" cy="158.1869731956448" r="33.741665637605976" fill="#fff" stroke="#A40194" stroke-width="2"/><circle cx="246.16666666666666" cy="278.650802293026" r="6.363961030678928" fill="#fff" stroke="#A40194" stroke-width="2"/><text x="252" y="408" text-anchor="middle" font-weight="400" fill="#475569" style="font-style: italic;">5'yfiS</text></g><g><line x1="420" y1="0" x2="420" y2="386" stroke="#eef2f7" stroke-dasharray="3 4"/><circle cx="413" cy="163.46345720602622" r="19.03286631067428" fill="#fff" stroke="#A40194" stroke-width="2"/><text x="420" y="408" text-anchor="middle" font-weight="400" fill="#475569" style="font-style: italic;">yfiS</text></g><g><line x1="588" y1="0" x2="588" y2="386" stroke="#eef2f7" stroke-dasharray="3 4"/><circle cx="581" cy="164.57092599441282" r="9.9498743710662" fill="#fff" stroke="#A40194" stroke-width="2"/><text x="588" y="408" text-anchor="middle" font-weight="400" fill="#475569" style="font-style: italic;">3'zapG</text></g></g></svg><text x="60" y="498" font-size="12" fill="#64748b" font-family="ui-sans-serif,system-ui">Total interactions (log scale)</text><svg id="compare-bars" width="762" height="240" x="0" y="505" viewBox="0 0 762 240"><defs><style>text{font-family:ui-sans-serif,system-ui;font-size:11px;fill:#64748b}</style></defs><g transform="translate(60,16)"><g transform="translate(0,164)"><line x1="0" x2="672" stroke="#eef2f7"/><text x="-9" y="3" text-anchor="end" fill="#94a3b8">1</text></g><g transform="translate(0,127.01076030256411)"><line x1="0" x2="672" stroke="#eef2f7"/><text x="-9" y="3" text-anchor="end" fill="#94a3b8">10</text></g><g transform="translate(0,90.02152060512822)"><line x1="0" x2="672" stroke="#eef2f7"/><text x="-9" y="3" text-anchor="end" fill="#94a3b8">100</text></g><g transform="translate(0,53.032280907692325)"><line x1="0" x2="672" stroke="#eef2f7"/><text x="-9" y="3" text-anchor="end" fill="#94a3b8">1k</text></g><g transform="translate(0,16.043041210256433)"><line x1="0" x2="672" stroke="#eef2f7"/><text x="-9" y="3" text-anchor="end" fill="#94a3b8">10k</text></g><g transform="translate(0,-20.94619848717946)"><line x1="0" x2="672" stroke="#eef2f7"/><text x="-9" y="3" text-anchor="end" fill="#94a3b8">100k</text></g><g><rect x="71" y="0" width="26" height="164" rx="3" fill="#A40194" opacity="0.85"/><text x="84" y="182" text-anchor="middle" style="font-style: normal;">SdsR</text></g><g><rect x="239" y="59.18047051498303" width="26" height="104.81952948501697" rx="3" fill="#cbd5e1" opacity="1"/><text x="252" y="182" text-anchor="middle" style="font-style: italic;">5'yfiS</text></g><g><rect x="407" y="74.54887387475519" width="26" height="89.45112612524481" rx="3" fill="#cbd5e1" opacity="1"/><text x="420" y="182" text-anchor="middle" style="font-style: italic;">yfiS</text></g><g><rect x="575" y="82.47127763963175" width="26" height="81.52872236036825" rx="3" fill="#cbd5e1" opacity="1"/><text x="588" y="182" text-anchor="middle" style="font-style: italic;">3'zapG</text></g></g></svg></svg>