<svg xmlns="http://www.w3.org/2000/svg" viewBox="0 0 762 740" width="762" height="740"><svg id="compare-scatter" width="762" height="480" x="0" y="0" viewBox="0 0 762 480"><defs><style>text{font-family:ui-sans-serif,system-ui;font-size:11px;fill:#64748b}</style></defs><g transform="translate(60,24)"><g transform="translate(0,386)"><line x1="0" x2="672" stroke="#eef2f7"/><text x="-9" y="3" text-anchor="end" fill="#94a3b8">0</text></g><g transform="translate(0,375.56466260749556)"><line x1="0" x2="672" stroke="#eef2f7"/><text x="-9" y="3" text-anchor="end" fill="#94a3b8">1</text></g><g transform="translate(0,333.82331303747776)"><line x1="0" x2="672" stroke="#eef2f7"/><text x="-9" y="3" text-anchor="end" fill="#94a3b8">5</text></g><g transform="translate(0,281.6466260749555)"><line x1="0" x2="672" stroke="#eef2f7"/><text x="-9" y="3" text-anchor="end" fill="#94a3b8">10</text></g><g transform="translate(0,240.12024355026693)"><line x1="0" x2="672" stroke="#eef2f7"/><text x="-9" y="3" text-anchor="end" fill="#94a3b8">25</text></g><g transform="translate(0,208.70674785008896)"><line x1="0" x2="672" stroke="#eef2f7"/><text x="-9" y="3" text-anchor="end" fill="#94a3b8">50</text></g><g transform="translate(0,177.29325214991104)"><line x1="0" x2="672" stroke="#eef2f7"/><text x="-9" y="3" text-anchor="end" fill="#94a3b8">100</text></g><g transform="translate(0,135.76686962522245)"><line x1="0" x2="672" stroke="#eef2f7"/><text x="-9" y="3" text-anchor="end" fill="#94a3b8">250</text></g><g transform="translate(0,104.35337392504448)"><line x1="0" x2="672" stroke="#eef2f7"/><text x="-9" y="3" text-anchor="end" fill="#94a3b8">500</text></g><g transform="translate(0,72.9398782248665)"><line x1="0" x2="672" stroke="#eef2f7"/><text x="-9" y="3" text-anchor="end" fill="#94a3b8">1000</text></g><g transform="translate(0,31.41349570017792)"><line x1="0" x2="672" stroke="#eef2f7"/><text x="-9" y="3" text-anchor="end" fill="#94a3b8">2500</text></g><g transform="translate(0,0)"><line x1="0" x2="672" stroke="#eef2f7"/><text x="-9" y="3" text-anchor="end" fill="#94a3b8">5000</text></g><text transform="translate(-46,193) rotate(-90)" text-anchor="middle" fill="#64748b">Odds ratio (symlog)</text><g><line x1="84" y1="0" x2="84" y2="386" stroke="#cbd5e1" stroke-dasharray="3 4"/><circle cx="77" cy="146.36846394478445" r="33.77499074759311" fill="#fff" stroke="#76AAD7" stroke-width="2"/><circle cx="78.16666666666667" cy="222.9863181061387" r="29.124731758421397" fill="#fff" stroke="#F78208" stroke-width="2"/><circle cx="79.33333333333333" cy="117.29627814022638" r="26.452788132822597" fill="#fff" stroke="#76AAD7" stroke-width="2"/><circle cx="80.5" cy="151.98120652920394" r="24.464259645450134" fill="#fff" stroke="#76AAD7" stroke-width="2"/><circle cx="81.66666666666667" cy="118.83264576274769" r="24.372115213907882" fill="#fff" stroke="#76AAD7" stroke-width="2"/><circle cx="82.83333333333333" cy="155.60995154876832" r="21.891779278989635" fill="#fff" stroke="#F12C2C" stroke-width="2"/><circle cx="84" cy="152.5106301412052" r="14.150971698084906" fill="#fff" stroke="#76AAD7" stroke-width="2"/><circle cx="85.16666666666667" cy="131.4220915985209" r="10.712142642814275" fill="#fff" stroke="#76AAD7" stroke-width="2"/><circle cx="86.33333333333333" cy="345.7257392794326" r="10.173494974687902" fill="#fff" stroke="#F78208" stroke-width="2"/><circle cx="87.5" cy="207.58118261336386" r="9.486832980505138" fill="#fff" stroke="#F78208" stroke-width="2"/><circle cx="88.66666666666667" cy="231.14006500629662" r="9.367496997597598" fill="#fff" stroke="#76AAD7" stroke-width="2"/><circle cx="89.83333333333333" cy="163.51853750144244" r="8.485281374238571" fill="#fff" stroke="#76AAD7" stroke-width="2"/><circle cx="91" cy="329.08332887108634" r="8.215838362577491" fill="#fff" stroke="#F78208" stroke-width="2"/><circle cx="77" cy="215.21465070410557" r="8.077747210701755" fill="#fff" stroke="#F78208" stroke-width="2"/><circle cx="78.16666666666667" cy="179.02330015369003" r="7.5" fill="#fff" stroke="#76AAD7" stroke-width="2"/><circle cx="79.33333333333333" cy="226.5466712394678" r="7.348469228349534" fill="#fff" stroke="#F78208" stroke-width="2"/><circle cx="80.5" cy="154.99311751373176" r="7.348469228349534" fill="#fff" stroke="#76AAD7" stroke-width="2"/><circle cx="81.66666666666667" cy="381.8711402145709" r="7.193747284969079" fill="#fff" stroke="#F78208" stroke-width="2"/><circle cx="82.83333333333333" cy="258.7201153623461" r="7.035623639735144" fill="#fff" stroke="#F78208" stroke-width="2"/><circle cx="84" cy="359.59566135368703" r="6.87386354243376" fill="#fff" stroke="#F78208" stroke-width="2"/><circle cx="85.16666666666667" cy="377.57711386958124" r="6.538348415311011" fill="#fff" stroke="#F78208" stroke-width="2"/><circle cx="86.33333333333333" cy="137.244985449599" r="6.363961030678928" fill="#fff" stroke="#76AAD7" stroke-width="2"/><circle cx="87.5" cy="366.5079186403602" r="6.18465843842649" fill="#fff" stroke="#F78208" stroke-width="2"/><circle cx="88.66666666666667" cy="210.28371893105643" r="6.18465843842649" fill="#fff" stroke="#76AAD7" stroke-width="2"/><circle cx="89.83333333333333" cy="238.8442119712664" r="6.18465843842649" fill="#fff" stroke="#F78208" stroke-width="2"/><circle cx="91" cy="381.6778572390577" r="6.18465843842649" fill="#fff" stroke="#82F778" stroke-width="2"/><circle cx="77" cy="365.2204411306196" r="6.18465843842649" fill="#fff" stroke="#A40194" stroke-width="2"/><circle cx="78.16666666666667" cy="379.6473480812865" r="6.18465843842649" fill="#fff" stroke="#F78208" stroke-width="2"/><circle cx="79.33333333333333" cy="382.4298196129085" r="6.18465843842649" fill="#fff" stroke="#F78208" stroke-width="2"/><circle cx="80.5" cy="337.3624797353895" r="6" fill="#fff" stroke="#F78208" stroke-width="2"/><circle cx="81.66666666666667" cy="340.2173064504704" r="6" fill="#fff" stroke="#F78208" stroke-width="2"/><circle cx="82.83333333333333" cy="362.9627469666717" r="5.809475019311126" fill="#fff" stroke="#F78208" stroke-width="2"/><circle cx="84" cy="184.48865582571233" r="5.809475019311126" fill="#fff" stroke="#76AAD7" stroke-width="2"/><circle cx="85.16666666666667" cy="382.5656098692803" r="5.809475019311126" fill="#fff" stroke="#F78208" stroke-width="2"/><circle cx="86.33333333333333" cy="382.6284694741812" r="5.809475019311126" fill="#fff" stroke="#F78208" stroke-width="2"/><circle cx="87.5" cy="147.39911124304578" r="5.809475019311126" fill="#fff" stroke="#76AAD7" stroke-width="2"/><circle cx="88.66666666666667" cy="229.59476798265138" r="5.809475019311126" fill="#fff" stroke="#76AAD7" stroke-width="2"/><circle cx="89.83333333333333" cy="166.69669991089268" r="5.4083269131959835" fill="#fff" stroke="#76AAD7" stroke-width="2"/><circle cx="91" cy="383.45808450510873" r="5.4083269131959835" fill="#fff" stroke="#F78208" stroke-width="2"/><circle cx="77" cy="140.75640197172646" r="5.4083269131959835" fill="#fff" stroke="#76AAD7" stroke-width="2"/><circle cx="78.16666666666667" cy="362.34157082520517" r="5.4083269131959835" fill="#fff" stroke="#F78208" stroke-width="2"/><circle cx="79.33333333333333" cy="367.31751567932236" r="5.196152422706632" fill="#fff" stroke="#F78208" stroke-width="2"/><circle cx="80.5" cy="262.0291591680929" r="5.196152422706632" fill="#fff" stroke="#F78208" stroke-width="2"/><circle cx="81.66666666666667" cy="216.73560432624092" r="5.196152422706632" fill="#fff" stroke="#76AAD7" stroke-width="2"/><circle cx="82.83333333333333" cy="274.33160635525826" r="5.196152422706632" fill="#fff" stroke="#F78208" stroke-width="2"/><circle cx="84" cy="381.59374744483694" r="4.9749371855331" fill="#fff" stroke="#F78208" stroke-width="2"/><circle cx="85.16666666666667" cy="382.69537553109825" r="4.9749371855331" fill="#fff" stroke="#F78208" stroke-width="2"/><circle cx="86.33333333333333" cy="354.511869077459" r="4.9749371855331" fill="#fff" stroke="#F78208" stroke-width="2"/><circle cx="87.5" cy="322.18058790075975" r="4.9749371855331" fill="#fff" stroke="#F78208" stroke-width="2"/><circle cx="88.66666666666667" cy="377.9512076230895" r="4.9749371855331" fill="#fff" stroke="#F78208" stroke-width="2"/><circle cx="89.83333333333333" cy="228.20551100507438" r="4.743416490252569" fill="#fff" stroke="#F78208" stroke-width="2"/><circle cx="91" cy="182.22979108062438" r="4.743416490252569" fill="#fff" stroke="#0C0C0C" stroke-width="2"/><circle cx="77" cy="339.32797034895685" r="4.743416490252569" fill="#fff" stroke="#F78208" stroke-width="2"/><circle cx="78.16666666666667" cy="335.88862316055827" r="4.743416490252569" fill="#fff" stroke="#F78208" stroke-width="2"/><text x="84" y="408" text-anchor="middle" font-weight="700" fill="#0f172a" style="font-style: normal;">GcvB</text><text x="84" y="424" text-anchor="middle" font-size="9" fill="#94a3b8">focal</text></g><g><line x1="252" y1="0" x2="252" y2="386" stroke="#eef2f7" stroke-dasharray="3 4"/><circle cx="245" cy="151.98120652920394" r="24.464259645450134" fill="#fff" stroke="#A40194" stroke-width="2"/><circle cx="246.16666666666666" cy="356.5350250455801" r="5.4083269131959835" fill="#fff" stroke="#A40194" stroke-width="2"/><text x="252" y="408" text-anchor="middle" font-weight="400" fill="#475569" style="font-style: italic;">5'oppA</text></g><g><line x1="420" y1="0" x2="420" y2="386" stroke="#eef2f7" stroke-dasharray="3 4"/><circle cx="413" cy="155.60995154876832" r="21.891779278989635" fill="#fff" stroke="#A40194" stroke-width="2"/><text x="420" y="408" text-anchor="middle" font-weight="400" fill="#475569" style="font-style: normal;">SroC</text></g><g><line x1="588" y1="0" x2="588" y2="386" stroke="#eef2f7" stroke-dasharray="3 4"/><circle cx="581" cy="209.00562803017704" r="38.27205246651922" fill="#fff" stroke="#A40194" stroke-width="2"/><circle cx="582.1666666666666" cy="342.79616384640156" r="15.516120649182902" fill="#fff" stroke="#A40194" stroke-width="2"/><circle cx="583.3333333333334" cy="372.513137630094" r="9.246621004453464" fill="#fff" stroke="#F78208" stroke-width="2"/><circle cx="584.5" cy="334.28345188435355" r="8.746427842267952" fill="#fff" stroke="#A40194" stroke-width="2"/><circle cx="585.6666666666666" cy="341.3293488404521" r="8.485281374238571" fill="#fff" stroke="#F78208" stroke-width="2"/><circle cx="586.8333333333334" cy="347.3773563567701" r="7.348469228349534" fill="#fff" stroke="#82F778" stroke-width="2"/><circle cx="588" cy="371.4773914097689" r="7.193747284969079" fill="#fff" stroke="#F78208" stroke-width="2"/><circle cx="589.1666666666666" cy="372.03498658378754" r="7.035623639735144" fill="#fff" stroke="#82F778" stroke-width="2"/><circle cx="590.3333333333334" cy="373.6737878631655" r="6.708203932499369" fill="#fff" stroke="#F78208" stroke-width="2"/><circle cx="591.5" cy="359.8607261065496" r="6.708203932499369" fill="#fff" stroke="#A40194" stroke-width="2"/><circle cx="592.6666666666666" cy="373.55471824267795" r="6.18465843842649" fill="#fff" stroke="#F78208" stroke-width="2"/><circle cx="593.8333333333334" cy="365.2204411306196" r="6.18465843842649" fill="#fff" stroke="#A40194" stroke-width="2"/><circle cx="595" cy="362.3590773560746" r="5.809475019311126" fill="#fff" stroke="#F78208" stroke-width="2"/><circle cx="581" cy="354.95175447938044" r="5.809475019311126" fill="#fff" stroke="#A40194" stroke-width="2"/><circle cx="582.1666666666666" cy="348.030366423966" r="5.612486080160912" fill="#fff" stroke="#F78208" stroke-width="2"/><circle cx="583.3333333333334" cy="255.7001634901985" r="5.4083269131959835" fill="#fff" stroke="#F78208" stroke-width="2"/><circle cx="584.5" cy="332.63239028714025" r="5.4083269131959835" fill="#fff" stroke="#82F778" stroke-width="2"/><circle cx="585.6666666666666" cy="382.0346468814123" r="5.196152422706632" fill="#fff" stroke="#F78208" stroke-width="2"/><circle cx="586.8333333333334" cy="362.73904304653473" r="5.196152422706632" fill="#fff" stroke="#F78208" stroke-width="2"/><circle cx="588" cy="382.35931296498467" r="5.196152422706632" fill="#fff" stroke="#F78208" stroke-width="2"/><circle cx="589.1666666666666" cy="380.8458272703703" r="5.196152422706632" fill="#fff" stroke="#82F778" stroke-width="2"/><circle cx="590.3333333333334" cy="372.58622576748394" r="4.9749371855331" fill="#fff" stroke="#F78208" stroke-width="2"/><circle cx="591.5" cy="380.4144839773907" r="4.9749371855331" fill="#fff" stroke="#F78208" stroke-width="2"/><circle cx="592.6666666666666" cy="372.9844892987492" r="4.9749371855331" fill="#fff" stroke="#F78208" stroke-width="2"/><circle cx="593.8333333333334" cy="375.71041733888956" r="4.9749371855331" fill="#fff" stroke="#F78208" stroke-width="2"/><circle cx="595" cy="323.424288326826" r="4.743416490252569" fill="#fff" stroke="#F78208" stroke-width="2"/><text x="588" y="408" text-anchor="middle" font-weight="400" fill="#475569" style="font-style: normal;">CsrB</text></g></g></svg><text x="60" y="498" font-size="12" fill="#64748b" font-family="ui-sans-serif,system-ui">Total interactions (log scale)</text><svg id="compare-bars" width="762" height="240" x="0" y="505" viewBox="0 0 762 240"><defs><style>text{font-family:ui-sans-serif,system-ui;font-size:11px;fill:#64748b}</style></defs><g transform="translate(60,16)"><g transform="translate(0,164)"><line x1="0" x2="672" stroke="#eef2f7"/><text x="-9" y="3" text-anchor="end" fill="#94a3b8">1</text></g><g transform="translate(0,122.60220300441293)"><line x1="0" x2="672" stroke="#eef2f7"/><text x="-9" y="3" text-anchor="end" fill="#94a3b8">10</text></g><g transform="translate(0,81.20440600882586)"><line x1="0" x2="672" stroke="#eef2f7"/><text x="-9" y="3" text-anchor="end" fill="#94a3b8">100</text></g><g transform="translate(0,39.80660901323877)"><line x1="0" x2="672" stroke="#eef2f7"/><text x="-9" y="3" text-anchor="end" fill="#94a3b8">1k</text></g><g transform="translate(0,-1.5911879823482877)"><line x1="0" x2="672" stroke="#eef2f7"/><text x="-9" y="3" text-anchor="end" fill="#94a3b8">10k</text></g><g><rect x="71" y="0" width="26" height="164" rx="3" fill="#A40194" opacity="0.85"/><text x="84" y="182" text-anchor="middle" style="font-style: normal;">GcvB</text></g><g><rect x="239" y="37.24701190147506" width="26" height="126.75298809852494" rx="3" fill="#cbd5e1" opacity="1"/><text x="252" y="182" text-anchor="middle" style="font-style: italic;">5'oppA</text></g><g><rect x="407" y="17.831011620889683" width="26" height="146.16898837911032" rx="3" fill="#cbd5e1" opacity="1"/><text x="420" y="182" text-anchor="middle" style="font-style: normal;">SroC</text></g><g><rect x="575" y="1.7891520721316851" width="26" height="162.21084792786831" rx="3" fill="#cbd5e1" opacity="1"/><text x="588" y="182" text-anchor="middle" style="font-style: normal;">CsrB</text></g></g></svg></svg>