<svg id="pair-heatmap" width="560" viewBox="0 0 560 520" class="block" style="max-width: 560px;" height="520" xmlns="http://www.w3.org/2000/svg"><defs><style>text{font-family:ui-sans-serif,system-ui;font-size:10px;fill:#64748b}</style></defs><rect x="64" y="16" width="456" height="440" fill="#fff" stroke="#e2e8f0"/><rect x="222.9090909090909" y="270.22222222222223" width="7.5" height="5.5" fill="rgb(217,225,255)"/><rect x="298.9090909090909" y="270.22222222222223" width="7.5" height="5.5" fill="rgb(217,225,255)"/><rect x="312.72727272727275" y="270.22222222222223" width="7.5" height="5.5" fill="rgb(203,213,254)"/><rect x="319.6363636363636" y="270.22222222222223" width="7.5" height="5.5" fill="rgb(162,177,252)"/><rect x="326.54545454545456" y="270.22222222222223" width="7.5" height="5.5" fill="rgb(203,213,254)"/><rect x="340.3636363636364" y="270.22222222222223" width="7.5" height="5.5" fill="rgb(145,158,250)"/><rect x="347.27272727272725" y="270.22222222222223" width="7.5" height="5.5" fill="rgb(196,207,254)"/><rect x="354.1818181818182" y="270.22222222222223" width="7.5" height="5.5" fill="rgb(217,225,255)"/><rect x="361.0909090909091" y="270.22222222222223" width="7.5" height="5.5" fill="rgb(217,225,255)"/><rect x="381.8181818181818" y="270.22222222222223" width="7.5" height="5.5" fill="rgb(203,213,254)"/><rect x="457.8181818181818" y="270.22222222222223" width="7.5" height="5.5" fill="rgb(217,225,255)"/><rect x="464.72727272727275" y="270.22222222222223" width="7.5" height="5.5" fill="rgb(217,225,255)"/><rect x="312.72727272727275" y="265.33333333333337" width="7.5" height="5.5" fill="rgb(217,225,255)"/><rect x="319.6363636363636" y="265.33333333333337" width="7.5" height="5.5" fill="rgb(203,213,254)"/><rect x="416.3636363636364" y="265.33333333333337" width="7.5" height="5.5" fill="rgb(217,225,255)"/><rect x="271.27272727272725" y="260.44444444444446" width="7.5" height="5.5" fill="rgb(217,225,255)"/><rect x="319.6363636363636" y="260.44444444444446" width="7.5" height="5.5" fill="rgb(210,219,254)"/><rect x="312.72727272727275" y="255.55555555555557" width="7.5" height="5.5" fill="rgb(217,225,255)"/><rect x="354.1818181818182" y="255.55555555555557" width="7.5" height="5.5" fill="rgb(217,225,255)"/><rect x="216" y="250.66666666666669" width="7.5" height="5.5" fill="rgb(217,225,255)"/><rect x="319.6363636363636" y="250.66666666666669" width="7.5" height="5.5" fill="rgb(217,225,255)"/><rect x="340.3636363636364" y="250.66666666666669" width="7.5" height="5.5" fill="rgb(210,219,254)"/><rect x="319.6363636363636" y="245.7777777777778" width="7.5" height="5.5" fill="rgb(196,207,254)"/><rect x="499.27272727272725" y="245.7777777777778" width="7.5" height="5.5" fill="rgb(217,225,255)"/><rect x="264.3636363636364" y="240.8888888888889" width="7.5" height="5.5" fill="rgb(217,225,255)"/><rect x="298.9090909090909" y="240.8888888888889" width="7.5" height="5.5" fill="rgb(217,225,255)"/><rect x="312.72727272727275" y="240.8888888888889" width="7.5" height="5.5" fill="rgb(175,189,253)"/><rect x="319.6363636363636" y="240.8888888888889" width="7.5" height="5.5" fill="rgb(189,201,253)"/><rect x="326.54545454545456" y="240.8888888888889" width="7.5" height="5.5" fill="rgb(217,225,255)"/><rect x="333.45454545454544" y="240.8888888888889" width="7.5" height="5.5" fill="rgb(217,225,255)"/><rect x="340.3636363636364" y="240.8888888888889" width="7.5" height="5.5" fill="rgb(217,225,255)"/><rect x="361.0909090909091" y="240.8888888888889" width="7.5" height="5.5" fill="rgb(217,225,255)"/><rect x="195.27272727272728" y="231.11111111111114" width="7.5" height="5.5" fill="rgb(217,225,255)"/><rect x="222.9090909090909" y="231.11111111111114" width="7.5" height="5.5" fill="rgb(217,225,255)"/><rect x="229.8181818181818" y="231.11111111111114" width="7.5" height="5.5" fill="rgb(217,225,255)"/><rect x="264.3636363636364" y="231.11111111111114" width="7.5" height="5.5" fill="rgb(210,219,254)"/><rect x="271.27272727272725" y="231.11111111111114" width="7.5" height="5.5" fill="rgb(217,225,255)"/><rect x="285.0909090909091" y="231.11111111111114" width="7.5" height="5.5" fill="rgb(189,201,253)"/><rect x="292" y="231.11111111111114" width="7.5" height="5.5" fill="rgb(196,207,254)"/><rect x="298.9090909090909" y="231.11111111111114" width="7.5" height="5.5" fill="rgb(175,189,253)"/><rect x="305.8181818181818" y="231.11111111111114" width="7.5" height="5.5" fill="rgb(217,225,255)"/><rect x="388.72727272727275" y="231.11111111111114" width="7.5" height="5.5" fill="rgb(217,225,255)"/><rect x="416.3636363636364" y="231.11111111111114" width="7.5" height="5.5" fill="rgb(210,219,254)"/><rect x="423.27272727272725" y="231.11111111111114" width="7.5" height="5.5" fill="rgb(217,225,255)"/><rect x="105.45454545454545" y="226.22222222222223" width="7.5" height="5.5" fill="rgb(217,225,255)"/><rect x="222.9090909090909" y="226.22222222222223" width="7.5" height="5.5" fill="rgb(217,225,255)"/><rect x="229.8181818181818" y="226.22222222222223" width="7.5" height="5.5" fill="rgb(196,207,254)"/><rect x="236.72727272727272" y="226.22222222222223" width="7.5" height="5.5" fill="rgb(217,225,255)"/><rect x="243.63636363636363" y="226.22222222222223" width="7.5" height="5.5" fill="rgb(217,225,255)"/><rect x="264.3636363636364" y="226.22222222222223" width="7.5" height="5.5" fill="rgb(210,219,254)"/><rect x="271.27272727272725" y="226.22222222222223" width="7.5" height="5.5" fill="rgb(203,213,254)"/><rect x="278.1818181818182" y="226.22222222222223" width="7.5" height="5.5" fill="rgb(210,219,254)"/><rect x="285.0909090909091" y="226.22222222222223" width="7.5" height="5.5" fill="rgb(119,125,242)"/><rect x="292" y="226.22222222222223" width="7.5" height="5.5" fill="rgb(39,34,106)"/><rect x="298.9090909090909" y="226.22222222222223" width="7.5" height="5.5" fill="rgb(30,27,75)"/><rect x="423.27272727272725" y="226.22222222222223" width="7.5" height="5.5" fill="rgb(217,225,255)"/><rect x="437.0909090909091" y="226.22222222222223" width="7.5" height="5.5" fill="rgb(217,225,255)"/><rect x="229.8181818181818" y="221.33333333333334" width="7.5" height="5.5" fill="rgb(210,219,254)"/><rect x="271.27272727272725" y="221.33333333333334" width="7.5" height="5.5" fill="rgb(217,225,255)"/><rect x="278.1818181818182" y="221.33333333333334" width="7.5" height="5.5" fill="rgb(217,225,255)"/><rect x="285.0909090909091" y="221.33333333333334" width="7.5" height="5.5" fill="rgb(196,207,254)"/><rect x="292" y="221.33333333333334" width="7.5" height="5.5" fill="rgb(162,177,252)"/><rect x="298.9090909090909" y="221.33333333333334" width="7.5" height="5.5" fill="rgb(196,207,254)"/><rect x="416.3636363636364" y="221.33333333333334" width="7.5" height="5.5" fill="rgb(217,225,255)"/><rect x="229.8181818181818" y="216.44444444444446" width="7.5" height="5.5" fill="rgb(203,213,254)"/><rect x="271.27272727272725" y="216.44444444444446" width="7.5" height="5.5" fill="rgb(217,225,255)"/><rect x="278.1818181818182" y="216.44444444444446" width="7.5" height="5.5" fill="rgb(217,225,255)"/><rect x="285.0909090909091" y="216.44444444444446" width="7.5" height="5.5" fill="rgb(189,201,253)"/><rect x="292" y="216.44444444444446" width="7.5" height="5.5" fill="rgb(203,213,254)"/><rect x="298.9090909090909" y="216.44444444444446" width="7.5" height="5.5" fill="rgb(217,225,255)"/><rect x="492.3636363636364" y="216.44444444444446" width="7.5" height="5.5" fill="rgb(217,225,255)"/><rect x="229.8181818181818" y="211.55555555555557" width="7.5" height="5.5" fill="rgb(217,225,255)"/><rect x="243.63636363636363" y="211.55555555555557" width="7.5" height="5.5" fill="rgb(217,225,255)"/><rect x="271.27272727272725" y="211.55555555555557" width="7.5" height="5.5" fill="rgb(217,225,255)"/><rect x="285.0909090909091" y="211.55555555555557" width="7.5" height="5.5" fill="rgb(203,213,254)"/><rect x="292" y="211.55555555555557" width="7.5" height="5.5" fill="rgb(210,219,254)"/><rect x="298.9090909090909" y="211.55555555555557" width="7.5" height="5.5" fill="rgb(210,219,254)"/><rect x="395.6363636363636" y="211.55555555555557" width="7.5" height="5.5" fill="rgb(217,225,255)"/><rect x="195.27272727272728" y="206.66666666666669" width="7.5" height="5.5" fill="rgb(217,225,255)"/><rect x="222.9090909090909" y="206.66666666666669" width="7.5" height="5.5" fill="rgb(217,225,255)"/><rect x="229.8181818181818" y="206.66666666666669" width="7.5" height="5.5" fill="rgb(175,189,253)"/><rect x="236.72727272727272" y="206.66666666666669" width="7.5" height="5.5" fill="rgb(217,225,255)"/><rect x="264.3636363636364" y="206.66666666666669" width="7.5" height="5.5" fill="rgb(196,207,254)"/><rect x="271.27272727272725" y="206.66666666666669" width="7.5" height="5.5" fill="rgb(189,201,253)"/><rect x="285.0909090909091" y="206.66666666666669" width="7.5" height="5.5" fill="rgb(154,168,251)"/><rect x="292" y="206.66666666666669" width="7.5" height="5.5" fill="rgb(124,132,245)"/><rect x="298.9090909090909" y="206.66666666666669" width="7.5" height="5.5" fill="rgb(150,163,250)"/><rect x="374.90909090909093" y="206.66666666666669" width="7.5" height="5.5" fill="rgb(217,225,255)"/><rect x="381.8181818181818" y="206.66666666666669" width="7.5" height="5.5" fill="rgb(217,225,255)"/><rect x="229.8181818181818" y="201.7777777777778" width="7.5" height="5.5" fill="rgb(210,219,254)"/><rect x="271.27272727272725" y="201.7777777777778" width="7.5" height="5.5" fill="rgb(210,219,254)"/><rect x="278.1818181818182" y="201.7777777777778" width="7.5" height="5.5" fill="rgb(217,225,255)"/><rect x="285.0909090909091" y="201.7777777777778" width="7.5" height="5.5" fill="rgb(189,201,253)"/><rect x="292" y="201.7777777777778" width="7.5" height="5.5" fill="rgb(189,201,253)"/><rect x="298.9090909090909" y="201.7777777777778" width="7.5" height="5.5" fill="rgb(203,213,254)"/><rect x="84.72727272727272" y="196.8888888888889" width="7.5" height="5.5" fill="rgb(217,225,255)"/><rect x="209.0909090909091" y="196.8888888888889" width="7.5" height="5.5" fill="rgb(217,225,255)"/><rect x="222.9090909090909" y="196.8888888888889" width="7.5" height="5.5" fill="rgb(217,225,255)"/><rect x="229.8181818181818" y="196.8888888888889" width="7.5" height="5.5" fill="rgb(210,219,254)"/><rect x="264.3636363636364" y="196.8888888888889" width="7.5" height="5.5" fill="rgb(210,219,254)"/><rect x="271.27272727272725" y="196.8888888888889" width="7.5" height="5.5" fill="rgb(217,225,255)"/><rect x="278.1818181818182" y="196.8888888888889" width="7.5" height="5.5" fill="rgb(217,225,255)"/><rect x="285.0909090909091" y="196.8888888888889" width="7.5" height="5.5" fill="rgb(203,213,254)"/><rect x="292" y="196.8888888888889" width="7.5" height="5.5" fill="rgb(196,207,254)"/><rect x="298.9090909090909" y="196.8888888888889" width="7.5" height="5.5" fill="rgb(210,219,254)"/><rect x="381.8181818181818" y="196.8888888888889" width="7.5" height="5.5" fill="rgb(217,225,255)"/><rect x="492.3636363636364" y="196.8888888888889" width="7.5" height="5.5" fill="rgb(217,225,255)"/><rect x="181.45454545454544" y="192" width="7.5" height="5.5" fill="rgb(217,225,255)"/><rect x="216" y="192" width="7.5" height="5.5" fill="rgb(217,225,255)"/><rect x="229.8181818181818" y="192" width="7.5" height="5.5" fill="rgb(217,225,255)"/><rect x="285.0909090909091" y="192" width="7.5" height="5.5" fill="rgb(210,219,254)"/><rect x="292" y="192" width="7.5" height="5.5" fill="rgb(210,219,254)"/><rect x="312.72727272727275" y="192" width="7.5" height="5.5" fill="rgb(217,225,255)"/><rect x="333.45454545454544" y="192" width="7.5" height="5.5" fill="rgb(217,225,255)"/><rect x="340.3636363636364" y="192" width="7.5" height="5.5" fill="rgb(217,225,255)"/><rect x="381.8181818181818" y="192" width="7.5" height="5.5" fill="rgb(217,225,255)"/><rect x="222.9090909090909" y="187.11111111111111" width="7.5" height="5.5" fill="rgb(217,225,255)"/><rect x="229.8181818181818" y="187.11111111111111" width="7.5" height="5.5" fill="rgb(203,213,254)"/><rect x="236.72727272727272" y="187.11111111111111" width="7.5" height="5.5" fill="rgb(217,225,255)"/><rect x="271.27272727272725" y="187.11111111111111" width="7.5" height="5.5" fill="rgb(210,219,254)"/><rect x="285.0909090909091" y="187.11111111111111" width="7.5" height="5.5" fill="rgb(217,225,255)"/><rect x="298.9090909090909" y="187.11111111111111" width="7.5" height="5.5" fill="rgb(210,219,254)"/><rect x="326.54545454545456" y="187.11111111111111" width="7.5" height="5.5" fill="rgb(217,225,255)"/><rect x="402.54545454545456" y="187.11111111111111" width="7.5" height="5.5" fill="rgb(217,225,255)"/><rect x="202.1818181818182" y="182.22222222222223" width="7.5" height="5.5" fill="rgb(217,225,255)"/><rect x="292" y="182.22222222222223" width="7.5" height="5.5" fill="rgb(217,225,255)"/><rect x="271.27272727272725" y="177.33333333333334" width="7.5" height="5.5" fill="rgb(203,213,254)"/><rect x="285.0909090909091" y="177.33333333333334" width="7.5" height="5.5" fill="rgb(203,213,254)"/><rect x="292" y="177.33333333333334" width="7.5" height="5.5" fill="rgb(217,225,255)"/><rect x="222.9090909090909" y="172.44444444444446" width="7.5" height="5.5" fill="rgb(217,225,255)"/><rect x="264.3636363636364" y="172.44444444444446" width="7.5" height="5.5" fill="rgb(217,225,255)"/><rect x="285.0909090909091" y="172.44444444444446" width="7.5" height="5.5" fill="rgb(210,219,254)"/><rect x="292" y="172.44444444444446" width="7.5" height="5.5" fill="rgb(217,225,255)"/><rect x="298.9090909090909" y="172.44444444444446" width="7.5" height="5.5" fill="rgb(217,225,255)"/><rect x="340.3636363636364" y="172.44444444444446" width="7.5" height="5.5" fill="rgb(217,225,255)"/><rect x="229.8181818181818" y="167.55555555555557" width="7.5" height="5.5" fill="rgb(217,225,255)"/><rect x="264.3636363636364" y="167.55555555555557" width="7.5" height="5.5" fill="rgb(217,225,255)"/><rect x="271.27272727272725" y="167.55555555555557" width="7.5" height="5.5" fill="rgb(217,225,255)"/><rect x="278.1818181818182" y="167.55555555555557" width="7.5" height="5.5" fill="rgb(217,225,255)"/><rect x="285.0909090909091" y="167.55555555555557" width="7.5" height="5.5" fill="rgb(203,213,254)"/><rect x="292" y="167.55555555555557" width="7.5" height="5.5" fill="rgb(210,219,254)"/><rect x="298.9090909090909" y="167.55555555555557" width="7.5" height="5.5" fill="rgb(217,225,255)"/><rect x="305.8181818181818" y="167.55555555555557" width="7.5" height="5.5" fill="rgb(217,225,255)"/><rect x="450.90909090909093" y="128.44444444444446" width="7.5" height="5.5" fill="rgb(217,225,255)"/><g pointer-events="none"><line x1="305.72727272727275" y1="231.44444444444449" x2="319.72727272727275" y2="245.44444444444449" stroke="#fff" stroke-width="4.5" stroke-linecap="round"/><line x1="305.72727272727275" y1="245.44444444444449" x2="319.72727272727275" y2="231.44444444444449" stroke="#fff" stroke-width="4.5" stroke-linecap="round"/><line x1="305.72727272727275" y1="231.44444444444449" x2="319.72727272727275" y2="245.44444444444449" stroke="#111827" stroke-width="2.2" stroke-linecap="round"/><line x1="305.72727272727275" y1="245.44444444444449" x2="319.72727272727275" y2="231.44444444444449" stroke="#111827" stroke-width="2.2" stroke-linecap="round"/></g><g pointer-events="none"><line x1="271.1818181818182" y1="277.8888888888889" x2="285.1818181818182" y2="291.8888888888889" stroke="#fff" stroke-width="4.5" stroke-linecap="round"/><line x1="271.1818181818182" y1="291.8888888888889" x2="285.1818181818182" y2="277.8888888888889" stroke="#fff" stroke-width="4.5" stroke-linecap="round"/><line x1="271.1818181818182" y1="277.8888888888889" x2="285.1818181818182" y2="291.8888888888889" stroke="#9ca3af" stroke-width="2.2" stroke-linecap="round"/><line x1="271.1818181818182" y1="291.8888888888889" x2="285.1818181818182" y2="277.8888888888889" stroke="#9ca3af" stroke-width="2.2" stroke-linecap="round"/></g><rect x="64" y="16" width="456" height="440" fill="none" stroke="#cbd5e1"/><g transform="translate(69,22)"><line x1="0" y1="0" x2="9" y2="9" stroke="#111827" stroke-width="2" stroke-linecap="round"/><line x1="0" y1="9" x2="9" y2="0" stroke="#111827" stroke-width="2" stroke-linecap="round"/><text x="15" y="8.5" font-size="9.5" fill="#64748b">site 1</text></g><g transform="translate(69,35)"><line x1="0" y1="0" x2="9" y2="9" stroke="#9ca3af" stroke-width="2" stroke-linecap="round"/><line x1="0" y1="9" x2="9" y2="0" stroke="#9ca3af" stroke-width="2" stroke-linecap="round"/><text x="15" y="8.5" font-size="9.5" fill="#64748b">site 2</text></g><g transform="translate(64,456)"><line y2="5" stroke="#94a3b8"/><text y="17" text-anchor="middle">-300</text></g><g transform="translate(271.27272727272725,456)"><line y2="5" stroke="#94a3b8"/><text y="17" text-anchor="middle">start</text></g><g transform="translate(298.9090909090909,456)"><line y2="5" stroke="#94a3b8"/><text y="17" text-anchor="middle">end</text></g><g transform="translate(513.0909090909091,456)"><line y2="5" stroke="#94a3b8"/><text y="17" text-anchor="middle">+300</text></g><g transform="translate(64,453.5555555555556)"><line x2="-5" stroke="#94a3b8"/><text x="-9" y="3" text-anchor="end">-300</text></g><g transform="translate(64,306.8888888888889)"><line x2="-5" stroke="#94a3b8"/><text x="-9" y="3" text-anchor="end">start</text></g><g transform="translate(64,170.00000000000003)"><line x2="-5" stroke="#94a3b8"/><text x="-9" y="3" text-anchor="end">end</text></g><g transform="translate(64,18.444444444444443)"><line x2="-5" stroke="#94a3b8"/><text x="-9" y="3" text-anchor="end">+300</text></g><text x="292" y="512" text-anchor="middle" font-size="11" fill="#475569" style="font-style: italic;">5'oppA (5′→3′)</text><text transform="translate(16,236) rotate(-90)" text-anchor="middle" font-size="11" fill="#475569" style="font-style: normal;">GcvB (5′→3′)</text></svg>